solid OpenSCAD_Model
  facet normal -1 0 0
    outer loop
      vertex -22.6 -6.1 0
      vertex -22.6 -6.1 0.01
      vertex -22.6 6.1 0.01
    endloop
  endfacet
  facet normal -0.9481522731546325 0 0.31781640440937475
    outer loop
      vertex -22.6 -6.1 0.01
      vertex -22 -5.5 1.8000000000000003
      vertex -22.6 6.1 0.01
    endloop
  endfacet
  facet normal 0 -1 0
    outer loop
      vertex -22.6 -6.1 0
      vertex 22.6 -6.1 0
      vertex -22.6 -6.1 0.01
    endloop
  endfacet
  facet normal 0 -0.9481522731546327 0.31781640440937386
    outer loop
      vertex -22.6 -6.1 0.01
      vertex 22.6 -6.1 0.01
      vertex -22 -5.5 1.8000000000000003
    endloop
  endfacet
  facet normal 0 0 1
    outer loop
      vertex -22 -5.5 1.8000000000000003
      vertex 22 -5.5 1.8000000000000003
      vertex -4.31396310031414 -3.065279997885227 1.8000000000000003
    endloop
  endfacet
  facet normal 0 0 1
    outer loop
      vertex -22 -5.5 1.8000000000000003
      vertex -4.31396310031414 -3.065279997885227 1.8000000000000003
      vertex -4.31396310031414 3.065279997885227 1.8000000000000003
    endloop
  endfacet
  facet normal 0 0 1
    outer loop
      vertex -1.6970670968294144 -3.065279997885227 1.8000000000000003
      vertex -0.9308649003505707 -3.0632959976792336 1.8000000000000003
      vertex -1.6970670968294144 -2.1871739998459816 1.8000000000000003
    endloop
  endfacet
  facet normal 0 0 1
    outer loop
      vertex -0.9308649003505707 2.239936001598835 1.8000000000000003
      vertex -1.6970670968294144 -2.1871739998459816 1.8000000000000003
      vertex -0.9308649003505707 -3.0632959976792336 1.8000000000000003
    endloop
  endfacet
  facet normal 0 0 1
    outer loop
      vertex -0.9308649003505707 2.239936001598835 1.8000000000000003
      vertex -3.4356091022491455 -2.1871739998459816 1.8000000000000003
      vertex -1.6970670968294144 -2.1871739998459816 1.8000000000000003
    endloop
  endfacet
  facet normal -1 0 0
    outer loop
      vertex -22.6 -6.1 0
      vertex -22.6 6.1 0.01
      vertex -22.6 6.1 0
    endloop
  endfacet
  facet normal 0 0 -1
    outer loop
      vertex -22.6 -6.1 0
      vertex -22.6 6.1 0
      vertex 22.6 6.1 0
    endloop
  endfacet
  facet normal 0 1 0
    outer loop
      vertex -22.6 6.1 0
      vertex -22.6 6.1 0.01
      vertex 22.6 6.1 0
    endloop
  endfacet
  facet normal -0.9481522731546325 0 0.31781640440937475
    outer loop
      vertex -22 -5.5 1.8000000000000003
      vertex -22 5.5 1.8000000000000003
      vertex -22.6 6.1 0.01
    endloop
  endfacet
  facet normal 0 0 1
    outer loop
      vertex -22 -5.5 1.8000000000000003
      vertex -4.31396310031414 3.065279997885227 1.8000000000000003
      vertex -22 5.5 1.8000000000000003
    endloop
  endfacet
  facet normal 0 0 1
    outer loop
      vertex -3.4356091022491455 -2.1871739998459816 1.8000000000000003
      vertex -1.9466729015111923 2.239936001598835 1.8000000000000003
      vertex -3.4356091022491455 3.065279997885227 1.8000000000000003
    endloop
  endfacet
  facet normal 0 0 1
    outer loop
      vertex -3.4356091022491455 -2.1871739998459816 1.8000000000000003
      vertex -0.9308649003505707 2.239936001598835 1.8000000000000003
      vertex -1.9466729015111923 2.239936001598835 1.8000000000000003
    endloop
  endfacet
  facet normal 0 0 1
    outer loop
      vertex -1.9466729015111923 3.065279997885227 1.8000000000000003
      vertex -3.4356091022491455 3.065279997885227 1.8000000000000003
      vertex -1.9466729015111923 2.239936001598835 1.8000000000000003
    endloop
  endfacet
  facet normal 1.240310982252989e-18 0.9481522731546328 0.3178164044093739
    outer loop
      vertex -22.6 6.1 0.01
      vertex -22 5.5 1.8000000000000003
      vertex 22 5.5 1.8000000000000003
    endloop
  endfacet
  facet normal 0 0 1
    outer loop
      vertex -22 5.5 1.8000000000000003
      vertex -4.31396310031414 3.065279997885227 1.8000000000000003
      vertex 22 5.5 1.8000000000000003
    endloop
  endfacet
  facet normal 0 -1 0
    outer loop
      vertex -22.6 -6.1 0.01
      vertex 22.6 -6.1 0
      vertex 22.6 -6.1 0.01
    endloop
  endfacet
  facet normal 0 0 -1
    outer loop
      vertex -22.6 -6.1 0
      vertex 22.6 6.1 0
      vertex 22.6 -6.1 0
    endloop
  endfacet
  facet normal 1 0 0
    outer loop
      vertex 22.6 -6.1 0
      vertex 22.6 6.1 0
      vertex 22.6 -6.1 0.01
    endloop
  endfacet
  facet normal 0 -0.9481522731546328 0.3178164044093739
    outer loop
      vertex -22 -5.5 1.8000000000000003
      vertex 22.6 -6.1 0.01
      vertex 22 -5.5 1.8000000000000003
    endloop
  endfacet
  facet normal 0 0 1
    outer loop
      vertex 22 -5.5 1.8000000000000003
      vertex -1.6970670968294144 -3.065279997885227 1.8000000000000003
      vertex -4.31396310031414 -3.065279997885227 1.8000000000000003
    endloop
  endfacet
  facet normal 0 0 1
    outer loop
      vertex 22 -5.5 1.8000000000000003
      vertex -0.9308649003505707 -3.0632959976792336 1.8000000000000003
      vertex -1.6970670968294144 -3.065279997885227 1.8000000000000003
    endloop
  endfacet
  facet normal 0 0 1
    outer loop
      vertex 22 -5.5 1.8000000000000003
      vertex -0.05251090228557587 -3.0632959976792336 1.8000000000000003
      vertex -0.9308649003505707 -3.0632959976792336 1.8000000000000003
    endloop
  endfacet
  facet normal 0 0 1
    outer loop
      vertex 22 -5.5 1.8000000000000003
      vertex 1.6345772966742516 -3.062490001320839 1.8000000000000003
      vertex -0.05251090228557587 -3.0632959976792336 1.8000000000000003
    endloop
  endfacet
  facet normal 0 0 1
    outer loop
      vertex 22 -5.5 1.8000000000000003
      vertex 4.2514733001589775 -3.062490001320839 1.8000000000000003
      vertex 1.6345772966742516 -3.062490001320839 1.8000000000000003
    endloop
  endfacet
  facet normal 0 0 1
    outer loop
      vertex 22 -5.5 1.8000000000000003
      vertex 4.2514733001589775 -2.1843840032815933 1.8000000000000003
      vertex 4.2514733001589775 -3.062490001320839 1.8000000000000003
    endloop
  endfacet
  facet normal 0 0 1
    outer loop
      vertex 2.5135513022542 -2.1843840032815933 1.8000000000000003
      vertex 4.2514733001589775 -2.1843840032815933 1.8000000000000003
      vertex 2.5135513022542 -0.3868800029158592 1.8000000000000003
    endloop
  endfacet
  facet normal 0 0 1
    outer loop
      vertex 1.6345772966742516 3.065279997885227 1.8000000000000003
      vertex -0.05251090228557587 -3.0632959976792336 1.8000000000000003
      vertex 1.6345772966742516 -3.062490001320839 1.8000000000000003
    endloop
  endfacet
  facet normal 0 0 1
    outer loop
      vertex 4.2514733001589775 -2.1843840032815933 1.8000000000000003
      vertex 4.02926529943943 -0.3868800029158592 1.8000000000000003
      vertex 2.5135513022542 -0.3868800029158592 1.8000000000000003
    endloop
  endfacet
  facet normal 0 0 1
    outer loop
      vertex 22 -5.5 1.8000000000000003
      vertex 4.02926529943943 -0.3868800029158592 1.8000000000000003
      vertex 4.2514733001589775 -2.1843840032815933 1.8000000000000003
    endloop
  endfacet
  facet normal 0 0 1
    outer loop
      vertex 22 -5.5 1.8000000000000003
      vertex 4.02926529943943 0.4384640008211136 1.8000000000000003
      vertex 4.02926529943943 -0.3868800029158592 1.8000000000000003
    endloop
  endfacet
  facet normal 0.9481522731546325 1.5396963917623116e-18 0.31781640440937475
    outer loop
      vertex 22.6 -6.1 0.01
      vertex 22 5.5 1.8000000000000003
      vertex 22 -5.5 1.8000000000000003
    endloop
  endfacet
  facet normal 0 1 0
    outer loop
      vertex -22.6 6.1 0.01
      vertex 22.6 6.1 0.01
      vertex 22.6 6.1 0
    endloop
  endfacet
  facet normal 0 0.9481522731546327 0.31781640440937386
    outer loop
      vertex -22.6 6.1 0.01
      vertex 22 5.5 1.8000000000000003
      vertex 22.6 6.1 0.01
    endloop
  endfacet
  facet normal 1 0 0
    outer loop
      vertex 22.6 -6.1 0.01
      vertex 22.6 6.1 0
      vertex 22.6 6.1 0.01
    endloop
  endfacet
  facet normal 0.9481522731546325 0 0.31781640440937475
    outer loop
      vertex 22.6 -6.1 0.01
      vertex 22.6 6.1 0.01
      vertex 22 5.5 1.8000000000000003
    endloop
  endfacet
  facet normal 0 0 1
    outer loop
      vertex -0.05251090228557587 -3.0632959976792336 1.8000000000000003
      vertex 0.9658391028642654 2.239936001598835 1.8000000000000003
      vertex -0.05251090228557587 2.239936001598835 1.8000000000000003
    endloop
  endfacet
  facet normal 0 0 1
    outer loop
      vertex -0.05251090228557587 -3.0632959976792336 1.8000000000000003
      vertex 1.6345772966742516 3.065279997885227 1.8000000000000003
      vertex 0.9658391028642654 2.239936001598835 1.8000000000000003
    endloop
  endfacet
  facet normal 0 0 1
    outer loop
      vertex 0.9658391028642654 2.239936001598835 1.8000000000000003
      vertex 1.6345772966742516 3.065279997885227 1.8000000000000003
      vertex 0.9658391028642654 3.065279997885227 1.8000000000000003
    endloop
  endfacet
  facet normal 0 0 1
    outer loop
      vertex 2.5135513022542 0.4384640008211136 1.8000000000000003
      vertex 4.2514733001589775 2.239936001598835 1.8000000000000003
      vertex 2.5135513022542 2.239936001598835 1.8000000000000003
    endloop
  endfacet
  facet normal 0 0 1
    outer loop
      vertex 22 5.5 1.8000000000000003
      vertex 2.5135513022542 0.4384640008211136 1.8000000000000003
      vertex 4.02926529943943 0.4384640008211136 1.8000000000000003
    endloop
  endfacet
  facet normal 0 0 1
    outer loop
      vertex 22 5.5 1.8000000000000003
      vertex 4.2514733001589775 2.239936001598835 1.8000000000000003
      vertex 2.5135513022542 0.4384640008211136 1.8000000000000003
    endloop
  endfacet
  facet normal 0 0 1
    outer loop
      vertex 22 5.5 1.8000000000000003
      vertex -4.31396310031414 3.065279997885227 1.8000000000000003
      vertex -3.4356091022491455 3.065279997885227 1.8000000000000003
    endloop
  endfacet
  facet normal 0 0 1
    outer loop
      vertex 22 5.5 1.8000000000000003
      vertex -3.4356091022491455 3.065279997885227 1.8000000000000003
      vertex -1.9466729015111923 3.065279997885227 1.8000000000000003
    endloop
  endfacet
  facet normal 0 0 1
    outer loop
      vertex 22 5.5 1.8000000000000003
      vertex -1.9466729015111923 3.065279997885227 1.8000000000000003
      vertex 0.9658391028642654 3.065279997885227 1.8000000000000003
    endloop
  endfacet
  facet normal 0 0 1
    outer loop
      vertex 22 5.5 1.8000000000000003
      vertex 0.9658391028642654 3.065279997885227 1.8000000000000003
      vertex 1.6345772966742516 3.065279997885227 1.8000000000000003
    endloop
  endfacet
  facet normal 0 0 1
    outer loop
      vertex 22 5.5 1.8000000000000003
      vertex 4.2514733001589775 3.065279997885227 1.8000000000000003
      vertex 4.2514733001589775 2.239936001598835 1.8000000000000003
    endloop
  endfacet
  facet normal 0 0 1
    outer loop
      vertex 22 5.5 1.8000000000000003
      vertex 1.6345772966742516 3.065279997885227 1.8000000000000003
      vertex 4.2514733001589775 3.065279997885227 1.8000000000000003
    endloop
  endfacet
  facet normal 0 0 1
    outer loop
      vertex 22 -5.5 1.8000000000000003
      vertex 22 5.5 1.8000000000000003
      vertex 4.02926529943943 0.4384640008211136 1.8000000000000003
    endloop
  endfacet
  facet normal 0 1 0
    outer loop
      vertex -4.31396310031414 -3.065279997885227 1.3
      vertex -4.31396310031414 -3.065279997885227 1.8000000000000003
      vertex -1.6970670968294144 -3.065279997885227 1.3
    endloop
  endfacet
  facet normal 0 1 0
    outer loop
      vertex -0.9308649003505707 -3.0632959976792336 1.3
      vertex -0.9308649003505707 -3.0632959976792336 1.8000000000000003
      vertex -0.05251090228557587 -3.0632959976792336 1.3
    endloop
  endfacet
  facet normal 0 1 0
    outer loop
      vertex -1.6970670968294144 -3.065279997885227 1.3
      vertex -4.31396310031414 -3.065279997885227 1.8000000000000003
      vertex -1.6970670968294144 -3.065279997885227 1.8000000000000003
    endloop
  endfacet
  facet normal 0 1 0
    outer loop
      vertex -0.05251090228557587 -3.0632959976792336 1.3
      vertex -0.9308649003505707 -3.0632959976792336 1.8000000000000003
      vertex -0.05251090228557587 -3.0632959976792336 1.8000000000000003
    endloop
  endfacet
  facet normal 0 0 1
    outer loop
      vertex -4.31396310031414 -3.065279997885227 1.3
      vertex -1.6970670968294144 -3.065279997885227 1.3
      vertex -3.4356091022491455 -2.1871739998459816 1.3
    endloop
  endfacet
  facet normal 0 0 1
    outer loop
      vertex -3.4356091022491455 -2.1871739998459816 1.3
      vertex -1.6970670968294144 -3.065279997885227 1.3
      vertex -1.6970670968294144 -2.1871739998459816 1.3
    endloop
  endfacet
  facet normal 0 0 1
    outer loop
      vertex -4.31396310031414 -3.065279997885227 1.3
      vertex -3.4356091022491455 -2.1871739998459816 1.3
      vertex -4.31396310031414 3.065279997885227 1.3
    endloop
  endfacet
  facet normal 0 0 1
    outer loop
      vertex -0.9308649003505707 -3.0632959976792336 1.3
      vertex -0.05251090228557587 -3.0632959976792336 1.3
      vertex -0.9308649003505707 2.239936001598835 1.3
    endloop
  endfacet
  facet normal -1 0 0
    outer loop
      vertex -1.6970670968294144 -3.065279997885227 1.3
      vertex -1.6970670968294144 -3.065279997885227 1.8000000000000003
      vertex -1.6970670968294144 -2.1871739998459816 1.3
    endloop
  endfacet
  facet normal 0 -1 0
    outer loop
      vertex -3.4356091022491455 -2.1871739998459816 1.3
      vertex -1.6970670968294144 -2.1871739998459816 1.3
      vertex -1.6970670968294144 -2.1871739998459816 1.8000000000000003
    endloop
  endfacet
  facet normal 0 -1 0
    outer loop
      vertex -3.4356091022491455 -2.1871739998459816 1.3
      vertex -1.6970670968294144 -2.1871739998459816 1.8000000000000003
      vertex -3.4356091022491455 -2.1871739998459816 1.8000000000000003
    endloop
  endfacet
  facet normal -1 0 0
    outer loop
      vertex -1.6970670968294144 -2.1871739998459816 1.3
      vertex -1.6970670968294144 -3.065279997885227 1.8000000000000003
      vertex -1.6970670968294144 -2.1871739998459816 1.8000000000000003
    endloop
  endfacet
  facet normal -1 0 0
    outer loop
      vertex -3.4356091022491455 -2.1871739998459816 1.3
      vertex -3.4356091022491455 -2.1871739998459816 1.8000000000000003
      vertex -3.4356091022491455 3.065279997885227 1.3
    endloop
  endfacet
  facet normal -1 0 0
    outer loop
      vertex -0.05251090228557587 -3.0632959976792336 1.3
      vertex -0.05251090228557587 -3.0632959976792336 1.8000000000000003
      vertex -0.05251090228557587 2.239936001598835 1.3
    endloop
  endfacet
  facet normal 1 0 0
    outer loop
      vertex -4.31396310031414 -3.065279997885227 1.3
      vertex -4.31396310031414 3.065279997885227 1.8000000000000003
      vertex -4.31396310031414 -3.065279997885227 1.8000000000000003
    endloop
  endfacet
  facet normal 1 0 0
    outer loop
      vertex -0.9308649003505707 -3.0632959976792336 1.3
      vertex -0.9308649003505707 2.239936001598835 1.8000000000000003
      vertex -0.9308649003505707 -3.0632959976792336 1.8000000000000003
    endloop
  endfacet
  facet normal 0 0 1
    outer loop
      vertex -3.4356091022491455 -2.1871739998459816 1.3
      vertex -3.4356091022491455 3.065279997885227 1.3
      vertex -4.31396310031414 3.065279997885227 1.3
    endloop
  endfacet
  facet normal 0 0 1
    outer loop
      vertex -0.05251090228557587 -3.0632959976792336 1.3
      vertex -0.05251090228557587 2.239936001598835 1.3
      vertex -0.9308649003505707 2.239936001598835 1.3
    endloop
  endfacet
  facet normal 0 0 1
    outer loop
      vertex -1.9466729015111923 2.239936001598835 1.3
      vertex -0.9308649003505707 2.239936001598835 1.3
      vertex -1.9466729015111923 3.065279997885227 1.3
    endloop
  endfacet
  facet normal 0 0 1
    outer loop
      vertex -1.9466729015111923 3.065279997885227 1.3
      vertex -0.9308649003505707 2.239936001598835 1.3
      vertex -0.05251090228557587 2.239936001598835 1.3
    endloop
  endfacet
  facet normal 0 0 1
    outer loop
      vertex -1.9466729015111923 3.065279997885227 1.3
      vertex -0.05251090228557587 2.239936001598835 1.3
      vertex 0.9658391028642654 3.065279997885227 1.3
    endloop
  endfacet
  facet normal 1 0 0
    outer loop
      vertex -4.31396310031414 -3.065279997885227 1.3
      vertex -4.31396310031414 3.065279997885227 1.3
      vertex -4.31396310031414 3.065279997885227 1.8000000000000003
    endloop
  endfacet
  facet normal 1 0 0
    outer loop
      vertex -0.9308649003505707 -3.0632959976792336 1.3
      vertex -0.9308649003505707 2.239936001598835 1.3
      vertex -0.9308649003505707 2.239936001598835 1.8000000000000003
    endloop
  endfacet
  facet normal -1 0 0
    outer loop
      vertex -3.4356091022491455 3.065279997885227 1.3
      vertex -3.4356091022491455 -2.1871739998459816 1.8000000000000003
      vertex -3.4356091022491455 3.065279997885227 1.8000000000000003
    endloop
  endfacet
  facet normal -1 0 0
    outer loop
      vertex -0.05251090228557587 2.239936001598835 1.3
      vertex -0.05251090228557587 -3.0632959976792336 1.8000000000000003
      vertex -0.05251090228557587 2.239936001598835 1.8000000000000003
    endloop
  endfacet
  facet normal 0 1 0
    outer loop
      vertex -1.9466729015111923 2.239936001598835 1.3
      vertex -1.9466729015111923 2.239936001598835 1.8000000000000003
      vertex -0.9308649003505707 2.239936001598835 1.3
    endloop
  endfacet
  facet normal 1 0 0
    outer loop
      vertex -1.9466729015111923 2.239936001598835 1.3
      vertex -1.9466729015111923 3.065279997885227 1.3
      vertex -1.9466729015111923 3.065279997885227 1.8000000000000003
    endloop
  endfacet
  facet normal 0 1 0
    outer loop
      vertex -0.9308649003505707 2.239936001598835 1.3
      vertex -1.9466729015111923 2.239936001598835 1.8000000000000003
      vertex -0.9308649003505707 2.239936001598835 1.8000000000000003
    endloop
  endfacet
  facet normal 1 0 0
    outer loop
      vertex -1.9466729015111923 2.239936001598835 1.3
      vertex -1.9466729015111923 3.065279997885227 1.8000000000000003
      vertex -1.9466729015111923 2.239936001598835 1.8000000000000003
    endloop
  endfacet
  facet normal 0 -1 0
    outer loop
      vertex -4.31396310031414 3.065279997885227 1.3
      vertex -3.4356091022491455 3.065279997885227 1.3
      vertex -3.4356091022491455 3.065279997885227 1.8000000000000003
    endloop
  endfacet
  facet normal 0 -1 0
    outer loop
      vertex -1.9466729015111923 3.065279997885227 1.3
      vertex 0.9658391028642654 3.065279997885227 1.3
      vertex 0.9658391028642654 3.065279997885227 1.8000000000000003
    endloop
  endfacet
  facet normal 0 -1 0
    outer loop
      vertex -4.31396310031414 3.065279997885227 1.3
      vertex -3.4356091022491455 3.065279997885227 1.8000000000000003
      vertex -4.31396310031414 3.065279997885227 1.8000000000000003
    endloop
  endfacet
  facet normal 0 -1 0
    outer loop
      vertex -1.9466729015111923 3.065279997885227 1.3
      vertex 0.9658391028642654 3.065279997885227 1.8000000000000003
      vertex -1.9466729015111923 3.065279997885227 1.8000000000000003
    endloop
  endfacet
  facet normal 0 1 0
    outer loop
      vertex 1.6345772966742516 -3.062490001320839 1.3
      vertex 1.6345772966742516 -3.062490001320839 1.8000000000000003
      vertex 4.2514733001589775 -3.062490001320839 1.3
    endloop
  endfacet
  facet normal 0 1 0
    outer loop
      vertex 4.2514733001589775 -3.062490001320839 1.3
      vertex 1.6345772966742516 -3.062490001320839 1.8000000000000003
      vertex 4.2514733001589775 -3.062490001320839 1.8000000000000003
    endloop
  endfacet
  facet normal 0 0 1
    outer loop
      vertex 1.6345772966742516 -3.062490001320839 1.3
      vertex 4.2514733001589775 -3.062490001320839 1.3
      vertex 2.5135513022542 -2.1843840032815933 1.3
    endloop
  endfacet
  facet normal 0 0 1
    outer loop
      vertex 1.6345772966742516 -3.062490001320839 1.3
      vertex 2.5135513022542 -2.1843840032815933 1.3
      vertex 2.5135513022542 -0.3868800029158592 1.3
    endloop
  endfacet
  facet normal 0 0 1
    outer loop
      vertex 2.5135513022542 -2.1843840032815933 1.3
      vertex 4.2514733001589775 -3.062490001320839 1.3
      vertex 4.2514733001589775 -2.1843840032815933 1.3
    endloop
  endfacet
  facet normal 0 0 1
    outer loop
      vertex 1.6345772966742516 -3.062490001320839 1.3
      vertex 2.5135513022542 -0.3868800029158592 1.3
      vertex 1.6345772966742516 3.065279997885227 1.3
    endloop
  endfacet
  facet normal 0 0 1
    outer loop
      vertex 2.5135513022542 -0.3868800029158592 1.3
      vertex 4.02926529943943 -0.3868800029158592 1.3
      vertex 4.02926529943943 0.4384640008211136 1.3
    endloop
  endfacet
  facet normal -1 0 0
    outer loop
      vertex 2.5135513022542 -2.1843840032815933 1.3
      vertex 2.5135513022542 -2.1843840032815933 1.8000000000000003
      vertex 2.5135513022542 -0.3868800029158592 1.3
    endloop
  endfacet
  facet normal -1 0 0
    outer loop
      vertex 4.2514733001589775 -3.062490001320839 1.3
      vertex 4.2514733001589775 -3.062490001320839 1.8000000000000003
      vertex 4.2514733001589775 -2.1843840032815933 1.3
    endloop
  endfacet
  facet normal 0 -1 0
    outer loop
      vertex 2.5135513022542 -2.1843840032815933 1.3
      vertex 4.2514733001589775 -2.1843840032815933 1.3
      vertex 4.2514733001589775 -2.1843840032815933 1.8000000000000003
    endloop
  endfacet
  facet normal -1 0 0
    outer loop
      vertex 4.2514733001589775 -2.1843840032815933 1.3
      vertex 4.2514733001589775 -3.062490001320839 1.8000000000000003
      vertex 4.2514733001589775 -2.1843840032815933 1.8000000000000003
    endloop
  endfacet
  facet normal 0 -1 0
    outer loop
      vertex 2.5135513022542 -2.1843840032815933 1.3
      vertex 4.2514733001589775 -2.1843840032815933 1.8000000000000003
      vertex 2.5135513022542 -2.1843840032815933 1.8000000000000003
    endloop
  endfacet
  facet normal 0 1 0
    outer loop
      vertex 2.5135513022542 -0.3868800029158592 1.3
      vertex 2.5135513022542 -0.3868800029158592 1.8000000000000003
      vertex 4.02926529943943 -0.3868800029158592 1.3
    endloop
  endfacet
  facet normal -1 0 0
    outer loop
      vertex 4.02926529943943 -0.3868800029158592 1.3
      vertex 4.02926529943943 -0.3868800029158592 1.8000000000000003
      vertex 4.02926529943943 0.4384640008211136 1.3
    endloop
  endfacet
  facet normal 1 0 0
    outer loop
      vertex 1.6345772966742516 -3.062490001320839 1.3
      vertex 1.6345772966742516 3.065279997885227 1.8000000000000003
      vertex 1.6345772966742516 -3.062490001320839 1.8000000000000003
    endloop
  endfacet
  facet normal -1 0 0
    outer loop
      vertex 2.5135513022542 -0.3868800029158592 1.3
      vertex 2.5135513022542 -2.1843840032815933 1.8000000000000003
      vertex 2.5135513022542 -0.3868800029158592 1.8000000000000003
    endloop
  endfacet
  facet normal 0 1 0
    outer loop
      vertex 4.02926529943943 -0.3868800029158592 1.3
      vertex 2.5135513022542 -0.3868800029158592 1.8000000000000003
      vertex 4.02926529943943 -0.3868800029158592 1.8000000000000003
    endloop
  endfacet
  facet normal 0 0 1
    outer loop
      vertex 2.5135513022542 -0.3868800029158592 1.3
      vertex 2.5135513022542 0.4384640008211136 1.3
      vertex 1.6345772966742516 3.065279997885227 1.3
    endloop
  endfacet
  facet normal 0 0 1
    outer loop
      vertex 2.5135513022542 -0.3868800029158592 1.3
      vertex 4.02926529943943 0.4384640008211136 1.3
      vertex 2.5135513022542 0.4384640008211136 1.3
    endloop
  endfacet
  facet normal 0 0 1
    outer loop
      vertex 1.6345772966742516 3.065279997885227 1.3
      vertex 2.5135513022542 0.4384640008211136 1.3
      vertex 2.5135513022542 2.239936001598835 1.3
    endloop
  endfacet
  facet normal 0 0 1
    outer loop
      vertex -0.05251090228557587 2.239936001598835 1.3
      vertex 0.9658391028642654 2.239936001598835 1.3
      vertex 0.9658391028642654 3.065279997885227 1.3
    endloop
  endfacet
  facet normal 0 0 1
    outer loop
      vertex 1.6345772966742516 3.065279997885227 1.3
      vertex 2.5135513022542 2.239936001598835 1.3
      vertex 4.2514733001589775 3.065279997885227 1.3
    endloop
  endfacet
  facet normal 0 0 1
    outer loop
      vertex 2.5135513022542 2.239936001598835 1.3
      vertex 4.2514733001589775 2.239936001598835 1.3
      vertex 4.2514733001589775 3.065279997885227 1.3
    endloop
  endfacet
  facet normal 1 0 0
    outer loop
      vertex 1.6345772966742516 -3.062490001320839 1.3
      vertex 1.6345772966742516 3.065279997885227 1.3
      vertex 1.6345772966742516 3.065279997885227 1.8000000000000003
    endloop
  endfacet
  facet normal -1 0 0
    outer loop
      vertex 2.5135513022542 0.4384640008211136 1.3
      vertex 2.5135513022542 0.4384640008211136 1.8000000000000003
      vertex 2.5135513022542 2.239936001598835 1.3
    endloop
  endfacet
  facet normal 0 -1 0
    outer loop
      vertex 2.5135513022542 0.4384640008211136 1.3
      vertex 4.02926529943943 0.4384640008211136 1.3
      vertex 4.02926529943943 0.4384640008211136 1.8000000000000003
    endloop
  endfacet
  facet normal -1 0 0
    outer loop
      vertex 4.02926529943943 0.4384640008211136 1.3
      vertex 4.02926529943943 -0.3868800029158592 1.8000000000000003
      vertex 4.02926529943943 0.4384640008211136 1.8000000000000003
    endloop
  endfacet
  facet normal 0 -1 0
    outer loop
      vertex 2.5135513022542 0.4384640008211136 1.3
      vertex 4.02926529943943 0.4384640008211136 1.8000000000000003
      vertex 2.5135513022542 0.4384640008211136 1.8000000000000003
    endloop
  endfacet
  facet normal 0 1 0
    outer loop
      vertex -0.05251090228557587 2.239936001598835 1.3
      vertex -0.05251090228557587 2.239936001598835 1.8000000000000003
      vertex 0.9658391028642654 2.239936001598835 1.3
    endloop
  endfacet
  facet normal -1 0 0
    outer loop
      vertex 0.9658391028642654 2.239936001598835 1.3
      vertex 0.9658391028642654 2.239936001598835 1.8000000000000003
      vertex 0.9658391028642654 3.065279997885227 1.3
    endloop
  endfacet
  facet normal 0 1 0
    outer loop
      vertex 2.5135513022542 2.239936001598835 1.3
      vertex 2.5135513022542 2.239936001598835 1.8000000000000003
      vertex 4.2514733001589775 2.239936001598835 1.3
    endloop
  endfacet
  facet normal -1 0 0
    outer loop
      vertex 4.2514733001589775 2.239936001598835 1.3
      vertex 4.2514733001589775 2.239936001598835 1.8000000000000003
      vertex 4.2514733001589775 3.065279997885227 1.3
    endloop
  endfacet
  facet normal 0 1 0
    outer loop
      vertex 0.9658391028642654 2.239936001598835 1.3
      vertex -0.05251090228557587 2.239936001598835 1.8000000000000003
      vertex 0.9658391028642654 2.239936001598835 1.8000000000000003
    endloop
  endfacet
  facet normal -1 0 0
    outer loop
      vertex 2.5135513022542 2.239936001598835 1.3
      vertex 2.5135513022542 0.4384640008211136 1.8000000000000003
      vertex 2.5135513022542 2.239936001598835 1.8000000000000003
    endloop
  endfacet
  facet normal -1 0 0
    outer loop
      vertex 0.9658391028642654 3.065279997885227 1.3
      vertex 0.9658391028642654 2.239936001598835 1.8000000000000003
      vertex 0.9658391028642654 3.065279997885227 1.8000000000000003
    endloop
  endfacet
  facet normal 0 1 0
    outer loop
      vertex 4.2514733001589775 2.239936001598835 1.3
      vertex 2.5135513022542 2.239936001598835 1.8000000000000003
      vertex 4.2514733001589775 2.239936001598835 1.8000000000000003
    endloop
  endfacet
  facet normal -1 0 0
    outer loop
      vertex 4.2514733001589775 3.065279997885227 1.3
      vertex 4.2514733001589775 2.239936001598835 1.8000000000000003
      vertex 4.2514733001589775 3.065279997885227 1.8000000000000003
    endloop
  endfacet
  facet normal 0 -1 0
    outer loop
      vertex 1.6345772966742516 3.065279997885227 1.3
      vertex 4.2514733001589775 3.065279997885227 1.3
      vertex 4.2514733001589775 3.065279997885227 1.8000000000000003
    endloop
  endfacet
  facet normal 0 -1 0
    outer loop
      vertex 1.6345772966742516 3.065279997885227 1.3
      vertex 4.2514733001589775 3.065279997885227 1.8000000000000003
      vertex 1.6345772966742516 3.065279997885227 1.8000000000000003
    endloop
  endfacet
endsolid OpenSCAD_Model
