solid OpenSCAD_Model
  facet normal 0 0 -1
    outer loop
      vertex -6.600000001490116 -18.541421353816986 0
      vertex -1.3999999985098839 -13.458578638732433 0
      vertex 1.458578646183014 -26.600000001490116 0
    endloop
  endfacet
  facet normal 0 0 -1
    outer loop
      vertex 1.458578646183014 -26.600000001490116 0
      vertex 6.600000001490116 -21.458578646183014 0
      vertex 6.600000001490116 -26.600000001490116 0
    endloop
  endfacet
  facet normal 0 0 -1
    outer loop
      vertex -1.3999999985098839 -13.458578638732433 0
      vertex 6.600000001490116 -21.458578646183014 0
      vertex 1.458578646183014 -26.600000001490116 0
    endloop
  endfacet
  facet normal -0.7071067811865475 -0.7071067811865475 0
    outer loop
      vertex -6.600000001490116 -18.541421353816986 0
      vertex 1.458578646183014 -26.600000001490116 0
      vertex -6.600000001490116 -18.541421353816986 1.2000000000000002
    endloop
  endfacet
  facet normal 0 -1 0
    outer loop
      vertex 1.458578646183014 -26.600000001490116 0
      vertex 6.600000001490116 -26.600000001490116 0
      vertex 1.458578646183014 -26.600000001490116 1.2000000000000002
    endloop
  endfacet
  facet normal 1 0 0
    outer loop
      vertex 6.600000001490116 -26.600000001490116 0
      vertex 6.600000001490116 -21.458578646183014 0
      vertex 6.600000001490116 -26.600000001490116 1.2000000000000002
    endloop
  endfacet
  facet normal 0.7071067815158198 0.7071067808572753 0
    outer loop
      vertex -1.3999999985098839 -13.458578638732433 0
      vertex 6.600000001490116 -21.458578646183014 1.2000000000000002
      vertex 6.600000001490116 -21.458578646183014 0
    endloop
  endfacet
  facet normal 0 0 -1
    outer loop
      vertex -6.600000001490116 -18.541421353816986 0
      vertex -1.3999999985098839 13.458578638732433 0
      vertex -1.3999999985098839 -13.458578638732433 0
    endloop
  endfacet
  facet normal 1 0 0
    outer loop
      vertex -1.3999999985098839 -13.458578638732433 0
      vertex -1.3999999985098839 13.458578638732433 0
      vertex -1.3999999985098839 -13.458578638732433 1.2000000000000002
    endloop
  endfacet
  facet normal -0.7071067811865475 -0.7071067811865475 2.8819330678622076e-16
    outer loop
      vertex -6.600000001490116 -18.541421353816986 1.2000000000000002
      vertex 1.458578646183014 -26.600000001490116 0
      vertex 1.458578646183014 -26.600000001490116 1.2000000000000002
    endloop
  endfacet
  facet normal 0 -1 0
    outer loop
      vertex 6.600000001490116 -26.600000001490116 0
      vertex 6.600000001490116 -26.600000001490116 1.2000000000000002
      vertex 1.458578646183014 -26.600000001490116 1.2000000000000002
    endloop
  endfacet
  facet normal 1 0 0
    outer loop
      vertex 6.600000001490116 -21.458578646183014 0
      vertex 6.600000001490116 -21.458578646183014 1.2000000000000002
      vertex 6.600000001490116 -26.600000001490116 1.2000000000000002
    endloop
  endfacet
  facet normal 0.7071067815158198 0.7071067808572753 0
    outer loop
      vertex -1.3999999985098839 -13.458578638732433 0
      vertex -1.3999999985098839 -13.458578638732433 1.2000000000000002
      vertex 6.600000001490116 -21.458578646183014 1.2000000000000002
    endloop
  endfacet
  facet normal 0 0 1
    outer loop
      vertex -6.600000001490116 -18.541421353816986 1.2000000000000002
      vertex 1.458578646183014 -26.600000001490116 1.2000000000000002
      vertex -6.299999997019768 -18.417157292366028 1.2000000000000002
    endloop
  endfacet
  facet normal 0 0 1
    outer loop
      vertex 1.458578646183014 -26.600000001490116 1.2000000000000002
      vertex 1.5828427076339722 -26.299999997019768 1.2000000000000002
      vertex -6.299999997019768 -18.417157292366028 1.2000000000000002
    endloop
  endfacet
  facet normal 0 0 1
    outer loop
      vertex -1.3999999985098839 -13.458578638732433 1.2000000000000002
      vertex -1.7000000029802322 -13.582842715084553 1.2000000000000002
      vertex 6.299999997019768 -21.582842707633972 1.2000000000000002
    endloop
  endfacet
  facet normal 0 0 1
    outer loop
      vertex 1.458578646183014 -26.600000001490116 1.2000000000000002
      vertex 6.600000001490116 -26.600000001490116 1.2000000000000002
      vertex 1.5828427076339722 -26.299999997019768 1.2000000000000002
    endloop
  endfacet
  facet normal 0 0 1
    outer loop
      vertex 6.600000001490116 -26.600000001490116 1.2000000000000002
      vertex 6.299999997019768 -26.299999997019768 1.2000000000000002
      vertex 1.5828427076339722 -26.299999997019768 1.2000000000000002
    endloop
  endfacet
  facet normal 0 0 1
    outer loop
      vertex 6.600000001490116 -26.600000001490116 1.2000000000000002
      vertex 6.600000001490116 -21.458578646183014 1.2000000000000002
      vertex 6.299999997019768 -26.299999997019768 1.2000000000000002
    endloop
  endfacet
  facet normal 0 0 1
    outer loop
      vertex 6.600000001490116 -21.458578646183014 1.2000000000000002
      vertex 6.299999997019768 -21.582842707633972 1.2000000000000002
      vertex 6.299999997019768 -26.299999997019768 1.2000000000000002
    endloop
  endfacet
  facet normal 0 0 1
    outer loop
      vertex -1.3999999985098839 -13.458578638732433 1.2000000000000002
      vertex 6.299999997019768 -21.582842707633972 1.2000000000000002
      vertex 6.600000001490116 -21.458578646183014 1.2000000000000002
    endloop
  endfacet
  facet normal -1 0 0
    outer loop
      vertex -6.600000001490116 -18.541421353816986 0
      vertex -6.600000001490116 -18.541421353816986 1.2000000000000002
      vertex -6.600000001490116 18.541421353816986 1.2000000000000002
    endloop
  endfacet
  facet normal 0 0 1
    outer loop
      vertex -6.600000001490116 -18.541421353816986 1.2000000000000002
      vertex -6.299999997019768 -18.417157292366028 1.2000000000000002
      vertex -6.299999997019768 18.417157292366028 1.2000000000000002
    endloop
  endfacet
  facet normal 0 0 1
    outer loop
      vertex -1.3999999985098839 -13.458578638732433 1.2000000000000002
      vertex -1.3999999985098839 13.458578638732433 1.2000000000000002
      vertex -1.7000000029802322 -13.582842715084553 1.2000000000000002
    endloop
  endfacet
  facet normal 0 0 -1
    outer loop
      vertex -6.600000001490116 -18.541421353816986 0
      vertex -6.600000001490116 18.541421353816986 0
      vertex -1.3999999985098839 13.458578638732433 0
    endloop
  endfacet
  facet normal -1 0 0
    outer loop
      vertex -6.600000001490116 -18.541421353816986 0
      vertex -6.600000001490116 18.541421353816986 1.2000000000000002
      vertex -6.600000001490116 18.541421353816986 0
    endloop
  endfacet
  facet normal 0 0 -1
    outer loop
      vertex -6.600000001490116 18.541421353816986 0
      vertex 1.458578646183014 26.600000001490116 0
      vertex -1.3999999985098839 13.458578638732433 0
    endloop
  endfacet
  facet normal 0 0 -1
    outer loop
      vertex -1.3999999985098839 13.458578638732433 0
      vertex 1.458578646183014 26.600000001490116 0
      vertex 6.600000001490116 21.458578646183014 0
    endloop
  endfacet
  facet normal 0 0 -1
    outer loop
      vertex 1.458578646183014 26.600000001490116 0
      vertex 6.600000001490116 26.600000001490116 0
      vertex 6.600000001490116 21.458578646183014 0
    endloop
  endfacet
  facet normal -0.7071067811865475 0.7071067811865475 -2.8819330678622076e-16
    outer loop
      vertex -6.600000001490116 18.541421353816986 0
      vertex 1.458578646183014 26.600000001490116 1.2000000000000002
      vertex 1.458578646183014 26.600000001490116 0
    endloop
  endfacet
  facet normal 0.7071067815158198 -0.7071067808572753 0
    outer loop
      vertex -1.3999999985098839 13.458578638732433 0
      vertex 6.600000001490116 21.458578646183014 0
      vertex -1.3999999985098839 13.458578638732433 1.2000000000000002
    endloop
  endfacet
  facet normal 0 1 0
    outer loop
      vertex 1.458578646183014 26.600000001490116 0
      vertex 6.600000001490116 26.600000001490116 1.2000000000000002
      vertex 6.600000001490116 26.600000001490116 0
    endloop
  endfacet
  facet normal 1 0 0
    outer loop
      vertex 6.600000001490116 21.458578646183014 0
      vertex 6.600000001490116 26.600000001490116 0
      vertex 6.600000001490116 21.458578646183014 1.2000000000000002
    endloop
  endfacet
  facet normal 1 0 0
    outer loop
      vertex -1.3999999985098839 -13.458578638732433 1.2000000000000002
      vertex -1.3999999985098839 13.458578638732433 0
      vertex -1.3999999985098839 13.458578638732433 1.2000000000000002
    endloop
  endfacet
  facet normal 0 0 1
    outer loop
      vertex -6.600000001490116 -18.541421353816986 1.2000000000000002
      vertex -6.299999997019768 18.417157292366028 1.2000000000000002
      vertex -6.600000001490116 18.541421353816986 1.2000000000000002
    endloop
  endfacet
  facet normal 0 0 1
    outer loop
      vertex -1.3999999985098839 13.458578638732433 1.2000000000000002
      vertex -1.7000000029802322 13.582842715084553 1.2000000000000002
      vertex -1.7000000029802322 -13.582842715084553 1.2000000000000002
    endloop
  endfacet
  facet normal -0.7071067811865475 0.7071067811865475 0
    outer loop
      vertex -6.600000001490116 18.541421353816986 0
      vertex -6.600000001490116 18.541421353816986 1.2000000000000002
      vertex 1.458578646183014 26.600000001490116 1.2000000000000002
    endloop
  endfacet
  facet normal 0.7071067815158198 -0.7071067808572753 0
    outer loop
      vertex -1.3999999985098839 13.458578638732433 1.2000000000000002
      vertex 6.600000001490116 21.458578646183014 0
      vertex 6.600000001490116 21.458578646183014 1.2000000000000002
    endloop
  endfacet
  facet normal 0 1 0
    outer loop
      vertex 1.458578646183014 26.600000001490116 0
      vertex 1.458578646183014 26.600000001490116 1.2000000000000002
      vertex 6.600000001490116 26.600000001490116 1.2000000000000002
    endloop
  endfacet
  facet normal 1 0 0
    outer loop
      vertex 6.600000001490116 26.600000001490116 0
      vertex 6.600000001490116 26.600000001490116 1.2000000000000002
      vertex 6.600000001490116 21.458578646183014 1.2000000000000002
    endloop
  endfacet
  facet normal 0 0 1
    outer loop
      vertex -1.3999999985098839 13.458578638732433 1.2000000000000002
      vertex 6.600000001490116 21.458578646183014 1.2000000000000002
      vertex -1.7000000029802322 13.582842715084553 1.2000000000000002
    endloop
  endfacet
  facet normal 0 0 1
    outer loop
      vertex -6.600000001490116 18.541421353816986 1.2000000000000002
      vertex -6.299999997019768 18.417157292366028 1.2000000000000002
      vertex 1.5828427076339722 26.299999997019768 1.2000000000000002
    endloop
  endfacet
  facet normal 0 0 1
    outer loop
      vertex -6.600000001490116 18.541421353816986 1.2000000000000002
      vertex 1.5828427076339722 26.299999997019768 1.2000000000000002
      vertex 1.458578646183014 26.600000001490116 1.2000000000000002
    endloop
  endfacet
  facet normal 0 0 1
    outer loop
      vertex 6.600000001490116 21.458578646183014 1.2000000000000002
      vertex 6.299999997019768 21.582842707633972 1.2000000000000002
      vertex -1.7000000029802322 13.582842715084553 1.2000000000000002
    endloop
  endfacet
  facet normal 0 0 1
    outer loop
      vertex 1.458578646183014 26.600000001490116 1.2000000000000002
      vertex 1.5828427076339722 26.299999997019768 1.2000000000000002
      vertex 6.299999997019768 26.299999997019768 1.2000000000000002
    endloop
  endfacet
  facet normal 0 0 1
    outer loop
      vertex 1.458578646183014 26.600000001490116 1.2000000000000002
      vertex 6.299999997019768 26.299999997019768 1.2000000000000002
      vertex 6.600000001490116 26.600000001490116 1.2000000000000002
    endloop
  endfacet
  facet normal 0 0 1
    outer loop
      vertex 6.600000001490116 21.458578646183014 1.2000000000000002
      vertex 6.600000001490116 26.600000001490116 1.2000000000000002
      vertex 6.299999997019768 21.582842707633972 1.2000000000000002
    endloop
  endfacet
  facet normal 0 0 1
    outer loop
      vertex 6.600000001490116 26.600000001490116 1.2000000000000002
      vertex 6.299999997019768 26.299999997019768 1.2000000000000002
      vertex 6.299999997019768 21.582842707633972 1.2000000000000002
    endloop
  endfacet
  facet normal -0.7071067811865475 -0.7071067811865475 0
    outer loop
      vertex -6.299999997019768 -18.417157292366028 1.6
      vertex -6.299999997019768 -18.417157292366028 1.2000000000000002
      vertex 1.5828427076339722 -26.299999997019768 1.2000000000000002
    endloop
  endfacet
  facet normal -0.7071067811865475 -0.7071067811865475 3.485623024133779e-16
    outer loop
      vertex -6.299999997019768 -18.417157292366028 1.6
      vertex 1.5828427076339722 -26.299999997019768 1.2000000000000002
      vertex 1.5828427076339722 -26.299999997019768 1.6
    endloop
  endfacet
  facet normal 0 0 1
    outer loop
      vertex -6.299999997019768 -18.417157292366028 1.6
      vertex 1.5828427076339722 -26.299999997019768 1.6
      vertex 6.299999997019768 -21.582842707633972 1.6
    endloop
  endfacet
  facet normal 0 0 1
    outer loop
      vertex -6.299999997019768 -18.417157292366028 1.6
      vertex 6.299999997019768 -21.582842707633972 1.6
      vertex -1.7000000029802322 -13.582842715084553 1.6
    endloop
  endfacet
  facet normal 0.7071067808572752 0.7071067815158196 0
    outer loop
      vertex -1.7000000029802322 -13.582842715084553 1.6
      vertex 6.299999997019768 -21.582842707633972 1.6
      vertex -1.7000000029802322 -13.582842715084553 1.2000000000000002
    endloop
  endfacet
  facet normal 0 -1 0
    outer loop
      vertex 1.5828427076339722 -26.299999997019768 1.6
      vertex 1.5828427076339722 -26.299999997019768 1.2000000000000002
      vertex 6.299999997019768 -26.299999997019768 1.2000000000000002
    endloop
  endfacet
  facet normal 1 0 0
    outer loop
      vertex 6.299999997019768 -26.299999997019768 1.6
      vertex 6.299999997019768 -26.299999997019768 1.2000000000000002
      vertex 6.299999997019768 -21.582842707633972 1.2000000000000002
    endloop
  endfacet
  facet normal 0 -1 0
    outer loop
      vertex 1.5828427076339722 -26.299999997019768 1.6
      vertex 6.299999997019768 -26.299999997019768 1.2000000000000002
      vertex 6.299999997019768 -26.299999997019768 1.6
    endloop
  endfacet
  facet normal 0 0 1
    outer loop
      vertex 1.5828427076339722 -26.299999997019768 1.6
      vertex 6.299999997019768 -26.299999997019768 1.6
      vertex 6.299999997019768 -21.582842707633972 1.6
    endloop
  endfacet
  facet normal 1 0 0
    outer loop
      vertex 6.299999997019768 -26.299999997019768 1.6
      vertex 6.299999997019768 -21.582842707633972 1.2000000000000002
      vertex 6.299999997019768 -21.582842707633972 1.6
    endloop
  endfacet
  facet normal 0.7071067808572752 0.7071067815158196 0
    outer loop
      vertex 6.299999997019768 -21.582842707633972 1.6
      vertex 6.299999997019768 -21.582842707633972 1.2000000000000002
      vertex -1.7000000029802322 -13.582842715084553 1.2000000000000002
    endloop
  endfacet
  facet normal 1 0 0
    outer loop
      vertex -1.7000000029802322 -13.582842715084553 1.6
      vertex -1.7000000029802322 -13.582842715084553 1.2000000000000002
      vertex -1.7000000029802322 13.582842715084553 1.2000000000000002
    endloop
  endfacet
  facet normal -1 0 0
    outer loop
      vertex -6.299999997019768 -18.417157292366028 1.6
      vertex -6.299999997019768 18.417157292366028 1.6
      vertex -6.299999997019768 -18.417157292366028 1.2000000000000002
    endloop
  endfacet
  facet normal 0 0 1
    outer loop
      vertex -6.299999997019768 -18.417157292366028 1.6
      vertex -1.7000000029802322 -13.582842715084553 1.6
      vertex -1.7000000029802322 13.582842715084553 1.6
    endloop
  endfacet
  facet normal -1 0 0
    outer loop
      vertex -6.299999997019768 18.417157292366028 1.6
      vertex -6.299999997019768 18.417157292366028 1.2000000000000002
      vertex -6.299999997019768 -18.417157292366028 1.2000000000000002
    endloop
  endfacet
  facet normal 0 0 1
    outer loop
      vertex -6.299999997019768 -18.417157292366028 1.6
      vertex -1.7000000029802322 13.582842715084553 1.6
      vertex -6.299999997019768 18.417157292366028 1.6
    endloop
  endfacet
  facet normal 1 0 0
    outer loop
      vertex -1.7000000029802322 -13.582842715084553 1.6
      vertex -1.7000000029802322 13.582842715084553 1.2000000000000002
      vertex -1.7000000029802322 13.582842715084553 1.6
    endloop
  endfacet
  facet normal 0.7071067808572752 -0.7071067815158196 0
    outer loop
      vertex -1.7000000029802322 13.582842715084553 1.6
      vertex -1.7000000029802322 13.582842715084553 1.2000000000000002
      vertex 6.299999997019768 21.582842707633972 1.2000000000000002
    endloop
  endfacet
  facet normal 0 0 1
    outer loop
      vertex -6.299999997019768 18.417157292366028 1.6
      vertex -1.7000000029802322 13.582842715084553 1.6
      vertex 6.299999997019768 21.582842707633972 1.6
    endloop
  endfacet
  facet normal -0.7071067811865475 0.7071067811865475 0
    outer loop
      vertex 1.5828427076339722 26.299999997019768 1.6
      vertex 1.5828427076339722 26.299999997019768 1.2000000000000002
      vertex -6.299999997019768 18.417157292366028 1.2000000000000002
    endloop
  endfacet
  facet normal -0.7071067811865475 0.7071067811865475 0
    outer loop
      vertex -6.299999997019768 18.417157292366028 1.6
      vertex 1.5828427076339722 26.299999997019768 1.6
      vertex -6.299999997019768 18.417157292366028 1.2000000000000002
    endloop
  endfacet
  facet normal 0 0 1
    outer loop
      vertex -6.299999997019768 18.417157292366028 1.6
      vertex 6.299999997019768 21.582842707633972 1.6
      vertex 1.5828427076339722 26.299999997019768 1.6
    endloop
  endfacet
  facet normal 0.7071067808572752 -0.7071067815158196 0
    outer loop
      vertex -1.7000000029802322 13.582842715084553 1.6
      vertex 6.299999997019768 21.582842707633972 1.2000000000000002
      vertex 6.299999997019768 21.582842707633972 1.6
    endloop
  endfacet
  facet normal 0 1 0
    outer loop
      vertex 6.299999997019768 26.299999997019768 1.6
      vertex 6.299999997019768 26.299999997019768 1.2000000000000002
      vertex 1.5828427076339722 26.299999997019768 1.2000000000000002
    endloop
  endfacet
  facet normal 1 0 0
    outer loop
      vertex 6.299999997019768 21.582842707633972 1.6
      vertex 6.299999997019768 21.582842707633972 1.2000000000000002
      vertex 6.299999997019768 26.299999997019768 1.2000000000000002
    endloop
  endfacet
  facet normal 0 1 0
    outer loop
      vertex 1.5828427076339722 26.299999997019768 1.6
      vertex 6.299999997019768 26.299999997019768 1.6
      vertex 1.5828427076339722 26.299999997019768 1.2000000000000002
    endloop
  endfacet
  facet normal 0 0 1
    outer loop
      vertex 1.5828427076339722 26.299999997019768 1.6
      vertex 6.299999997019768 21.582842707633972 1.6
      vertex 6.299999997019768 26.299999997019768 1.6
    endloop
  endfacet
  facet normal 1 0 0
    outer loop
      vertex 6.299999997019768 21.582842707633972 1.6
      vertex 6.299999997019768 26.299999997019768 1.2000000000000002
      vertex 6.299999997019768 26.299999997019768 1.6
    endloop
  endfacet
  facet normal 0 0 -1
    outer loop
      vertex 11.399999998509884 -26.600000001490116 0
      vertex 11.399999998509884 -21.458578646183014 0
      vertex 16.541421353816986 -26.600000001490116 0
    endloop
  endfacet
  facet normal 0 0 -1
    outer loop
      vertex 11.399999998509884 -21.458578646183014 0
      vertex 19.399999998509884 -13.458578638732433 0
      vertex 16.541421353816986 -26.600000001490116 0
    endloop
  endfacet
  facet normal 0 0 -1
    outer loop
      vertex 16.541421353816986 -26.600000001490116 0
      vertex 19.399999998509884 -13.458578638732433 0
      vertex 24.600000001490116 -18.541421353816986 0
    endloop
  endfacet
  facet normal -1 0 0
    outer loop
      vertex 11.399999998509884 -26.600000001490116 0
      vertex 11.399999998509884 -21.458578646183014 1.2000000000000002
      vertex 11.399999998509884 -21.458578646183014 0
    endloop
  endfacet
  facet normal 0 -1 0
    outer loop
      vertex 11.399999998509884 -26.600000001490116 0
      vertex 16.541421353816986 -26.600000001490116 0
      vertex 11.399999998509884 -26.600000001490116 1.2000000000000002
    endloop
  endfacet
  facet normal -0.7071067815158198 0.7071067808572753 0
    outer loop
      vertex 11.399999998509884 -21.458578646183014 0
      vertex 19.399999998509884 -13.458578638732433 1.2000000000000002
      vertex 19.399999998509884 -13.458578638732433 0
    endloop
  endfacet
  facet normal 0.7071067811865475 -0.7071067811865475 0
    outer loop
      vertex 16.541421353816986 -26.600000001490116 0
      vertex 24.600000001490116 -18.541421353816986 0
      vertex 16.541421353816986 -26.600000001490116 1.2000000000000002
    endloop
  endfacet
  facet normal 0 0 -1
    outer loop
      vertex 19.399999998509884 -13.458578638732433 0
      vertex 24.600000001490116 18.541421353816986 0
      vertex 24.600000001490116 -18.541421353816986 0
    endloop
  endfacet
  facet normal 1 0 0
    outer loop
      vertex 24.600000001490116 -18.541421353816986 0
      vertex 24.600000001490116 18.541421353816986 0
      vertex 24.600000001490116 -18.541421353816986 1.2000000000000002
    endloop
  endfacet
  facet normal -1 0 0
    outer loop
      vertex 11.399999998509884 -26.600000001490116 0
      vertex 11.399999998509884 -26.600000001490116 1.2000000000000002
      vertex 11.399999998509884 -21.458578646183014 1.2000000000000002
    endloop
  endfacet
  facet normal 0 -1 0
    outer loop
      vertex 16.541421353816986 -26.600000001490116 0
      vertex 16.541421353816986 -26.600000001490116 1.2000000000000002
      vertex 11.399999998509884 -26.600000001490116 1.2000000000000002
    endloop
  endfacet
  facet normal -0.7071067815158198 0.7071067808572753 0
    outer loop
      vertex 11.399999998509884 -21.458578646183014 0
      vertex 11.399999998509884 -21.458578646183014 1.2000000000000002
      vertex 19.399999998509884 -13.458578638732433 1.2000000000000002
    endloop
  endfacet
  facet normal 0.7071067811865475 -0.7071067811865475 -2.8819330678622076e-16
    outer loop
      vertex 16.541421353816986 -26.600000001490116 1.2000000000000002
      vertex 24.600000001490116 -18.541421353816986 0
      vertex 24.600000001490116 -18.541421353816986 1.2000000000000002
    endloop
  endfacet
  facet normal 0 0 1
    outer loop
      vertex 11.399999998509884 -26.600000001490116 1.2000000000000002
      vertex 11.700000002980232 -26.299999997019768 1.2000000000000002
      vertex 11.700000002980232 -21.582842707633972 1.2000000000000002
    endloop
  endfacet
  facet normal 0 0 1
    outer loop
      vertex 11.399999998509884 -26.600000001490116 1.2000000000000002
      vertex 11.700000002980232 -21.582842707633972 1.2000000000000002
      vertex 11.399999998509884 -21.458578646183014 1.2000000000000002
    endloop
  endfacet
  facet normal 0 0 1
    outer loop
      vertex 11.399999998509884 -26.600000001490116 1.2000000000000002
      vertex 16.541421353816986 -26.600000001490116 1.2000000000000002
      vertex 11.700000002980232 -26.299999997019768 1.2000000000000002
    endloop
  endfacet
  facet normal 0 0 1
    outer loop
      vertex 16.541421353816986 -26.600000001490116 1.2000000000000002
      vertex 16.417157292366028 -26.299999997019768 1.2000000000000002
      vertex 11.700000002980232 -26.299999997019768 1.2000000000000002
    endloop
  endfacet
  facet normal 0 0 1
    outer loop
      vertex 11.399999998509884 -21.458578646183014 1.2000000000000002
      vertex 11.700000002980232 -21.582842707633972 1.2000000000000002
      vertex 19.700000002980232 -13.582842715084553 1.2000000000000002
    endloop
  endfacet
  facet normal 0 0 1
    outer loop
      vertex 11.399999998509884 -21.458578646183014 1.2000000000000002
      vertex 19.700000002980232 -13.582842715084553 1.2000000000000002
      vertex 19.399999998509884 -13.458578638732433 1.2000000000000002
    endloop
  endfacet
  facet normal 0 0 1
    outer loop
      vertex 16.541421353816986 -26.600000001490116 1.2000000000000002
      vertex 24.600000001490116 -18.541421353816986 1.2000000000000002
      vertex 16.417157292366028 -26.299999997019768 1.2000000000000002
    endloop
  endfacet
  facet normal 0 0 1
    outer loop
      vertex 24.600000001490116 -18.541421353816986 1.2000000000000002
      vertex 24.299999997019768 -18.417157292366028 1.2000000000000002
      vertex 16.417157292366028 -26.299999997019768 1.2000000000000002
    endloop
  endfacet
  facet normal -1 0 0
    outer loop
      vertex 19.399999998509884 -13.458578638732433 0
      vertex 19.399999998509884 -13.458578638732433 1.2000000000000002
      vertex 19.399999998509884 13.458578638732433 1.2000000000000002
    endloop
  endfacet
  facet normal 0 0 1
    outer loop
      vertex 19.399999998509884 -13.458578638732433 1.2000000000000002
      vertex 19.700000002980232 -13.582842715084553 1.2000000000000002
      vertex 19.700000002980232 13.582842715084553 1.2000000000000002
    endloop
  endfacet
  facet normal 0 0 1
    outer loop
      vertex 24.600000001490116 -18.541421353816986 1.2000000000000002
      vertex 24.600000001490116 18.541421353816986 1.2000000000000002
      vertex 24.299999997019768 -18.417157292366028 1.2000000000000002
    endloop
  endfacet
  facet normal 0 0 -1
    outer loop
      vertex 19.399999998509884 -13.458578638732433 0
      vertex 19.399999998509884 13.458578638732433 0
      vertex 24.600000001490116 18.541421353816986 0
    endloop
  endfacet
  facet normal -1 0 0
    outer loop
      vertex 19.399999998509884 -13.458578638732433 0
      vertex 19.399999998509884 13.458578638732433 1.2000000000000002
      vertex 19.399999998509884 13.458578638732433 0
    endloop
  endfacet
  facet normal 0 0 -1
    outer loop
      vertex 11.399999998509884 21.458578646183014 0
      vertex 16.541421353816986 26.600000001490116 0
      vertex 19.399999998509884 13.458578638732433 0
    endloop
  endfacet
  facet normal 0 0 -1
    outer loop
      vertex 11.399999998509884 21.458578646183014 0
      vertex 11.399999998509884 26.600000001490116 0
      vertex 16.541421353816986 26.600000001490116 0
    endloop
  endfacet
  facet normal 0 0 -1
    outer loop
      vertex 16.541421353816986 26.600000001490116 0
      vertex 24.600000001490116 18.541421353816986 0
      vertex 19.399999998509884 13.458578638732433 0
    endloop
  endfacet
  facet normal -0.7071067815158198 -0.7071067808572753 0
    outer loop
      vertex 11.399999998509884 21.458578646183014 0
      vertex 19.399999998509884 13.458578638732433 0
      vertex 11.399999998509884 21.458578646183014 1.2000000000000002
    endloop
  endfacet
  facet normal -1 0 0
    outer loop
      vertex 11.399999998509884 21.458578646183014 0
      vertex 11.399999998509884 26.600000001490116 1.2000000000000002
      vertex 11.399999998509884 26.600000001490116 0
    endloop
  endfacet
  facet normal 0 1 0
    outer loop
      vertex 11.399999998509884 26.600000001490116 0
      vertex 16.541421353816986 26.600000001490116 1.2000000000000002
      vertex 16.541421353816986 26.600000001490116 0
    endloop
  endfacet
  facet normal 0.7071067811865475 0.7071067811865475 2.8819330678622076e-16
    outer loop
      vertex 16.541421353816986 26.600000001490116 0
      vertex 24.600000001490116 18.541421353816986 1.2000000000000002
      vertex 24.600000001490116 18.541421353816986 0
    endloop
  endfacet
  facet normal 1 0 0
    outer loop
      vertex 24.600000001490116 -18.541421353816986 1.2000000000000002
      vertex 24.600000001490116 18.541421353816986 0
      vertex 24.600000001490116 18.541421353816986 1.2000000000000002
    endloop
  endfacet
  facet normal 0 0 1
    outer loop
      vertex 19.399999998509884 -13.458578638732433 1.2000000000000002
      vertex 19.700000002980232 13.582842715084553 1.2000000000000002
      vertex 19.399999998509884 13.458578638732433 1.2000000000000002
    endloop
  endfacet
  facet normal 0 0 1
    outer loop
      vertex 24.600000001490116 18.541421353816986 1.2000000000000002
      vertex 24.299999997019768 18.417157292366028 1.2000000000000002
      vertex 24.299999997019768 -18.417157292366028 1.2000000000000002
    endloop
  endfacet
  facet normal -0.7071067815158198 -0.7071067808572753 0
    outer loop
      vertex 11.399999998509884 21.458578646183014 1.2000000000000002
      vertex 19.399999998509884 13.458578638732433 0
      vertex 19.399999998509884 13.458578638732433 1.2000000000000002
    endloop
  endfacet
  facet normal -1 0 0
    outer loop
      vertex 11.399999998509884 21.458578646183014 0
      vertex 11.399999998509884 21.458578646183014 1.2000000000000002
      vertex 11.399999998509884 26.600000001490116 1.2000000000000002
    endloop
  endfacet
  facet normal 0 1 0
    outer loop
      vertex 11.399999998509884 26.600000001490116 0
      vertex 11.399999998509884 26.600000001490116 1.2000000000000002
      vertex 16.541421353816986 26.600000001490116 1.2000000000000002
    endloop
  endfacet
  facet normal 0.7071067811865475 0.7071067811865475 0
    outer loop
      vertex 16.541421353816986 26.600000001490116 0
      vertex 16.541421353816986 26.600000001490116 1.2000000000000002
      vertex 24.600000001490116 18.541421353816986 1.2000000000000002
    endloop
  endfacet
  facet normal 0 0 1
    outer loop
      vertex 11.399999998509884 21.458578646183014 1.2000000000000002
      vertex 19.399999998509884 13.458578638732433 1.2000000000000002
      vertex 11.700000002980232 21.582842707633972 1.2000000000000002
    endloop
  endfacet
  facet normal 0 0 1
    outer loop
      vertex 11.399999998509884 21.458578646183014 1.2000000000000002
      vertex 11.700000002980232 21.582842707633972 1.2000000000000002
      vertex 11.700000002980232 26.299999997019768 1.2000000000000002
    endloop
  endfacet
  facet normal 0 0 1
    outer loop
      vertex 11.399999998509884 21.458578646183014 1.2000000000000002
      vertex 11.700000002980232 26.299999997019768 1.2000000000000002
      vertex 11.399999998509884 26.600000001490116 1.2000000000000002
    endloop
  endfacet
  facet normal 0 0 1
    outer loop
      vertex 11.399999998509884 26.600000001490116 1.2000000000000002
      vertex 11.700000002980232 26.299999997019768 1.2000000000000002
      vertex 16.417157292366028 26.299999997019768 1.2000000000000002
    endloop
  endfacet
  facet normal 0 0 1
    outer loop
      vertex 11.399999998509884 26.600000001490116 1.2000000000000002
      vertex 16.417157292366028 26.299999997019768 1.2000000000000002
      vertex 16.541421353816986 26.600000001490116 1.2000000000000002
    endloop
  endfacet
  facet normal 0 0 1
    outer loop
      vertex 19.399999998509884 13.458578638732433 1.2000000000000002
      vertex 19.700000002980232 13.582842715084553 1.2000000000000002
      vertex 11.700000002980232 21.582842707633972 1.2000000000000002
    endloop
  endfacet
  facet normal 0 0 1
    outer loop
      vertex 16.541421353816986 26.600000001490116 1.2000000000000002
      vertex 16.417157292366028 26.299999997019768 1.2000000000000002
      vertex 24.299999997019768 18.417157292366028 1.2000000000000002
    endloop
  endfacet
  facet normal 0 0 1
    outer loop
      vertex 16.541421353816986 26.600000001490116 1.2000000000000002
      vertex 24.299999997019768 18.417157292366028 1.2000000000000002
      vertex 24.600000001490116 18.541421353816986 1.2000000000000002
    endloop
  endfacet
  facet normal -1 0 0
    outer loop
      vertex 11.700000002980232 -21.582842707633972 1.6
      vertex 11.700000002980232 -21.582842707633972 1.2000000000000002
      vertex 11.700000002980232 -26.299999997019768 1.2000000000000002
    endloop
  endfacet
  facet normal 0 -1 0
    outer loop
      vertex 11.700000002980232 -26.299999997019768 1.6
      vertex 11.700000002980232 -26.299999997019768 1.2000000000000002
      vertex 16.417157292366028 -26.299999997019768 1.2000000000000002
    endloop
  endfacet
  facet normal -1 0 0
    outer loop
      vertex 11.700000002980232 -26.299999997019768 1.6
      vertex 11.700000002980232 -21.582842707633972 1.6
      vertex 11.700000002980232 -26.299999997019768 1.2000000000000002
    endloop
  endfacet
  facet normal 0 -1 0
    outer loop
      vertex 11.700000002980232 -26.299999997019768 1.6
      vertex 16.417157292366028 -26.299999997019768 1.2000000000000002
      vertex 16.417157292366028 -26.299999997019768 1.6
    endloop
  endfacet
  facet normal 0 0 1
    outer loop
      vertex 11.700000002980232 -26.299999997019768 1.6
      vertex 16.417157292366028 -26.299999997019768 1.6
      vertex 11.700000002980232 -21.582842707633972 1.6
    endloop
  endfacet
  facet normal -0.7071067808572752 0.7071067815158196 0
    outer loop
      vertex 11.700000002980232 -21.582842707633972 1.6
      vertex 19.700000002980232 -13.582842715084553 1.6
      vertex 11.700000002980232 -21.582842707633972 1.2000000000000002
    endloop
  endfacet
  facet normal 0.7071067811865475 -0.7071067811865475 0
    outer loop
      vertex 16.417157292366028 -26.299999997019768 1.6
      vertex 16.417157292366028 -26.299999997019768 1.2000000000000002
      vertex 24.299999997019768 -18.417157292366028 1.2000000000000002
    endloop
  endfacet
  facet normal 0 0 1
    outer loop
      vertex 11.700000002980232 -21.582842707633972 1.6
      vertex 16.417157292366028 -26.299999997019768 1.6
      vertex 24.299999997019768 -18.417157292366028 1.6
    endloop
  endfacet
  facet normal 0.7071067811865475 -0.7071067811865475 -3.485623024133779e-16
    outer loop
      vertex 16.417157292366028 -26.299999997019768 1.6
      vertex 24.299999997019768 -18.417157292366028 1.2000000000000002
      vertex 24.299999997019768 -18.417157292366028 1.6
    endloop
  endfacet
  facet normal -0.7071067808572752 0.7071067815158196 0
    outer loop
      vertex 19.700000002980232 -13.582842715084553 1.6
      vertex 19.700000002980232 -13.582842715084553 1.2000000000000002
      vertex 11.700000002980232 -21.582842707633972 1.2000000000000002
    endloop
  endfacet
  facet normal 0 0 1
    outer loop
      vertex 11.700000002980232 -21.582842707633972 1.6
      vertex 24.299999997019768 -18.417157292366028 1.6
      vertex 19.700000002980232 -13.582842715084553 1.6
    endloop
  endfacet
  facet normal 1 0 0
    outer loop
      vertex 24.299999997019768 -18.417157292366028 1.6
      vertex 24.299999997019768 -18.417157292366028 1.2000000000000002
      vertex 24.299999997019768 18.417157292366028 1.2000000000000002
    endloop
  endfacet
  facet normal -1 0 0
    outer loop
      vertex 19.700000002980232 -13.582842715084553 1.6
      vertex 19.700000002980232 13.582842715084553 1.6
      vertex 19.700000002980232 -13.582842715084553 1.2000000000000002
    endloop
  endfacet
  facet normal 0 0 1
    outer loop
      vertex 19.700000002980232 -13.582842715084553 1.6
      vertex 24.299999997019768 -18.417157292366028 1.6
      vertex 24.299999997019768 18.417157292366028 1.6
    endloop
  endfacet
  facet normal -1 0 0
    outer loop
      vertex 19.700000002980232 13.582842715084553 1.6
      vertex 19.700000002980232 13.582842715084553 1.2000000000000002
      vertex 19.700000002980232 -13.582842715084553 1.2000000000000002
    endloop
  endfacet
  facet normal 1 0 0
    outer loop
      vertex 24.299999997019768 -18.417157292366028 1.6
      vertex 24.299999997019768 18.417157292366028 1.2000000000000002
      vertex 24.299999997019768 18.417157292366028 1.6
    endloop
  endfacet
  facet normal 0 0 1
    outer loop
      vertex 19.700000002980232 -13.582842715084553 1.6
      vertex 24.299999997019768 18.417157292366028 1.6
      vertex 19.700000002980232 13.582842715084553 1.6
    endloop
  endfacet
  facet normal -0.7071067808572752 -0.7071067815158196 0
    outer loop
      vertex 11.700000002980232 21.582842707633972 1.6
      vertex 11.700000002980232 21.582842707633972 1.2000000000000002
      vertex 19.700000002980232 13.582842715084553 1.2000000000000002
    endloop
  endfacet
  facet normal -1 0 0
    outer loop
      vertex 11.700000002980232 26.299999997019768 1.6
      vertex 11.700000002980232 26.299999997019768 1.2000000000000002
      vertex 11.700000002980232 21.582842707633972 1.2000000000000002
    endloop
  endfacet
  facet normal 0 1 0
    outer loop
      vertex 16.417157292366028 26.299999997019768 1.6
      vertex 16.417157292366028 26.299999997019768 1.2000000000000002
      vertex 11.700000002980232 26.299999997019768 1.2000000000000002
    endloop
  endfacet
  facet normal -1 0 0
    outer loop
      vertex 11.700000002980232 21.582842707633972 1.6
      vertex 11.700000002980232 26.299999997019768 1.6
      vertex 11.700000002980232 21.582842707633972 1.2000000000000002
    endloop
  endfacet
  facet normal 0 1 0
    outer loop
      vertex 11.700000002980232 26.299999997019768 1.6
      vertex 16.417157292366028 26.299999997019768 1.6
      vertex 11.700000002980232 26.299999997019768 1.2000000000000002
    endloop
  endfacet
  facet normal 0 0 1
    outer loop
      vertex 11.700000002980232 21.582842707633972 1.6
      vertex 16.417157292366028 26.299999997019768 1.6
      vertex 11.700000002980232 26.299999997019768 1.6
    endloop
  endfacet
  facet normal -0.7071067808572752 -0.7071067815158196 0
    outer loop
      vertex 11.700000002980232 21.582842707633972 1.6
      vertex 19.700000002980232 13.582842715084553 1.2000000000000002
      vertex 19.700000002980232 13.582842715084553 1.6
    endloop
  endfacet
  facet normal 0 0 1
    outer loop
      vertex 11.700000002980232 21.582842707633972 1.6
      vertex 19.700000002980232 13.582842715084553 1.6
      vertex 24.299999997019768 18.417157292366028 1.6
    endloop
  endfacet
  facet normal 0.7071067811865475 0.7071067811865475 0
    outer loop
      vertex 24.299999997019768 18.417157292366028 1.6
      vertex 24.299999997019768 18.417157292366028 1.2000000000000002
      vertex 16.417157292366028 26.299999997019768 1.2000000000000002
    endloop
  endfacet
  facet normal 0 0 1
    outer loop
      vertex 11.700000002980232 21.582842707633972 1.6
      vertex 24.299999997019768 18.417157292366028 1.6
      vertex 16.417157292366028 26.299999997019768 1.6
    endloop
  endfacet
  facet normal 0.7071067811865475 0.7071067811865475 0
    outer loop
      vertex 16.417157292366028 26.299999997019768 1.6
      vertex 24.299999997019768 18.417157292366028 1.6
      vertex 16.417157292366028 26.299999997019768 1.2000000000000002
    endloop
  endfacet
  facet normal 0 0 -1
    outer loop
      vertex 33.958578646183014 -22.100000001490116 0
      vertex 38.100000001490116 -17.958578646183014 0
      vertex 38.100000001490116 -22.100000001490116 0
    endloop
  endfacet
  facet normal 0 0 -1
    outer loop
      vertex 29.899999998509884 -18.041421353816986 0
      vertex 34.100000001490116 -13.958578638732433 0
      vertex 33.958578646183014 -22.100000001490116 0
    endloop
  endfacet
  facet normal 0 0 -1
    outer loop
      vertex 33.958578646183014 -22.100000001490116 0
      vertex 34.100000001490116 -13.958578638732433 0
      vertex 38.100000001490116 -17.958578646183014 0
    endloop
  endfacet
  facet normal -0.7071067811865475 -0.7071067811865475 0
    outer loop
      vertex 29.899999998509884 -18.041421353816986 0
      vertex 33.958578646183014 -22.100000001490116 0
      vertex 29.899999998509884 -18.041421353816986 1.2000000000000002
    endloop
  endfacet
  facet normal 0 -1 0
    outer loop
      vertex 33.958578646183014 -22.100000001490116 0
      vertex 38.100000001490116 -22.100000001490116 0
      vertex 33.958578646183014 -22.100000001490116 1.2000000000000002
    endloop
  endfacet
  facet normal 1 0 0
    outer loop
      vertex 38.100000001490116 -22.100000001490116 0
      vertex 38.100000001490116 -17.958578646183014 0
      vertex 38.100000001490116 -22.100000001490116 1.2000000000000002
    endloop
  endfacet
  facet normal 0.7071067818450921 0.707106780528003 0
    outer loop
      vertex 34.100000001490116 -13.958578638732433 0
      vertex 38.100000001490116 -17.958578646183014 1.2000000000000002
      vertex 38.100000001490116 -17.958578646183014 0
    endloop
  endfacet
  facet normal 0 0 -1
    outer loop
      vertex 29.899999998509884 -18.041421353816986 0
      vertex 34.100000001490116 13.958578638732433 0
      vertex 34.100000001490116 -13.958578638732433 0
    endloop
  endfacet
  facet normal 1 0 0
    outer loop
      vertex 34.100000001490116 -13.958578638732433 0
      vertex 34.100000001490116 13.958578638732433 0
      vertex 34.100000001490116 -13.958578638732433 1.2000000000000002
    endloop
  endfacet
  facet normal -0.7071067811865475 -0.7071067811865475 0
    outer loop
      vertex 33.958578646183014 -22.100000001490116 0
      vertex 33.958578646183014 -22.100000001490116 1.2000000000000002
      vertex 29.899999998509884 -18.041421353816986 1.2000000000000002
    endloop
  endfacet
  facet normal 0 -1 0
    outer loop
      vertex 33.958578646183014 -22.100000001490116 1.2000000000000002
      vertex 38.100000001490116 -22.100000001490116 0
      vertex 38.100000001490116 -22.100000001490116 1.2000000000000002
    endloop
  endfacet
  facet normal 0.7071067818450921 0.707106780528003 0
    outer loop
      vertex 34.100000001490116 -13.958578638732433 0
      vertex 34.100000001490116 -13.958578638732433 1.2000000000000002
      vertex 38.100000001490116 -17.958578646183014 1.2000000000000002
    endloop
  endfacet
  facet normal 1 0 0
    outer loop
      vertex 38.100000001490116 -17.958578646183014 0
      vertex 38.100000001490116 -17.958578646183014 1.2000000000000002
      vertex 38.100000001490116 -22.100000001490116 1.2000000000000002
    endloop
  endfacet
  facet normal 0 0 1
    outer loop
      vertex 29.899999998509884 -18.041421353816986 1.2000000000000002
      vertex 33.958578646183014 -22.100000001490116 1.2000000000000002
      vertex 30.200000002980232 -17.917157292366028 1.2000000000000002
    endloop
  endfacet
  facet normal 0 0 1
    outer loop
      vertex 33.958578646183014 -22.100000001490116 1.2000000000000002
      vertex 34.08284270763397 -21.799999997019768 1.2000000000000002
      vertex 30.200000002980232 -17.917157292366028 1.2000000000000002
    endloop
  endfacet
  facet normal 0 0 1
    outer loop
      vertex 33.958578646183014 -22.100000001490116 1.2000000000000002
      vertex 38.100000001490116 -22.100000001490116 1.2000000000000002
      vertex 34.08284270763397 -21.799999997019768 1.2000000000000002
    endloop
  endfacet
  facet normal 0 0 1
    outer loop
      vertex 38.100000001490116 -22.100000001490116 1.2000000000000002
      vertex 37.79999999701977 -21.799999997019768 1.2000000000000002
      vertex 34.08284270763397 -21.799999997019768 1.2000000000000002
    endloop
  endfacet
  facet normal 0 0 1
    outer loop
      vertex 38.100000001490116 -22.100000001490116 1.2000000000000002
      vertex 38.100000001490116 -17.958578646183014 1.2000000000000002
      vertex 37.79999999701977 -21.799999997019768 1.2000000000000002
    endloop
  endfacet
  facet normal 0 0 1
    outer loop
      vertex 34.100000001490116 -13.958578638732433 1.2000000000000002
      vertex 33.79999999701977 -14.082842715084553 1.2000000000000002
      vertex 37.79999999701977 -18.082842707633972 1.2000000000000002
    endloop
  endfacet
  facet normal 0 0 1
    outer loop
      vertex 38.100000001490116 -17.958578646183014 1.2000000000000002
      vertex 37.79999999701977 -18.082842707633972 1.2000000000000002
      vertex 37.79999999701977 -21.799999997019768 1.2000000000000002
    endloop
  endfacet
  facet normal 0 0 1
    outer loop
      vertex 34.100000001490116 -13.958578638732433 1.2000000000000002
      vertex 37.79999999701977 -18.082842707633972 1.2000000000000002
      vertex 38.100000001490116 -17.958578646183014 1.2000000000000002
    endloop
  endfacet
  facet normal -1 0 0
    outer loop
      vertex 29.899999998509884 -18.041421353816986 0
      vertex 29.899999998509884 -18.041421353816986 1.2000000000000002
      vertex 29.899999998509884 18.041421353816986 1.2000000000000002
    endloop
  endfacet
  facet normal 0 0 1
    outer loop
      vertex 29.899999998509884 -18.041421353816986 1.2000000000000002
      vertex 30.200000002980232 -17.917157292366028 1.2000000000000002
      vertex 30.200000002980232 17.917157292366028 1.2000000000000002
    endloop
  endfacet
  facet normal 0 0 1
    outer loop
      vertex 34.100000001490116 -13.958578638732433 1.2000000000000002
      vertex 34.100000001490116 13.958578638732433 1.2000000000000002
      vertex 33.79999999701977 -14.082842715084553 1.2000000000000002
    endloop
  endfacet
  facet normal 0 0 -1
    outer loop
      vertex 29.899999998509884 -18.041421353816986 0
      vertex 29.899999998509884 18.041421353816986 0
      vertex 34.100000001490116 13.958578638732433 0
    endloop
  endfacet
  facet normal -1 0 0
    outer loop
      vertex 29.899999998509884 -18.041421353816986 0
      vertex 29.899999998509884 18.041421353816986 1.2000000000000002
      vertex 29.899999998509884 18.041421353816986 0
    endloop
  endfacet
  facet normal 0 0 -1
    outer loop
      vertex 29.899999998509884 18.041421353816986 0
      vertex 33.958578646183014 22.100000001490116 0
      vertex 34.100000001490116 13.958578638732433 0
    endloop
  endfacet
  facet normal 0 0 -1
    outer loop
      vertex 33.958578646183014 22.100000001490116 0
      vertex 38.100000001490116 17.958578646183014 0
      vertex 34.100000001490116 13.958578638732433 0
    endloop
  endfacet
  facet normal 0 0 -1
    outer loop
      vertex 33.958578646183014 22.100000001490116 0
      vertex 38.100000001490116 22.100000001490116 0
      vertex 38.100000001490116 17.958578646183014 0
    endloop
  endfacet
  facet normal 0.7071067818450921 -0.707106780528003 0
    outer loop
      vertex 34.100000001490116 13.958578638732433 0
      vertex 38.100000001490116 17.958578646183014 0
      vertex 34.100000001490116 13.958578638732433 1.2000000000000002
    endloop
  endfacet
  facet normal 1 0 0
    outer loop
      vertex 38.100000001490116 17.958578646183014 0
      vertex 38.100000001490116 22.100000001490116 0
      vertex 38.100000001490116 17.958578646183014 1.2000000000000002
    endloop
  endfacet
  facet normal -0.7071067811865475 0.7071067811865475 -5.641674999267496e-17
    outer loop
      vertex 29.899999998509884 18.041421353816986 0
      vertex 33.958578646183014 22.100000001490116 1.2000000000000002
      vertex 33.958578646183014 22.100000001490116 0
    endloop
  endfacet
  facet normal 0 1 0
    outer loop
      vertex 33.958578646183014 22.100000001490116 0
      vertex 38.100000001490116 22.100000001490116 1.2000000000000002
      vertex 38.100000001490116 22.100000001490116 0
    endloop
  endfacet
  facet normal 1 0 0
    outer loop
      vertex 34.100000001490116 -13.958578638732433 1.2000000000000002
      vertex 34.100000001490116 13.958578638732433 0
      vertex 34.100000001490116 13.958578638732433 1.2000000000000002
    endloop
  endfacet
  facet normal 0 0 1
    outer loop
      vertex 29.899999998509884 -18.041421353816986 1.2000000000000002
      vertex 30.200000002980232 17.917157292366028 1.2000000000000002
      vertex 29.899999998509884 18.041421353816986 1.2000000000000002
    endloop
  endfacet
  facet normal 0 0 1
    outer loop
      vertex 34.100000001490116 13.958578638732433 1.2000000000000002
      vertex 33.79999999701977 14.082842715084553 1.2000000000000002
      vertex 33.79999999701977 -14.082842715084553 1.2000000000000002
    endloop
  endfacet
  facet normal -0.7071067811865475 0.7071067811865475 0
    outer loop
      vertex 29.899999998509884 18.041421353816986 0
      vertex 29.899999998509884 18.041421353816986 1.2000000000000002
      vertex 33.958578646183014 22.100000001490116 1.2000000000000002
    endloop
  endfacet
  facet normal 0.7071067818450921 -0.707106780528003 0
    outer loop
      vertex 38.100000001490116 17.958578646183014 0
      vertex 38.100000001490116 17.958578646183014 1.2000000000000002
      vertex 34.100000001490116 13.958578638732433 1.2000000000000002
    endloop
  endfacet
  facet normal 0 1 0
    outer loop
      vertex 33.958578646183014 22.100000001490116 0
      vertex 33.958578646183014 22.100000001490116 1.2000000000000002
      vertex 38.100000001490116 22.100000001490116 1.2000000000000002
    endloop
  endfacet
  facet normal 1 0 0
    outer loop
      vertex 38.100000001490116 22.100000001490116 0
      vertex 38.100000001490116 22.100000001490116 1.2000000000000002
      vertex 38.100000001490116 17.958578646183014 1.2000000000000002
    endloop
  endfacet
  facet normal 0 0 1
    outer loop
      vertex 29.899999998509884 18.041421353816986 1.2000000000000002
      vertex 30.200000002980232 17.917157292366028 1.2000000000000002
      vertex 34.08284270763397 21.799999997019768 1.2000000000000002
    endloop
  endfacet
  facet normal 0 0 1
    outer loop
      vertex 34.100000001490116 13.958578638732433 1.2000000000000002
      vertex 38.100000001490116 17.958578646183014 1.2000000000000002
      vertex 33.79999999701977 14.082842715084553 1.2000000000000002
    endloop
  endfacet
  facet normal 0 0 1
    outer loop
      vertex 38.100000001490116 17.958578646183014 1.2000000000000002
      vertex 37.79999999701977 18.082842707633972 1.2000000000000002
      vertex 33.79999999701977 14.082842715084553 1.2000000000000002
    endloop
  endfacet
  facet normal 0 0 1
    outer loop
      vertex 38.100000001490116 17.958578646183014 1.2000000000000002
      vertex 38.100000001490116 22.100000001490116 1.2000000000000002
      vertex 37.79999999701977 18.082842707633972 1.2000000000000002
    endloop
  endfacet
  facet normal 0 0 1
    outer loop
      vertex 29.899999998509884 18.041421353816986 1.2000000000000002
      vertex 34.08284270763397 21.799999997019768 1.2000000000000002
      vertex 33.958578646183014 22.100000001490116 1.2000000000000002
    endloop
  endfacet
  facet normal 0 0 1
    outer loop
      vertex 33.958578646183014 22.100000001490116 1.2000000000000002
      vertex 34.08284270763397 21.799999997019768 1.2000000000000002
      vertex 37.79999999701977 21.799999997019768 1.2000000000000002
    endloop
  endfacet
  facet normal 0 0 1
    outer loop
      vertex 38.100000001490116 22.100000001490116 1.2000000000000002
      vertex 37.79999999701977 21.799999997019768 1.2000000000000002
      vertex 37.79999999701977 18.082842707633972 1.2000000000000002
    endloop
  endfacet
  facet normal 0 0 1
    outer loop
      vertex 33.958578646183014 22.100000001490116 1.2000000000000002
      vertex 37.79999999701977 21.799999997019768 1.2000000000000002
      vertex 38.100000001490116 22.100000001490116 1.2000000000000002
    endloop
  endfacet
  facet normal -0.7071067811865476 -0.7071067811865476 0
    outer loop
      vertex 30.200000002980232 -17.917157292366028 1.6
      vertex 30.200000002980232 -17.917157292366028 1.2000000000000002
      vertex 34.08284270763397 -21.799999997019768 1.2000000000000002
    endloop
  endfacet
  facet normal 0 -1 0
    outer loop
      vertex 34.08284270763397 -21.799999997019768 1.6
      vertex 34.08284270763397 -21.799999997019768 1.2000000000000002
      vertex 37.79999999701977 -21.799999997019768 1.2000000000000002
    endloop
  endfacet
  facet normal 1 0 0
    outer loop
      vertex 37.79999999701977 -21.799999997019768 1.6
      vertex 37.79999999701977 -21.799999997019768 1.2000000000000002
      vertex 37.79999999701977 -18.082842707633972 1.2000000000000002
    endloop
  endfacet
  facet normal -0.7071067811865476 -0.7071067811865476 -1.0109168579002426e-16
    outer loop
      vertex 30.200000002980232 -17.917157292366028 1.6
      vertex 34.08284270763397 -21.799999997019768 1.2000000000000002
      vertex 34.08284270763397 -21.799999997019768 1.6
    endloop
  endfacet
  facet normal 0 -1 0
    outer loop
      vertex 34.08284270763397 -21.799999997019768 1.6
      vertex 37.79999999701977 -21.799999997019768 1.2000000000000002
      vertex 37.79999999701977 -21.799999997019768 1.6
    endloop
  endfacet
  facet normal 0 0 1
    outer loop
      vertex 34.08284270763397 -21.799999997019768 1.6
      vertex 37.79999999701977 -21.799999997019768 1.6
      vertex 37.79999999701977 -18.082842707633972 1.6
    endloop
  endfacet
  facet normal 0.7071067805280029 0.707106781845092 0
    outer loop
      vertex 37.79999999701977 -18.082842707633972 1.6
      vertex 37.79999999701977 -18.082842707633972 1.2000000000000002
      vertex 33.79999999701977 -14.082842715084553 1.2000000000000002
    endloop
  endfacet
  facet normal 0 0 1
    outer loop
      vertex 30.200000002980232 -17.917157292366028 1.6
      vertex 34.08284270763397 -21.799999997019768 1.6
      vertex 37.79999999701977 -18.082842707633972 1.6
    endloop
  endfacet
  facet normal 0 0 1
    outer loop
      vertex 30.200000002980232 -17.917157292366028 1.6
      vertex 37.79999999701977 -18.082842707633972 1.6
      vertex 33.79999999701977 -14.082842715084553 1.6
    endloop
  endfacet
  facet normal 0.7071067805280029 0.707106781845092 0
    outer loop
      vertex 33.79999999701977 -14.082842715084553 1.6
      vertex 37.79999999701977 -18.082842707633972 1.6
      vertex 33.79999999701977 -14.082842715084553 1.2000000000000002
    endloop
  endfacet
  facet normal 1 0 0
    outer loop
      vertex 37.79999999701977 -21.799999997019768 1.6
      vertex 37.79999999701977 -18.082842707633972 1.2000000000000002
      vertex 37.79999999701977 -18.082842707633972 1.6
    endloop
  endfacet
  facet normal -1 0 0
    outer loop
      vertex 30.200000002980232 -17.917157292366028 1.6
      vertex 30.200000002980232 17.917157292366028 1.6
      vertex 30.200000002980232 -17.917157292366028 1.2000000000000002
    endloop
  endfacet
  facet normal 1 0 0
    outer loop
      vertex 33.79999999701977 -14.082842715084553 1.6
      vertex 33.79999999701977 -14.082842715084553 1.2000000000000002
      vertex 33.79999999701977 14.082842715084553 1.2000000000000002
    endloop
  endfacet
  facet normal 0 0 1
    outer loop
      vertex 30.200000002980232 -17.917157292366028 1.6
      vertex 33.79999999701977 -14.082842715084553 1.6
      vertex 33.79999999701977 14.082842715084553 1.6
    endloop
  endfacet
  facet normal -1 0 0
    outer loop
      vertex 30.200000002980232 17.917157292366028 1.6
      vertex 30.200000002980232 17.917157292366028 1.2000000000000002
      vertex 30.200000002980232 -17.917157292366028 1.2000000000000002
    endloop
  endfacet
  facet normal 0 0 1
    outer loop
      vertex 30.200000002980232 -17.917157292366028 1.6
      vertex 33.79999999701977 14.082842715084553 1.6
      vertex 30.200000002980232 17.917157292366028 1.6
    endloop
  endfacet
  facet normal 1 0 0
    outer loop
      vertex 33.79999999701977 -14.082842715084553 1.6
      vertex 33.79999999701977 14.082842715084553 1.2000000000000002
      vertex 33.79999999701977 14.082842715084553 1.6
    endloop
  endfacet
  facet normal -0.7071067811865476 0.7071067811865476 0
    outer loop
      vertex 30.200000002980232 17.917157292366028 1.6
      vertex 34.08284270763397 21.799999997019768 1.6
      vertex 30.200000002980232 17.917157292366028 1.2000000000000002
    endloop
  endfacet
  facet normal 0.7071067805280029 -0.707106781845092 0
    outer loop
      vertex 33.79999999701977 14.082842715084553 1.6
      vertex 33.79999999701977 14.082842715084553 1.2000000000000002
      vertex 37.79999999701977 18.082842707633972 1.2000000000000002
    endloop
  endfacet
  facet normal 1 0 0
    outer loop
      vertex 37.79999999701977 18.082842707633972 1.6
      vertex 37.79999999701977 18.082842707633972 1.2000000000000002
      vertex 37.79999999701977 21.799999997019768 1.2000000000000002
    endloop
  endfacet
  facet normal 0.7071067805280029 -0.707106781845092 0
    outer loop
      vertex 33.79999999701977 14.082842715084553 1.6
      vertex 37.79999999701977 18.082842707633972 1.2000000000000002
      vertex 37.79999999701977 18.082842707633972 1.6
    endloop
  endfacet
  facet normal 0 0 1
    outer loop
      vertex 30.200000002980232 17.917157292366028 1.6
      vertex 33.79999999701977 14.082842715084553 1.6
      vertex 37.79999999701977 18.082842707633972 1.6
    endloop
  endfacet
  facet normal 0 0 1
    outer loop
      vertex 30.200000002980232 17.917157292366028 1.6
      vertex 37.79999999701977 18.082842707633972 1.6
      vertex 34.08284270763397 21.799999997019768 1.6
    endloop
  endfacet
  facet normal -0.7071067811865476 0.7071067811865476 0
    outer loop
      vertex 34.08284270763397 21.799999997019768 1.6
      vertex 34.08284270763397 21.799999997019768 1.2000000000000002
      vertex 30.200000002980232 17.917157292366028 1.2000000000000002
    endloop
  endfacet
  facet normal 0 1 0
    outer loop
      vertex 37.79999999701977 21.799999997019768 1.6
      vertex 37.79999999701977 21.799999997019768 1.2000000000000002
      vertex 34.08284270763397 21.799999997019768 1.2000000000000002
    endloop
  endfacet
  facet normal 0 1 0
    outer loop
      vertex 34.08284270763397 21.799999997019768 1.6
      vertex 37.79999999701977 21.799999997019768 1.6
      vertex 34.08284270763397 21.799999997019768 1.2000000000000002
    endloop
  endfacet
  facet normal 1 0 0
    outer loop
      vertex 37.79999999701977 18.082842707633972 1.6
      vertex 37.79999999701977 21.799999997019768 1.2000000000000002
      vertex 37.79999999701977 21.799999997019768 1.6
    endloop
  endfacet
  facet normal 0 0 1
    outer loop
      vertex 34.08284270763397 21.799999997019768 1.6
      vertex 37.79999999701977 18.082842707633972 1.6
      vertex 37.79999999701977 21.799999997019768 1.6
    endloop
  endfacet
  facet normal 0 0 -1
    outer loop
      vertex 47.899999998509884 -22.100000001490116 0
      vertex 47.899999998509884 -17.958578646183014 0
      vertex 52.041421353816986 -22.100000001490116 0
    endloop
  endfacet
  facet normal 0 0 -1
    outer loop
      vertex 47.899999998509884 -17.958578646183014 0
      vertex 51.899999998509884 -13.958578638732433 0
      vertex 52.041421353816986 -22.100000001490116 0
    endloop
  endfacet
  facet normal 0 0 -1
    outer loop
      vertex 51.899999998509884 -13.958578638732433 0
      vertex 56.100000001490116 -18.041421353816986 0
      vertex 52.041421353816986 -22.100000001490116 0
    endloop
  endfacet
  facet normal -1 0 0
    outer loop
      vertex 47.899999998509884 -22.100000001490116 0
      vertex 47.899999998509884 -17.958578646183014 1.2000000000000002
      vertex 47.899999998509884 -17.958578646183014 0
    endloop
  endfacet
  facet normal 0 -1 0
    outer loop
      vertex 47.899999998509884 -22.100000001490116 0
      vertex 52.041421353816986 -22.100000001490116 0
      vertex 47.899999998509884 -22.100000001490116 1.2000000000000002
    endloop
  endfacet
  facet normal 0.7071067811865475 -0.7071067811865475 0
    outer loop
      vertex 52.041421353816986 -22.100000001490116 0
      vertex 56.100000001490116 -18.041421353816986 0
      vertex 52.041421353816986 -22.100000001490116 1.2000000000000002
    endloop
  endfacet
  facet normal -0.7071067818450921 0.707106780528003 0
    outer loop
      vertex 47.899999998509884 -17.958578646183014 0
      vertex 51.899999998509884 -13.958578638732433 1.2000000000000002
      vertex 51.899999998509884 -13.958578638732433 0
    endloop
  endfacet
  facet normal 0 0 -1
    outer loop
      vertex 51.899999998509884 -13.958578638732433 0
      vertex 56.100000001490116 18.041421353816986 0
      vertex 56.100000001490116 -18.041421353816986 0
    endloop
  endfacet
  facet normal 1 0 0
    outer loop
      vertex 56.100000001490116 -18.041421353816986 0
      vertex 56.100000001490116 18.041421353816986 0
      vertex 56.100000001490116 -18.041421353816986 1.2000000000000002
    endloop
  endfacet
  facet normal -1 0 0
    outer loop
      vertex 47.899999998509884 -22.100000001490116 0
      vertex 47.899999998509884 -22.100000001490116 1.2000000000000002
      vertex 47.899999998509884 -17.958578646183014 1.2000000000000002
    endloop
  endfacet
  facet normal 0 -1 0
    outer loop
      vertex 47.899999998509884 -22.100000001490116 1.2000000000000002
      vertex 52.041421353816986 -22.100000001490116 0
      vertex 52.041421353816986 -22.100000001490116 1.2000000000000002
    endloop
  endfacet
  facet normal -0.7071067818450921 0.707106780528003 0
    outer loop
      vertex 47.899999998509884 -17.958578646183014 0
      vertex 47.899999998509884 -17.958578646183014 1.2000000000000002
      vertex 51.899999998509884 -13.958578638732433 1.2000000000000002
    endloop
  endfacet
  facet normal 0.7071067811865475 -0.7071067811865475 0
    outer loop
      vertex 56.100000001490116 -18.041421353816986 0
      vertex 56.100000001490116 -18.041421353816986 1.2000000000000002
      vertex 52.041421353816986 -22.100000001490116 1.2000000000000002
    endloop
  endfacet
  facet normal 0 0 1
    outer loop
      vertex 47.899999998509884 -22.100000001490116 1.2000000000000002
      vertex 48.20000000298023 -21.799999997019768 1.2000000000000002
      vertex 48.20000000298023 -18.082842707633972 1.2000000000000002
    endloop
  endfacet
  facet normal 0 0 1
    outer loop
      vertex 47.899999998509884 -22.100000001490116 1.2000000000000002
      vertex 48.20000000298023 -18.082842707633972 1.2000000000000002
      vertex 47.899999998509884 -17.958578646183014 1.2000000000000002
    endloop
  endfacet
  facet normal 0 0 1
    outer loop
      vertex 47.899999998509884 -22.100000001490116 1.2000000000000002
      vertex 52.041421353816986 -22.100000001490116 1.2000000000000002
      vertex 48.20000000298023 -21.799999997019768 1.2000000000000002
    endloop
  endfacet
  facet normal 0 0 1
    outer loop
      vertex 52.041421353816986 -22.100000001490116 1.2000000000000002
      vertex 51.91715729236603 -21.799999997019768 1.2000000000000002
      vertex 48.20000000298023 -21.799999997019768 1.2000000000000002
    endloop
  endfacet
  facet normal 0 0 1
    outer loop
      vertex 52.041421353816986 -22.100000001490116 1.2000000000000002
      vertex 56.100000001490116 -18.041421353816986 1.2000000000000002
      vertex 51.91715729236603 -21.799999997019768 1.2000000000000002
    endloop
  endfacet
  facet normal 0 0 1
    outer loop
      vertex 47.899999998509884 -17.958578646183014 1.2000000000000002
      vertex 48.20000000298023 -18.082842707633972 1.2000000000000002
      vertex 52.20000000298023 -14.082842715084553 1.2000000000000002
    endloop
  endfacet
  facet normal 0 0 1
    outer loop
      vertex 47.899999998509884 -17.958578646183014 1.2000000000000002
      vertex 52.20000000298023 -14.082842715084553 1.2000000000000002
      vertex 51.899999998509884 -13.958578638732433 1.2000000000000002
    endloop
  endfacet
  facet normal 0 0 1
    outer loop
      vertex 56.100000001490116 -18.041421353816986 1.2000000000000002
      vertex 55.79999999701977 -17.917157292366028 1.2000000000000002
      vertex 51.91715729236603 -21.799999997019768 1.2000000000000002
    endloop
  endfacet
  facet normal -1 -2.668817789316266e-10 0
    outer loop
      vertex 51.899999998509884 -13.958578638732433 0
      vertex 51.899999998509884 -13.958578638732433 1.2000000000000002
      vertex 51.8999999910593 13.958578638732433 1.2000000000000002
    endloop
  endfacet
  facet normal 0 0 1
    outer loop
      vertex 51.899999998509884 -13.958578638732433 1.2000000000000002
      vertex 52.20000000298023 -14.082842715084553 1.2000000000000002
      vertex 52.20000000298023 14.082842715084553 1.2000000000000002
    endloop
  endfacet
  facet normal 0 0 1
    outer loop
      vertex 56.100000001490116 -18.041421353816986 1.2000000000000002
      vertex 56.100000001490116 18.041421353816986 1.2000000000000002
      vertex 55.79999999701977 -17.917157292366028 1.2000000000000002
    endloop
  endfacet
  facet normal 0 0 -1
    outer loop
      vertex 51.899999998509884 -13.958578638732433 0
      vertex 51.8999999910593 13.958578638732433 0
      vertex 56.100000001490116 18.041421353816986 0
    endloop
  endfacet
  facet normal -1 -2.668817789316266e-10 0
    outer loop
      vertex 51.899999998509884 -13.958578638732433 0
      vertex 51.8999999910593 13.958578638732433 1.2000000000000002
      vertex 51.8999999910593 13.958578638732433 0
    endloop
  endfacet
  facet normal 0 0 -1
    outer loop
      vertex 47.899999998509884 17.958578646183014 0
      vertex 52.041421353816986 22.100000001490116 0
      vertex 51.8999999910593 13.958578638732433 0
    endloop
  endfacet
  facet normal 0 0 -1
    outer loop
      vertex 51.8999999910593 13.958578638732433 0
      vertex 52.041421353816986 22.100000001490116 0
      vertex 56.100000001490116 18.041421353816986 0
    endloop
  endfacet
  facet normal 0 0 -1
    outer loop
      vertex 47.899999998509884 17.958578646183014 0
      vertex 47.899999998509884 22.100000001490116 0
      vertex 52.041421353816986 22.100000001490116 0
    endloop
  endfacet
  facet normal -1 0 0
    outer loop
      vertex 47.899999998509884 17.958578646183014 0
      vertex 47.899999998509884 22.100000001490116 1.2000000000000002
      vertex 47.899999998509884 22.100000001490116 0
    endloop
  endfacet
  facet normal -0.7071067825036366 -0.7071067798694585 0
    outer loop
      vertex 47.899999998509884 17.958578646183014 0
      vertex 51.8999999910593 13.958578638732433 0
      vertex 47.899999998509884 17.958578646183014 1.2000000000000002
    endloop
  endfacet
  facet normal 0.7071067811865475 0.7071067811865475 5.641674999267496e-17
    outer loop
      vertex 52.041421353816986 22.100000001490116 0
      vertex 56.100000001490116 18.041421353816986 1.2000000000000002
      vertex 56.100000001490116 18.041421353816986 0
    endloop
  endfacet
  facet normal 0 1 0
    outer loop
      vertex 47.899999998509884 22.100000001490116 0
      vertex 52.041421353816986 22.100000001490116 1.2000000000000002
      vertex 52.041421353816986 22.100000001490116 0
    endloop
  endfacet
  facet normal 1 0 0
    outer loop
      vertex 56.100000001490116 -18.041421353816986 1.2000000000000002
      vertex 56.100000001490116 18.041421353816986 0
      vertex 56.100000001490116 18.041421353816986 1.2000000000000002
    endloop
  endfacet
  facet normal 0 0 1
    outer loop
      vertex 51.899999998509884 -13.958578638732433 1.2000000000000002
      vertex 52.20000000298023 14.082842715084553 1.2000000000000002
      vertex 51.8999999910593 13.958578638732433 1.2000000000000002
    endloop
  endfacet
  facet normal 0 0 1
    outer loop
      vertex 56.100000001490116 18.041421353816986 1.2000000000000002
      vertex 55.79999999701977 17.917157292366028 1.2000000000000002
      vertex 55.79999999701977 -17.917157292366028 1.2000000000000002
    endloop
  endfacet
  facet normal -1 0 0
    outer loop
      vertex 47.899999998509884 17.958578646183014 0
      vertex 47.899999998509884 17.958578646183014 1.2000000000000002
      vertex 47.899999998509884 22.100000001490116 1.2000000000000002
    endloop
  endfacet
  facet normal -0.7071067825036366 -0.7071067798694585 0
    outer loop
      vertex 51.8999999910593 13.958578638732433 0
      vertex 51.8999999910593 13.958578638732433 1.2000000000000002
      vertex 47.899999998509884 17.958578646183014 1.2000000000000002
    endloop
  endfacet
  facet normal 0 1 0
    outer loop
      vertex 47.899999998509884 22.100000001490116 0
      vertex 47.899999998509884 22.100000001490116 1.2000000000000002
      vertex 52.041421353816986 22.100000001490116 1.2000000000000002
    endloop
  endfacet
  facet normal 0.7071067811865475 0.7071067811865475 0
    outer loop
      vertex 52.041421353816986 22.100000001490116 0
      vertex 52.041421353816986 22.100000001490116 1.2000000000000002
      vertex 56.100000001490116 18.041421353816986 1.2000000000000002
    endloop
  endfacet
  facet normal 0 0 1
    outer loop
      vertex 47.899999998509884 17.958578646183014 1.2000000000000002
      vertex 48.20000000298023 18.082842707633972 1.2000000000000002
      vertex 48.20000000298023 21.799999997019768 1.2000000000000002
    endloop
  endfacet
  facet normal 0 0 1
    outer loop
      vertex 47.899999998509884 17.958578646183014 1.2000000000000002
      vertex 48.20000000298023 21.799999997019768 1.2000000000000002
      vertex 47.899999998509884 22.100000001490116 1.2000000000000002
    endloop
  endfacet
  facet normal 0 0 1
    outer loop
      vertex 51.8999999910593 13.958578638732433 1.2000000000000002
      vertex 52.20000000298023 14.082842715084553 1.2000000000000002
      vertex 48.20000000298023 18.082842707633972 1.2000000000000002
    endloop
  endfacet
  facet normal 0 0 1
    outer loop
      vertex 47.899999998509884 17.958578646183014 1.2000000000000002
      vertex 51.8999999910593 13.958578638732433 1.2000000000000002
      vertex 48.20000000298023 18.082842707633972 1.2000000000000002
    endloop
  endfacet
  facet normal 0 0 1
    outer loop
      vertex 52.041421353816986 22.100000001490116 1.2000000000000002
      vertex 55.79999999701977 17.917157292366028 1.2000000000000002
      vertex 56.100000001490116 18.041421353816986 1.2000000000000002
    endloop
  endfacet
  facet normal 0 0 1
    outer loop
      vertex 47.899999998509884 22.100000001490116 1.2000000000000002
      vertex 48.20000000298023 21.799999997019768 1.2000000000000002
      vertex 51.91715729236603 21.799999997019768 1.2000000000000002
    endloop
  endfacet
  facet normal 0 0 1
    outer loop
      vertex 47.899999998509884 22.100000001490116 1.2000000000000002
      vertex 51.91715729236603 21.799999997019768 1.2000000000000002
      vertex 52.041421353816986 22.100000001490116 1.2000000000000002
    endloop
  endfacet
  facet normal 0 0 1
    outer loop
      vertex 52.041421353816986 22.100000001490116 1.2000000000000002
      vertex 51.91715729236603 21.799999997019768 1.2000000000000002
      vertex 55.79999999701977 17.917157292366028 1.2000000000000002
    endloop
  endfacet
  facet normal -1 0 0
    outer loop
      vertex 48.20000000298023 -21.799999997019768 1.6
      vertex 48.20000000298023 -18.082842707633972 1.6
      vertex 48.20000000298023 -21.799999997019768 1.2000000000000002
    endloop
  endfacet
  facet normal -1 0 0
    outer loop
      vertex 48.20000000298023 -18.082842707633972 1.6
      vertex 48.20000000298023 -18.082842707633972 1.2000000000000002
      vertex 48.20000000298023 -21.799999997019768 1.2000000000000002
    endloop
  endfacet
  facet normal 0 -1 0
    outer loop
      vertex 48.20000000298023 -21.799999997019768 1.6
      vertex 48.20000000298023 -21.799999997019768 1.2000000000000002
      vertex 51.91715729236603 -21.799999997019768 1.2000000000000002
    endloop
  endfacet
  facet normal 0.7071067811865476 -0.7071067811865476 0
    outer loop
      vertex 51.91715729236603 -21.799999997019768 1.6
      vertex 51.91715729236603 -21.799999997019768 1.2000000000000002
      vertex 55.79999999701977 -17.917157292366028 1.2000000000000002
    endloop
  endfacet
  facet normal 0 -1 0
    outer loop
      vertex 48.20000000298023 -21.799999997019768 1.6
      vertex 51.91715729236603 -21.799999997019768 1.2000000000000002
      vertex 51.91715729236603 -21.799999997019768 1.6
    endloop
  endfacet
  facet normal 0 0 1
    outer loop
      vertex 48.20000000298023 -21.799999997019768 1.6
      vertex 51.91715729236603 -21.799999997019768 1.6
      vertex 48.20000000298023 -18.082842707633972 1.6
    endloop
  endfacet
  facet normal -0.7071067805280029 0.707106781845092 0
    outer loop
      vertex 52.20000000298023 -14.082842715084553 1.6
      vertex 52.20000000298023 -14.082842715084553 1.2000000000000002
      vertex 48.20000000298023 -18.082842707633972 1.2000000000000002
    endloop
  endfacet
  facet normal -0.7071067805280029 0.707106781845092 0
    outer loop
      vertex 48.20000000298023 -18.082842707633972 1.6
      vertex 52.20000000298023 -14.082842715084553 1.6
      vertex 48.20000000298023 -18.082842707633972 1.2000000000000002
    endloop
  endfacet
  facet normal 0 0 1
    outer loop
      vertex 48.20000000298023 -18.082842707633972 1.6
      vertex 51.91715729236603 -21.799999997019768 1.6
      vertex 55.79999999701977 -17.917157292366028 1.6
    endloop
  endfacet
  facet normal 0 0 1
    outer loop
      vertex 48.20000000298023 -18.082842707633972 1.6
      vertex 55.79999999701977 -17.917157292366028 1.6
      vertex 52.20000000298023 -14.082842715084553 1.6
    endloop
  endfacet
  facet normal 0.7071067811865476 -0.7071067811865476 1.0109168579002426e-16
    outer loop
      vertex 51.91715729236603 -21.799999997019768 1.6
      vertex 55.79999999701977 -17.917157292366028 1.2000000000000002
      vertex 55.79999999701977 -17.917157292366028 1.6
    endloop
  endfacet
  facet normal 1 0 0
    outer loop
      vertex 55.79999999701977 -17.917157292366028 1.6
      vertex 55.79999999701977 -17.917157292366028 1.2000000000000002
      vertex 55.79999999701977 17.917157292366028 1.2000000000000002
    endloop
  endfacet
  facet normal -1 0 0
    outer loop
      vertex 52.20000000298023 -14.082842715084553 1.6
      vertex 52.20000000298023 14.082842715084553 1.6
      vertex 52.20000000298023 -14.082842715084553 1.2000000000000002
    endloop
  endfacet
  facet normal 0 0 1
    outer loop
      vertex 52.20000000298023 -14.082842715084553 1.6
      vertex 55.79999999701977 -17.917157292366028 1.6
      vertex 55.79999999701977 17.917157292366028 1.6
    endloop
  endfacet
  facet normal -1 0 0
    outer loop
      vertex 52.20000000298023 14.082842715084553 1.6
      vertex 52.20000000298023 14.082842715084553 1.2000000000000002
      vertex 52.20000000298023 -14.082842715084553 1.2000000000000002
    endloop
  endfacet
  facet normal 1 0 0
    outer loop
      vertex 55.79999999701977 -17.917157292366028 1.6
      vertex 55.79999999701977 17.917157292366028 1.2000000000000002
      vertex 55.79999999701977 17.917157292366028 1.6
    endloop
  endfacet
  facet normal 0 0 1
    outer loop
      vertex 52.20000000298023 -14.082842715084553 1.6
      vertex 55.79999999701977 17.917157292366028 1.6
      vertex 52.20000000298023 14.082842715084553 1.6
    endloop
  endfacet
  facet normal -1 0 0
    outer loop
      vertex 48.20000000298023 18.082842707633972 1.6
      vertex 48.20000000298023 21.799999997019768 1.6
      vertex 48.20000000298023 18.082842707633972 1.2000000000000002
    endloop
  endfacet
  facet normal -1 0 0
    outer loop
      vertex 48.20000000298023 21.799999997019768 1.6
      vertex 48.20000000298023 21.799999997019768 1.2000000000000002
      vertex 48.20000000298023 18.082842707633972 1.2000000000000002
    endloop
  endfacet
  facet normal -0.7071067805280029 -0.707106781845092 0
    outer loop
      vertex 48.20000000298023 18.082842707633972 1.6
      vertex 48.20000000298023 18.082842707633972 1.2000000000000002
      vertex 52.20000000298023 14.082842715084553 1.2000000000000002
    endloop
  endfacet
  facet normal 0.7071067811865476 0.7071067811865476 0
    outer loop
      vertex 55.79999999701977 17.917157292366028 1.6
      vertex 55.79999999701977 17.917157292366028 1.2000000000000002
      vertex 51.91715729236603 21.799999997019768 1.2000000000000002
    endloop
  endfacet
  facet normal -0.7071067805280029 -0.707106781845092 0
    outer loop
      vertex 48.20000000298023 18.082842707633972 1.6
      vertex 52.20000000298023 14.082842715084553 1.2000000000000002
      vertex 52.20000000298023 14.082842715084553 1.6
    endloop
  endfacet
  facet normal 0 0 1
    outer loop
      vertex 48.20000000298023 18.082842707633972 1.6
      vertex 52.20000000298023 14.082842715084553 1.6
      vertex 55.79999999701977 17.917157292366028 1.6
    endloop
  endfacet
  facet normal 0 0 1
    outer loop
      vertex 48.20000000298023 18.082842707633972 1.6
      vertex 55.79999999701977 17.917157292366028 1.6
      vertex 51.91715729236603 21.799999997019768 1.6
    endloop
  endfacet
  facet normal 0 1 0
    outer loop
      vertex 51.91715729236603 21.799999997019768 1.6
      vertex 51.91715729236603 21.799999997019768 1.2000000000000002
      vertex 48.20000000298023 21.799999997019768 1.2000000000000002
    endloop
  endfacet
  facet normal 0 1 0
    outer loop
      vertex 48.20000000298023 21.799999997019768 1.6
      vertex 51.91715729236603 21.799999997019768 1.6
      vertex 48.20000000298023 21.799999997019768 1.2000000000000002
    endloop
  endfacet
  facet normal 0 0 1
    outer loop
      vertex 48.20000000298023 18.082842707633972 1.6
      vertex 51.91715729236603 21.799999997019768 1.6
      vertex 48.20000000298023 21.799999997019768 1.6
    endloop
  endfacet
  facet normal 0.7071067811865476 0.7071067811865476 0
    outer loop
      vertex 51.91715729236603 21.799999997019768 1.6
      vertex 55.79999999701977 17.917157292366028 1.6
      vertex 51.91715729236603 21.799999997019768 1.2000000000000002
    endloop
  endfacet
endsolid OpenSCAD_Model
