solid OpenSCAD_Model
  facet normal 0 0 -1
    outer loop
      vertex -2.899999998509884 -19.958578638732433 0
      vertex 9.100000001490116 -31.958578646183014 0
      vertex 2.958578646183014 -38.100000001490116 0
    endloop
  endfacet
  facet normal 0 0 -1
    outer loop
      vertex 2.958578646183014 -38.100000001490116 0
      vertex 9.100000001490116 -31.958578646183014 0
      vertex 9.100000001490116 -38.100000001490116 0
    endloop
  endfacet
  facet normal 0 0 -1
    outer loop
      vertex -9.100000001490116 -26.041421353816986 0
      vertex -2.899999998509884 -19.958578638732433 0
      vertex 2.958578646183014 -38.100000001490116 0
    endloop
  endfacet
  facet normal 0 -1 0
    outer loop
      vertex 2.958578646183014 -38.100000001490116 0
      vertex 9.100000001490116 -38.100000001490116 0
      vertex 2.958578646183014 -38.100000001490116 1.2000000000000002
    endloop
  endfacet
  facet normal -0.7071067811865475 -0.7071067811865475 0
    outer loop
      vertex -9.100000001490116 -26.041421353816986 0
      vertex 2.958578646183014 -38.100000001490116 0
      vertex -9.100000001490116 -26.041421353816986 1.2000000000000002
    endloop
  endfacet
  facet normal 1 0 0
    outer loop
      vertex 9.100000001490116 -38.100000001490116 0
      vertex 9.100000001490116 -31.958578646183014 0
      vertex 9.100000001490116 -38.100000001490116 1.2000000000000002
    endloop
  endfacet
  facet normal 0.7071067814060623 0.7071067809670326 0
    outer loop
      vertex -2.899999998509884 -19.958578638732433 0
      vertex 9.100000001490116 -31.958578646183014 1.2000000000000002
      vertex 9.100000001490116 -31.958578646183014 0
    endloop
  endfacet
  facet normal 0 0 -1
    outer loop
      vertex -9.100000001490116 -26.041421353816986 0
      vertex -2.899999998509884 19.958578638732433 0
      vertex -2.899999998509884 -19.958578638732433 0
    endloop
  endfacet
  facet normal 1 0 0
    outer loop
      vertex -2.899999998509884 -19.958578638732433 0
      vertex -2.899999998509884 19.958578638732433 0
      vertex -2.899999998509884 -19.958578638732433 1.2000000000000002
    endloop
  endfacet
  facet normal -0.7071067811865475 -0.7071067811865475 1.9259553686436293e-16
    outer loop
      vertex -9.100000001490116 -26.041421353816986 1.2000000000000002
      vertex 2.958578646183014 -38.100000001490116 0
      vertex 2.958578646183014 -38.100000001490116 1.2000000000000002
    endloop
  endfacet
  facet normal 0 -1 0
    outer loop
      vertex 9.100000001490116 -38.100000001490116 0
      vertex 9.100000001490116 -38.100000001490116 1.2000000000000002
      vertex 2.958578646183014 -38.100000001490116 1.2000000000000002
    endloop
  endfacet
  facet normal 1 0 0
    outer loop
      vertex 9.100000001490116 -31.958578646183014 0
      vertex 9.100000001490116 -31.958578646183014 1.2000000000000002
      vertex 9.100000001490116 -38.100000001490116 1.2000000000000002
    endloop
  endfacet
  facet normal 0.7071067814060623 0.7071067809670326 0
    outer loop
      vertex -2.899999998509884 -19.958578638732433 0
      vertex -2.899999998509884 -19.958578638732433 1.2000000000000002
      vertex 9.100000001490116 -31.958578646183014 1.2000000000000002
    endloop
  endfacet
  facet normal 0 0 1
    outer loop
      vertex 2.958578646183014 -38.100000001490116 1.2000000000000002
      vertex 9.100000001490116 -38.100000001490116 1.2000000000000002
      vertex 3.082842707633972 -37.79999999701977 1.2000000000000002
    endloop
  endfacet
  facet normal 0 0 1
    outer loop
      vertex 2.958578646183014 -38.100000001490116 1.2000000000000002
      vertex 3.082842707633972 -37.79999999701977 1.2000000000000002
      vertex -8.799999997019768 -25.917157292366028 1.2000000000000002
    endloop
  endfacet
  facet normal 0 0 1
    outer loop
      vertex -9.100000001490116 -26.041421353816986 1.2000000000000002
      vertex 2.958578646183014 -38.100000001490116 1.2000000000000002
      vertex -8.799999997019768 -25.917157292366028 1.2000000000000002
    endloop
  endfacet
  facet normal 0 0 1
    outer loop
      vertex 9.100000001490116 -38.100000001490116 1.2000000000000002
      vertex 8.799999997019768 -37.79999999701977 1.2000000000000002
      vertex 3.082842707633972 -37.79999999701977 1.2000000000000002
    endloop
  endfacet
  facet normal 0 0 1
    outer loop
      vertex 9.100000001490116 -38.100000001490116 1.2000000000000002
      vertex 9.100000001490116 -31.958578646183014 1.2000000000000002
      vertex 8.799999997019768 -37.79999999701977 1.2000000000000002
    endloop
  endfacet
  facet normal 0 0 1
    outer loop
      vertex 9.100000001490116 -31.958578646183014 1.2000000000000002
      vertex 8.799999997019768 -32.08284270763397 1.2000000000000002
      vertex 8.799999997019768 -37.79999999701977 1.2000000000000002
    endloop
  endfacet
  facet normal 0 0 1
    outer loop
      vertex -2.899999998509884 -19.958578638732433 1.2000000000000002
      vertex 8.799999997019768 -32.08284270763397 1.2000000000000002
      vertex 9.100000001490116 -31.958578646183014 1.2000000000000002
    endloop
  endfacet
  facet normal 0 0 1
    outer loop
      vertex -2.899999998509884 -19.958578638732433 1.2000000000000002
      vertex -3.2000000029802322 -20.082842715084553 1.2000000000000002
      vertex 8.799999997019768 -32.08284270763397 1.2000000000000002
    endloop
  endfacet
  facet normal -1 0 0
    outer loop
      vertex -9.100000001490116 -26.041421353816986 0
      vertex -9.100000001490116 -26.041421353816986 1.2000000000000002
      vertex -9.100000001490116 26.041421353816986 1.2000000000000002
    endloop
  endfacet
  facet normal 0 0 1
    outer loop
      vertex -9.100000001490116 -26.041421353816986 1.2000000000000002
      vertex -8.799999997019768 -25.917157292366028 1.2000000000000002
      vertex -8.799999997019768 25.917157292366028 1.2000000000000002
    endloop
  endfacet
  facet normal 0 0 1
    outer loop
      vertex -2.899999998509884 -19.958578638732433 1.2000000000000002
      vertex -2.899999998509884 19.958578638732433 1.2000000000000002
      vertex -3.2000000029802322 -20.082842715084553 1.2000000000000002
    endloop
  endfacet
  facet normal 0 0 -1
    outer loop
      vertex -9.100000001490116 -26.041421353816986 0
      vertex -9.100000001490116 26.041421353816986 0
      vertex -2.899999998509884 19.958578638732433 0
    endloop
  endfacet
  facet normal -1 0 0
    outer loop
      vertex -9.100000001490116 -26.041421353816986 0
      vertex -9.100000001490116 26.041421353816986 1.2000000000000002
      vertex -9.100000001490116 26.041421353816986 0
    endloop
  endfacet
  facet normal 0 0 -1
    outer loop
      vertex -9.100000001490116 26.041421353816986 0
      vertex 2.958578646183014 38.100000001490116 0
      vertex -2.899999998509884 19.958578638732433 0
    endloop
  endfacet
  facet normal 0 0 -1
    outer loop
      vertex -2.899999998509884 19.958578638732433 0
      vertex 2.958578646183014 38.100000001490116 0
      vertex 9.100000001490116 31.958578646183014 0
    endloop
  endfacet
  facet normal 0 0 -1
    outer loop
      vertex 2.958578646183014 38.100000001490116 0
      vertex 9.100000001490116 38.100000001490116 0
      vertex 9.100000001490116 31.958578646183014 0
    endloop
  endfacet
  facet normal 0.7071067814060623 -0.7071067809670326 0
    outer loop
      vertex -2.899999998509884 19.958578638732433 0
      vertex 9.100000001490116 31.958578646183014 0
      vertex -2.899999998509884 19.958578638732433 1.2000000000000002
    endloop
  endfacet
  facet normal -0.7071067811865475 0.7071067811865475 -1.9259553686436293e-16
    outer loop
      vertex -9.100000001490116 26.041421353816986 0
      vertex 2.958578646183014 38.100000001490116 1.2000000000000002
      vertex 2.958578646183014 38.100000001490116 0
    endloop
  endfacet
  facet normal 1 0 0
    outer loop
      vertex 9.100000001490116 31.958578646183014 0
      vertex 9.100000001490116 38.100000001490116 0
      vertex 9.100000001490116 31.958578646183014 1.2000000000000002
    endloop
  endfacet
  facet normal 0 1 0
    outer loop
      vertex 2.958578646183014 38.100000001490116 0
      vertex 9.100000001490116 38.100000001490116 1.2000000000000002
      vertex 9.100000001490116 38.100000001490116 0
    endloop
  endfacet
  facet normal 1 0 0
    outer loop
      vertex -2.899999998509884 -19.958578638732433 1.2000000000000002
      vertex -2.899999998509884 19.958578638732433 0
      vertex -2.899999998509884 19.958578638732433 1.2000000000000002
    endloop
  endfacet
  facet normal 0 0 1
    outer loop
      vertex -2.899999998509884 19.958578638732433 1.2000000000000002
      vertex -3.2000000029802322 20.082842715084553 1.2000000000000002
      vertex -3.2000000029802322 -20.082842715084553 1.2000000000000002
    endloop
  endfacet
  facet normal 0 0 1
    outer loop
      vertex -9.100000001490116 -26.041421353816986 1.2000000000000002
      vertex -8.799999997019768 25.917157292366028 1.2000000000000002
      vertex -9.100000001490116 26.041421353816986 1.2000000000000002
    endloop
  endfacet
  facet normal 0.7071067814060623 -0.7071067809670326 0
    outer loop
      vertex -2.899999998509884 19.958578638732433 1.2000000000000002
      vertex 9.100000001490116 31.958578646183014 0
      vertex 9.100000001490116 31.958578646183014 1.2000000000000002
    endloop
  endfacet
  facet normal -0.7071067811865475 0.7071067811865475 0
    outer loop
      vertex -9.100000001490116 26.041421353816986 0
      vertex -9.100000001490116 26.041421353816986 1.2000000000000002
      vertex 2.958578646183014 38.100000001490116 1.2000000000000002
    endloop
  endfacet
  facet normal 0 1 0
    outer loop
      vertex 2.958578646183014 38.100000001490116 0
      vertex 2.958578646183014 38.100000001490116 1.2000000000000002
      vertex 9.100000001490116 38.100000001490116 1.2000000000000002
    endloop
  endfacet
  facet normal 1 0 0
    outer loop
      vertex 9.100000001490116 38.100000001490116 0
      vertex 9.100000001490116 38.100000001490116 1.2000000000000002
      vertex 9.100000001490116 31.958578646183014 1.2000000000000002
    endloop
  endfacet
  facet normal 0 0 1
    outer loop
      vertex -2.899999998509884 19.958578638732433 1.2000000000000002
      vertex 9.100000001490116 31.958578646183014 1.2000000000000002
      vertex -3.2000000029802322 20.082842715084553 1.2000000000000002
    endloop
  endfacet
  facet normal 0 0 1
    outer loop
      vertex 9.100000001490116 31.958578646183014 1.2000000000000002
      vertex 8.799999997019768 32.08284270763397 1.2000000000000002
      vertex -3.2000000029802322 20.082842715084553 1.2000000000000002
    endloop
  endfacet
  facet normal 0 0 1
    outer loop
      vertex -9.100000001490116 26.041421353816986 1.2000000000000002
      vertex -8.799999997019768 25.917157292366028 1.2000000000000002
      vertex 3.082842707633972 37.79999999701977 1.2000000000000002
    endloop
  endfacet
  facet normal 0 0 1
    outer loop
      vertex -9.100000001490116 26.041421353816986 1.2000000000000002
      vertex 3.082842707633972 37.79999999701977 1.2000000000000002
      vertex 2.958578646183014 38.100000001490116 1.2000000000000002
    endloop
  endfacet
  facet normal 0 0 1
    outer loop
      vertex 2.958578646183014 38.100000001490116 1.2000000000000002
      vertex 3.082842707633972 37.79999999701977 1.2000000000000002
      vertex 8.799999997019768 37.79999999701977 1.2000000000000002
    endloop
  endfacet
  facet normal 0 0 1
    outer loop
      vertex 9.100000001490116 31.958578646183014 1.2000000000000002
      vertex 9.100000001490116 38.100000001490116 1.2000000000000002
      vertex 8.799999997019768 32.08284270763397 1.2000000000000002
    endloop
  endfacet
  facet normal 0 0 1
    outer loop
      vertex 2.958578646183014 38.100000001490116 1.2000000000000002
      vertex 8.799999997019768 37.79999999701977 1.2000000000000002
      vertex 9.100000001490116 38.100000001490116 1.2000000000000002
    endloop
  endfacet
  facet normal 0 0 1
    outer loop
      vertex 9.100000001490116 38.100000001490116 1.2000000000000002
      vertex 8.799999997019768 37.79999999701977 1.2000000000000002
      vertex 8.799999997019768 32.08284270763397 1.2000000000000002
    endloop
  endfacet
  facet normal 0 -1 0
    outer loop
      vertex 3.082842707633972 -37.79999999701977 1.6
      vertex 3.082842707633972 -37.79999999701977 1.2000000000000002
      vertex 8.799999997019768 -37.79999999701977 1.2000000000000002
    endloop
  endfacet
  facet normal -0.7071067811865476 -0.7071067811865476 0
    outer loop
      vertex -8.799999997019768 -25.917157292366028 1.6
      vertex -8.799999997019768 -25.917157292366028 1.2000000000000002
      vertex 3.082842707633972 -37.79999999701977 1.2000000000000002
    endloop
  endfacet
  facet normal 1 0 0
    outer loop
      vertex 8.799999997019768 -37.79999999701977 1.6
      vertex 8.799999997019768 -37.79999999701977 1.2000000000000002
      vertex 8.799999997019768 -32.08284270763397 1.2000000000000002
    endloop
  endfacet
  facet normal -0.7071067811865476 -0.7071067811865476 -1.882867432679339e-15
    outer loop
      vertex -8.799999997019768 -25.917157292366028 1.6
      vertex 3.082842707633972 -37.79999999701977 1.2000000000000002
      vertex 3.082842707633972 -37.79999999701977 1.6
    endloop
  endfacet
  facet normal 0 0 1
    outer loop
      vertex -8.799999997019768 -25.917157292366028 1.6
      vertex 3.082842707633972 -37.79999999701977 1.6
      vertex 8.799999997019768 -32.08284270763397 1.6
    endloop
  endfacet
  facet normal 0 -1 0
    outer loop
      vertex 3.082842707633972 -37.79999999701977 1.6
      vertex 8.799999997019768 -37.79999999701977 1.2000000000000002
      vertex 8.799999997019768 -37.79999999701977 1.6
    endloop
  endfacet
  facet normal 1 0 0
    outer loop
      vertex 8.799999997019768 -37.79999999701977 1.6
      vertex 8.799999997019768 -32.08284270763397 1.2000000000000002
      vertex 8.799999997019768 -32.08284270763397 1.6
    endloop
  endfacet
  facet normal 0 0 1
    outer loop
      vertex 3.082842707633972 -37.79999999701977 1.6
      vertex 8.799999997019768 -37.79999999701977 1.6
      vertex 8.799999997019768 -32.08284270763397 1.6
    endloop
  endfacet
  facet normal 0.7071067809670327 0.7071067814060623 0
    outer loop
      vertex 8.799999997019768 -32.08284270763397 1.6
      vertex 8.799999997019768 -32.08284270763397 1.2000000000000002
      vertex -3.2000000029802322 -20.082842715084553 1.2000000000000002
    endloop
  endfacet
  facet normal 0.7071067809670327 0.7071067814060623 0
    outer loop
      vertex -3.2000000029802322 -20.082842715084553 1.6
      vertex 8.799999997019768 -32.08284270763397 1.6
      vertex -3.2000000029802322 -20.082842715084553 1.2000000000000002
    endloop
  endfacet
  facet normal 0 0 1
    outer loop
      vertex -8.799999997019768 -25.917157292366028 1.6
      vertex 8.799999997019768 -32.08284270763397 1.6
      vertex -3.2000000029802322 -20.082842715084553 1.6
    endloop
  endfacet
  facet normal 1 0 0
    outer loop
      vertex -3.2000000029802322 -20.082842715084553 1.6
      vertex -3.2000000029802322 -20.082842715084553 1.2000000000000002
      vertex -3.2000000029802322 20.082842715084553 1.2000000000000002
    endloop
  endfacet
  facet normal -1 0 0
    outer loop
      vertex -8.799999997019768 -25.917157292366028 1.6
      vertex -8.799999997019768 25.917157292366028 1.6
      vertex -8.799999997019768 -25.917157292366028 1.2000000000000002
    endloop
  endfacet
  facet normal 0 0 1
    outer loop
      vertex -8.799999997019768 -25.917157292366028 1.6
      vertex -3.2000000029802322 -20.082842715084553 1.6
      vertex -3.2000000029802322 20.082842715084553 1.6
    endloop
  endfacet
  facet normal -1 0 0
    outer loop
      vertex -8.799999997019768 25.917157292366028 1.6
      vertex -8.799999997019768 25.917157292366028 1.2000000000000002
      vertex -8.799999997019768 -25.917157292366028 1.2000000000000002
    endloop
  endfacet
  facet normal 1 0 0
    outer loop
      vertex -3.2000000029802322 -20.082842715084553 1.6
      vertex -3.2000000029802322 20.082842715084553 1.2000000000000002
      vertex -3.2000000029802322 20.082842715084553 1.6
    endloop
  endfacet
  facet normal 0 0 1
    outer loop
      vertex -8.799999997019768 -25.917157292366028 1.6
      vertex -3.2000000029802322 20.082842715084553 1.6
      vertex -8.799999997019768 25.917157292366028 1.6
    endloop
  endfacet
  facet normal 0.7071067809670327 -0.7071067814060623 0
    outer loop
      vertex -3.2000000029802322 20.082842715084553 1.6
      vertex -3.2000000029802322 20.082842715084553 1.2000000000000002
      vertex 8.799999997019768 32.08284270763397 1.2000000000000002
    endloop
  endfacet
  facet normal 0.7071067809670327 -0.7071067814060623 0
    outer loop
      vertex -3.2000000029802322 20.082842715084553 1.6
      vertex 8.799999997019768 32.08284270763397 1.2000000000000002
      vertex 8.799999997019768 32.08284270763397 1.6
    endloop
  endfacet
  facet normal 0 0 1
    outer loop
      vertex -8.799999997019768 25.917157292366028 1.6
      vertex -3.2000000029802322 20.082842715084553 1.6
      vertex 8.799999997019768 32.08284270763397 1.6
    endloop
  endfacet
  facet normal -0.7071067811865476 0.7071067811865476 0
    outer loop
      vertex 3.082842707633972 37.79999999701977 1.6
      vertex 3.082842707633972 37.79999999701977 1.2000000000000002
      vertex -8.799999997019768 25.917157292366028 1.2000000000000002
    endloop
  endfacet
  facet normal 1 0 0
    outer loop
      vertex 8.799999997019768 32.08284270763397 1.6
      vertex 8.799999997019768 32.08284270763397 1.2000000000000002
      vertex 8.799999997019768 37.79999999701977 1.2000000000000002
    endloop
  endfacet
  facet normal 0 1 0
    outer loop
      vertex 8.799999997019768 37.79999999701977 1.6
      vertex 8.799999997019768 37.79999999701977 1.2000000000000002
      vertex 3.082842707633972 37.79999999701977 1.2000000000000002
    endloop
  endfacet
  facet normal -0.7071067811865476 0.7071067811865476 0
    outer loop
      vertex -8.799999997019768 25.917157292366028 1.6
      vertex 3.082842707633972 37.79999999701977 1.6
      vertex -8.799999997019768 25.917157292366028 1.2000000000000002
    endloop
  endfacet
  facet normal 0 0 1
    outer loop
      vertex -8.799999997019768 25.917157292366028 1.6
      vertex 8.799999997019768 32.08284270763397 1.6
      vertex 3.082842707633972 37.79999999701977 1.6
    endloop
  endfacet
  facet normal 0 1 0
    outer loop
      vertex 3.082842707633972 37.79999999701977 1.6
      vertex 8.799999997019768 37.79999999701977 1.6
      vertex 3.082842707633972 37.79999999701977 1.2000000000000002
    endloop
  endfacet
  facet normal 1 0 0
    outer loop
      vertex 8.799999997019768 32.08284270763397 1.6
      vertex 8.799999997019768 37.79999999701977 1.2000000000000002
      vertex 8.799999997019768 37.79999999701977 1.6
    endloop
  endfacet
  facet normal 0 0 1
    outer loop
      vertex 3.082842707633972 37.79999999701977 1.6
      vertex 8.799999997019768 32.08284270763397 1.6
      vertex 8.799999997019768 37.79999999701977 1.6
    endloop
  endfacet
  facet normal 0 0 -1
    outer loop
      vertex 12.899999998509884 -38.100000001490116 0
      vertex 12.899999998509884 -31.958578646183014 0
      vertex 19.041421353816986 -38.100000001490116 0
    endloop
  endfacet
  facet normal 0 0 -1
    outer loop
      vertex 12.899999998509884 -31.958578646183014 0
      vertex 24.899999998509884 -19.958578638732433 0
      vertex 19.041421353816986 -38.100000001490116 0
    endloop
  endfacet
  facet normal 0 0 -1
    outer loop
      vertex 19.041421353816986 -38.100000001490116 0
      vertex 24.899999998509884 -19.958578638732433 0
      vertex 31.100000001490116 -26.041421353816986 0
    endloop
  endfacet
  facet normal 0 -1 0
    outer loop
      vertex 12.899999998509884 -38.100000001490116 0
      vertex 19.041421353816986 -38.100000001490116 0
      vertex 12.899999998509884 -38.100000001490116 1.2000000000000002
    endloop
  endfacet
  facet normal -1 0 0
    outer loop
      vertex 12.899999998509884 -38.100000001490116 0
      vertex 12.899999998509884 -31.958578646183014 1.2000000000000002
      vertex 12.899999998509884 -31.958578646183014 0
    endloop
  endfacet
  facet normal 0.7071067811865475 -0.7071067811865475 0
    outer loop
      vertex 19.041421353816986 -38.100000001490116 0
      vertex 31.100000001490116 -26.041421353816986 0
      vertex 19.041421353816986 -38.100000001490116 1.2000000000000002
    endloop
  endfacet
  facet normal -0.7071067814060623 0.7071067809670326 0
    outer loop
      vertex 12.899999998509884 -31.958578646183014 0
      vertex 24.899999998509884 -19.958578638732433 1.2000000000000002
      vertex 24.899999998509884 -19.958578638732433 0
    endloop
  endfacet
  facet normal 0 0 -1
    outer loop
      vertex 24.899999998509884 -19.958578638732433 0
      vertex 31.100000001490116 26.041421353816986 0
      vertex 31.100000001490116 -26.041421353816986 0
    endloop
  endfacet
  facet normal 1 0 0
    outer loop
      vertex 31.100000001490116 -26.041421353816986 0
      vertex 31.100000001490116 26.041421353816986 0
      vertex 31.100000001490116 -26.041421353816986 1.2000000000000002
    endloop
  endfacet
  facet normal -1 0 0
    outer loop
      vertex 12.899999998509884 -38.100000001490116 0
      vertex 12.899999998509884 -38.100000001490116 1.2000000000000002
      vertex 12.899999998509884 -31.958578646183014 1.2000000000000002
    endloop
  endfacet
  facet normal 0 -1 0
    outer loop
      vertex 19.041421353816986 -38.100000001490116 0
      vertex 19.041421353816986 -38.100000001490116 1.2000000000000002
      vertex 12.899999998509884 -38.100000001490116 1.2000000000000002
    endloop
  endfacet
  facet normal -0.7071067814060623 0.7071067809670326 0
    outer loop
      vertex 12.899999998509884 -31.958578646183014 0
      vertex 12.899999998509884 -31.958578646183014 1.2000000000000002
      vertex 24.899999998509884 -19.958578638732433 1.2000000000000002
    endloop
  endfacet
  facet normal 0.7071067811865475 -0.7071067811865475 -1.9259553686436293e-16
    outer loop
      vertex 19.041421353816986 -38.100000001490116 1.2000000000000002
      vertex 31.100000001490116 -26.041421353816986 0
      vertex 31.100000001490116 -26.041421353816986 1.2000000000000002
    endloop
  endfacet
  facet normal 0 0 1
    outer loop
      vertex 12.899999998509884 -38.100000001490116 1.2000000000000002
      vertex 19.041421353816986 -38.100000001490116 1.2000000000000002
      vertex 13.200000002980232 -37.79999999701977 1.2000000000000002
    endloop
  endfacet
  facet normal 0 0 1
    outer loop
      vertex 12.899999998509884 -38.100000001490116 1.2000000000000002
      vertex 13.200000002980232 -37.79999999701977 1.2000000000000002
      vertex 13.200000002980232 -32.08284270763397 1.2000000000000002
    endloop
  endfacet
  facet normal 0 0 1
    outer loop
      vertex 19.041421353816986 -38.100000001490116 1.2000000000000002
      vertex 18.917157292366028 -37.79999999701977 1.2000000000000002
      vertex 13.200000002980232 -37.79999999701977 1.2000000000000002
    endloop
  endfacet
  facet normal 0 0 1
    outer loop
      vertex 12.899999998509884 -38.100000001490116 1.2000000000000002
      vertex 13.200000002980232 -32.08284270763397 1.2000000000000002
      vertex 12.899999998509884 -31.958578646183014 1.2000000000000002
    endloop
  endfacet
  facet normal 0 0 1
    outer loop
      vertex 12.899999998509884 -31.958578646183014 1.2000000000000002
      vertex 13.200000002980232 -32.08284270763397 1.2000000000000002
      vertex 25.200000002980232 -20.082842715084553 1.2000000000000002
    endloop
  endfacet
  facet normal 0 0 1
    outer loop
      vertex 19.041421353816986 -38.100000001490116 1.2000000000000002
      vertex 31.100000001490116 -26.041421353816986 1.2000000000000002
      vertex 18.917157292366028 -37.79999999701977 1.2000000000000002
    endloop
  endfacet
  facet normal 0 0 1
    outer loop
      vertex 31.100000001490116 -26.041421353816986 1.2000000000000002
      vertex 30.799999997019768 -25.917157284915447 1.2000000000000002
      vertex 18.917157292366028 -37.79999999701977 1.2000000000000002
    endloop
  endfacet
  facet normal 0 0 1
    outer loop
      vertex 12.899999998509884 -31.958578646183014 1.2000000000000002
      vertex 25.200000002980232 -20.082842715084553 1.2000000000000002
      vertex 24.899999998509884 -19.958578638732433 1.2000000000000002
    endloop
  endfacet
  facet normal -1 0 0
    outer loop
      vertex 24.899999998509884 -19.958578638732433 0
      vertex 24.899999998509884 -19.958578638732433 1.2000000000000002
      vertex 24.899999998509884 19.958578638732433 1.2000000000000002
    endloop
  endfacet
  facet normal 0 0 1
    outer loop
      vertex 24.899999998509884 -19.958578638732433 1.2000000000000002
      vertex 25.200000002980232 -20.082842715084553 1.2000000000000002
      vertex 25.200000002980232 20.082842715084553 1.2000000000000002
    endloop
  endfacet
  facet normal 0 0 1
    outer loop
      vertex 31.100000001490116 -26.041421353816986 1.2000000000000002
      vertex 31.100000001490116 26.041421353816986 1.2000000000000002
      vertex 30.799999997019768 -25.917157284915447 1.2000000000000002
    endloop
  endfacet
  facet normal 0 0 -1
    outer loop
      vertex 24.899999998509884 -19.958578638732433 0
      vertex 24.899999998509884 19.958578638732433 0
      vertex 31.100000001490116 26.041421353816986 0
    endloop
  endfacet
  facet normal -1 0 0
    outer loop
      vertex 24.899999998509884 -19.958578638732433 0
      vertex 24.899999998509884 19.958578638732433 1.2000000000000002
      vertex 24.899999998509884 19.958578638732433 0
    endloop
  endfacet
  facet normal 0 0 -1
    outer loop
      vertex 12.899999998509884 31.958578646183014 0
      vertex 19.041421353816986 38.100000001490116 0
      vertex 24.899999998509884 19.958578638732433 0
    endloop
  endfacet
  facet normal 0 0 -1
    outer loop
      vertex 12.899999998509884 31.958578646183014 0
      vertex 12.899999998509884 38.100000001490116 0
      vertex 19.041421353816986 38.100000001490116 0
    endloop
  endfacet
  facet normal 0 0 -1
    outer loop
      vertex 19.041421353816986 38.100000001490116 0
      vertex 31.100000001490116 26.041421353816986 0
      vertex 24.899999998509884 19.958578638732433 0
    endloop
  endfacet
  facet normal -0.7071067814060623 -0.7071067809670326 0
    outer loop
      vertex 12.899999998509884 31.958578646183014 0
      vertex 24.899999998509884 19.958578638732433 0
      vertex 12.899999998509884 31.958578646183014 1.2000000000000002
    endloop
  endfacet
  facet normal -1 0 0
    outer loop
      vertex 12.899999998509884 31.958578646183014 0
      vertex 12.899999998509884 38.100000001490116 1.2000000000000002
      vertex 12.899999998509884 38.100000001490116 0
    endloop
  endfacet
  facet normal 0 1 0
    outer loop
      vertex 12.899999998509884 38.100000001490116 0
      vertex 19.041421353816986 38.100000001490116 1.2000000000000002
      vertex 19.041421353816986 38.100000001490116 0
    endloop
  endfacet
  facet normal 0.7071067811865475 0.7071067811865475 1.9259553686436293e-16
    outer loop
      vertex 19.041421353816986 38.100000001490116 0
      vertex 31.100000001490116 26.041421353816986 1.2000000000000002
      vertex 31.100000001490116 26.041421353816986 0
    endloop
  endfacet
  facet normal 1 0 0
    outer loop
      vertex 31.100000001490116 -26.041421353816986 1.2000000000000002
      vertex 31.100000001490116 26.041421353816986 0
      vertex 31.100000001490116 26.041421353816986 1.2000000000000002
    endloop
  endfacet
  facet normal 0 0 1
    outer loop
      vertex 24.899999998509884 -19.958578638732433 1.2000000000000002
      vertex 25.200000002980232 20.082842715084553 1.2000000000000002
      vertex 24.899999998509884 19.958578638732433 1.2000000000000002
    endloop
  endfacet
  facet normal 0 0 1
    outer loop
      vertex 31.100000001490116 26.041421353816986 1.2000000000000002
      vertex 30.799999997019768 25.917157292366028 1.2000000000000002
      vertex 30.799999997019768 -25.917157284915447 1.2000000000000002
    endloop
  endfacet
  facet normal -1 0 0
    outer loop
      vertex 12.899999998509884 31.958578646183014 0
      vertex 12.899999998509884 31.958578646183014 1.2000000000000002
      vertex 12.899999998509884 38.100000001490116 1.2000000000000002
    endloop
  endfacet
  facet normal 0 1 0
    outer loop
      vertex 12.899999998509884 38.100000001490116 0
      vertex 12.899999998509884 38.100000001490116 1.2000000000000002
      vertex 19.041421353816986 38.100000001490116 1.2000000000000002
    endloop
  endfacet
  facet normal -0.7071067814060623 -0.7071067809670326 0
    outer loop
      vertex 12.899999998509884 31.958578646183014 1.2000000000000002
      vertex 24.899999998509884 19.958578638732433 0
      vertex 24.899999998509884 19.958578638732433 1.2000000000000002
    endloop
  endfacet
  facet normal 0.7071067811865475 0.7071067811865475 0
    outer loop
      vertex 19.041421353816986 38.100000001490116 0
      vertex 19.041421353816986 38.100000001490116 1.2000000000000002
      vertex 31.100000001490116 26.041421353816986 1.2000000000000002
    endloop
  endfacet
  facet normal 0 0 1
    outer loop
      vertex 12.899999998509884 31.958578646183014 1.2000000000000002
      vertex 24.899999998509884 19.958578638732433 1.2000000000000002
      vertex 13.200000002980232 32.08284270763397 1.2000000000000002
    endloop
  endfacet
  facet normal 0 0 1
    outer loop
      vertex 12.899999998509884 31.958578646183014 1.2000000000000002
      vertex 13.200000002980232 32.08284270763397 1.2000000000000002
      vertex 13.200000002980232 37.79999999701977 1.2000000000000002
    endloop
  endfacet
  facet normal 0 0 1
    outer loop
      vertex 12.899999998509884 31.958578646183014 1.2000000000000002
      vertex 13.200000002980232 37.79999999701977 1.2000000000000002
      vertex 12.899999998509884 38.100000001490116 1.2000000000000002
    endloop
  endfacet
  facet normal 0 0 1
    outer loop
      vertex 12.899999998509884 38.100000001490116 1.2000000000000002
      vertex 13.200000002980232 37.79999999701977 1.2000000000000002
      vertex 18.917157292366028 37.79999999701977 1.2000000000000002
    endloop
  endfacet
  facet normal 0 0 1
    outer loop
      vertex 12.899999998509884 38.100000001490116 1.2000000000000002
      vertex 18.917157292366028 37.79999999701977 1.2000000000000002
      vertex 19.041421353816986 38.100000001490116 1.2000000000000002
    endloop
  endfacet
  facet normal 0 0 1
    outer loop
      vertex 24.899999998509884 19.958578638732433 1.2000000000000002
      vertex 25.200000002980232 20.082842715084553 1.2000000000000002
      vertex 13.200000002980232 32.08284270763397 1.2000000000000002
    endloop
  endfacet
  facet normal 0 0 1
    outer loop
      vertex 19.041421353816986 38.100000001490116 1.2000000000000002
      vertex 30.799999997019768 25.917157292366028 1.2000000000000002
      vertex 31.100000001490116 26.041421353816986 1.2000000000000002
    endloop
  endfacet
  facet normal 0 0 1
    outer loop
      vertex 19.041421353816986 38.100000001490116 1.2000000000000002
      vertex 18.917157292366028 37.79999999701977 1.2000000000000002
      vertex 30.799999997019768 25.917157292366028 1.2000000000000002
    endloop
  endfacet
  facet normal 0 -1 0
    outer loop
      vertex 13.200000002980232 -37.79999999701977 1.6
      vertex 13.200000002980232 -37.79999999701977 1.2000000000000002
      vertex 18.917157292366028 -37.79999999701977 1.2000000000000002
    endloop
  endfacet
  facet normal -1 0 0
    outer loop
      vertex 13.200000002980232 -32.08284270763397 1.6
      vertex 13.200000002980232 -32.08284270763397 1.2000000000000002
      vertex 13.200000002980232 -37.79999999701977 1.2000000000000002
    endloop
  endfacet
  facet normal -1 0 0
    outer loop
      vertex 13.200000002980232 -37.79999999701977 1.6
      vertex 13.200000002980232 -32.08284270763397 1.6
      vertex 13.200000002980232 -37.79999999701977 1.2000000000000002
    endloop
  endfacet
  facet normal 0 -1 0
    outer loop
      vertex 13.200000002980232 -37.79999999701977 1.6
      vertex 18.917157292366028 -37.79999999701977 1.2000000000000002
      vertex 18.917157292366028 -37.79999999701977 1.6
    endloop
  endfacet
  facet normal 0 0 1
    outer loop
      vertex 13.200000002980232 -37.79999999701977 1.6
      vertex 18.917157292366028 -37.79999999701977 1.6
      vertex 13.200000002980232 -32.08284270763397 1.6
    endloop
  endfacet
  facet normal -0.7071067809670327 0.7071067814060623 0
    outer loop
      vertex 13.200000002980232 -32.08284270763397 1.6
      vertex 25.200000002980232 -20.082842715084553 1.6
      vertex 13.200000002980232 -32.08284270763397 1.2000000000000002
    endloop
  endfacet
  facet normal 0.7071067814082266 -0.7071067809648685 0
    outer loop
      vertex 18.917157292366028 -37.79999999701977 1.6
      vertex 18.917157292366028 -37.79999999701977 1.2000000000000002
      vertex 30.799999997019768 -25.917157284915447 1.2000000000000002
    endloop
  endfacet
  facet normal 0.7071067814082266 -0.7071067809648685 1.5360234314410728e-15
    outer loop
      vertex 18.917157292366028 -37.79999999701977 1.6
      vertex 30.799999997019768 -25.917157284915447 1.2000000000000002
      vertex 30.799999997019768 -25.917157284915447 1.6
    endloop
  endfacet
  facet normal 0 0 1
    outer loop
      vertex 13.200000002980232 -32.08284270763397 1.6
      vertex 18.917157292366028 -37.79999999701977 1.6
      vertex 30.799999997019768 -25.917157284915447 1.6
    endloop
  endfacet
  facet normal -0.7071067809670327 0.7071067814060623 0
    outer loop
      vertex 25.200000002980232 -20.082842715084553 1.6
      vertex 25.200000002980232 -20.082842715084553 1.2000000000000002
      vertex 13.200000002980232 -32.08284270763397 1.2000000000000002
    endloop
  endfacet
  facet normal 0 0 1
    outer loop
      vertex 13.200000002980232 -32.08284270763397 1.6
      vertex 30.799999997019768 -25.917157284915447 1.6
      vertex 25.200000002980232 -20.082842715084553 1.6
    endloop
  endfacet
  facet normal 1 0 0
    outer loop
      vertex 30.799999997019768 -25.917157284915447 1.6
      vertex 30.799999997019768 -25.917157284915447 1.2000000000000002
      vertex 30.799999997019768 25.917157292366028 1.2000000000000002
    endloop
  endfacet
  facet normal -1 0 0
    outer loop
      vertex 25.200000002980232 -20.082842715084553 1.6
      vertex 25.200000002980232 20.082842715084553 1.6
      vertex 25.200000002980232 -20.082842715084553 1.2000000000000002
    endloop
  endfacet
  facet normal 0 0 1
    outer loop
      vertex 25.200000002980232 -20.082842715084553 1.6
      vertex 30.799999997019768 -25.917157284915447 1.6
      vertex 25.200000002980232 20.082842715084553 1.6
    endloop
  endfacet
  facet normal -1 0 0
    outer loop
      vertex 25.200000002980232 20.082842715084553 1.6
      vertex 25.200000002980232 20.082842715084553 1.2000000000000002
      vertex 25.200000002980232 -20.082842715084553 1.2000000000000002
    endloop
  endfacet
  facet normal 1 0 0
    outer loop
      vertex 30.799999997019768 -25.917157284915447 1.6
      vertex 30.799999997019768 25.917157292366028 1.2000000000000002
      vertex 30.799999997019768 25.917157292366028 1.6
    endloop
  endfacet
  facet normal 0 0 1
    outer loop
      vertex 30.799999997019768 -25.917157284915447 1.6
      vertex 30.799999997019768 25.917157292366028 1.6
      vertex 25.200000002980232 20.082842715084553 1.6
    endloop
  endfacet
  facet normal -0.7071067809670327 -0.7071067814060623 0
    outer loop
      vertex 13.200000002980232 32.08284270763397 1.6
      vertex 13.200000002980232 32.08284270763397 1.2000000000000002
      vertex 25.200000002980232 20.082842715084553 1.2000000000000002
    endloop
  endfacet
  facet normal -1 0 0
    outer loop
      vertex 13.200000002980232 37.79999999701977 1.6
      vertex 13.200000002980232 37.79999999701977 1.2000000000000002
      vertex 13.200000002980232 32.08284270763397 1.2000000000000002
    endloop
  endfacet
  facet normal 0 1 0
    outer loop
      vertex 18.917157292366028 37.79999999701977 1.6
      vertex 18.917157292366028 37.79999999701977 1.2000000000000002
      vertex 13.200000002980232 37.79999999701977 1.2000000000000002
    endloop
  endfacet
  facet normal -1 0 0
    outer loop
      vertex 13.200000002980232 32.08284270763397 1.6
      vertex 13.200000002980232 37.79999999701977 1.6
      vertex 13.200000002980232 32.08284270763397 1.2000000000000002
    endloop
  endfacet
  facet normal 0 1 0
    outer loop
      vertex 13.200000002980232 37.79999999701977 1.6
      vertex 18.917157292366028 37.79999999701977 1.6
      vertex 13.200000002980232 37.79999999701977 1.2000000000000002
    endloop
  endfacet
  facet normal 0 0 1
    outer loop
      vertex 13.200000002980232 32.08284270763397 1.6
      vertex 18.917157292366028 37.79999999701977 1.6
      vertex 13.200000002980232 37.79999999701977 1.6
    endloop
  endfacet
  facet normal -0.7071067809670327 -0.7071067814060623 0
    outer loop
      vertex 13.200000002980232 32.08284270763397 1.6
      vertex 25.200000002980232 20.082842715084553 1.2000000000000002
      vertex 25.200000002980232 20.082842715084553 1.6
    endloop
  endfacet
  facet normal 0 0 1
    outer loop
      vertex 13.200000002980232 32.08284270763397 1.6
      vertex 25.200000002980232 20.082842715084553 1.6
      vertex 30.799999997019768 25.917157292366028 1.6
    endloop
  endfacet
  facet normal 0.7071067811865476 0.7071067811865476 0
    outer loop
      vertex 30.799999997019768 25.917157292366028 1.6
      vertex 30.799999997019768 25.917157292366028 1.2000000000000002
      vertex 18.917157292366028 37.79999999701977 1.2000000000000002
    endloop
  endfacet
  facet normal 0 0 1
    outer loop
      vertex 13.200000002980232 32.08284270763397 1.6
      vertex 30.799999997019768 25.917157292366028 1.6
      vertex 18.917157292366028 37.79999999701977 1.6
    endloop
  endfacet
  facet normal 0.7071067811865476 0.7071067811865476 0
    outer loop
      vertex 18.917157292366028 37.79999999701977 1.6
      vertex 30.799999997019768 25.917157292366028 1.6
      vertex 18.917157292366028 37.79999999701977 1.2000000000000002
    endloop
  endfacet
  facet normal 0 -1 0
    outer loop
      vertex 62.42857142537832 -35.100000001490116 0
      vertex 71.64000000059605 -35.100000001490116 0
      vertex 62.42857142537832 -35.100000001490116 1.2000000000000002
    endloop
  endfacet
  facet normal 0 0 -1
    outer loop
      vertex 38.35999999940395 35.100000001490116 0
      vertex 71.64000000059605 -35.100000001490116 0
      vertex 62.42857142537832 -35.100000001490116 0
    endloop
  endfacet
  facet normal 0.9459459459609064 0.3243243242806895 -9.686774965310458e-16
    outer loop
      vertex 47.57142857462168 35.100000001490116 0
      vertex 71.64000000059605 -35.100000001490116 1.2000000000000002
      vertex 71.64000000059605 -35.100000001490116 0
    endloop
  endfacet
  facet normal 0 -1 0
    outer loop
      vertex 71.64000000059605 -35.100000001490116 0
      vertex 71.64000000059605 -35.100000001490116 1.2000000000000002
      vertex 62.42857142537832 -35.100000001490116 1.2000000000000002
    endloop
  endfacet
  facet normal 0 0 1
    outer loop
      vertex 62.42857142537832 -35.100000001490116 1.2000000000000002
      vertex 71.2199999988079 -34.79999999701977 1.2000000000000002
      vertex 62.642857141792774 -34.79999999701977 1.2000000000000002
    endloop
  endfacet
  facet normal 0 0 1
    outer loop
      vertex 62.42857142537832 -35.100000001490116 1.2000000000000002
      vertex 71.64000000059605 -35.100000001490116 1.2000000000000002
      vertex 71.2199999988079 -34.79999999701977 1.2000000000000002
    endloop
  endfacet
  facet normal -0.9459459459609064 -0.3243243242806895 -9.686774965310458e-16
    outer loop
      vertex 38.35999999940395 35.100000001490116 1.2000000000000002
      vertex 62.42857142537832 -35.100000001490116 0
      vertex 62.42857142537832 -35.100000001490116 1.2000000000000002
    endloop
  endfacet
  facet normal 0 0 1
    outer loop
      vertex 62.42857142537832 -35.100000001490116 1.2000000000000002
      vertex 62.642857141792774 -34.79999999701977 1.2000000000000002
      vertex 38.78000000119209 34.79999999701977 1.2000000000000002
    endloop
  endfacet
  facet normal 0 0 1
    outer loop
      vertex 47.57142857462168 35.100000001490116 1.2000000000000002
      vertex 71.2199999988079 -34.79999999701977 1.2000000000000002
      vertex 71.64000000059605 -35.100000001490116 1.2000000000000002
    endloop
  endfacet
  facet normal -0.9459459459609064 -0.3243243242806895 0
    outer loop
      vertex 38.35999999940395 35.100000001490116 0
      vertex 62.42857142537832 -35.100000001490116 0
      vertex 38.35999999940395 35.100000001490116 1.2000000000000002
    endloop
  endfacet
  facet normal 0 1 0
    outer loop
      vertex 38.35999999940395 35.100000001490116 0
      vertex 47.57142857462168 35.100000001490116 1.2000000000000002
      vertex 47.57142857462168 35.100000001490116 0
    endloop
  endfacet
  facet normal 0 0 -1
    outer loop
      vertex 38.35999999940395 35.100000001490116 0
      vertex 47.57142857462168 35.100000001490116 0
      vertex 71.64000000059605 -35.100000001490116 0
    endloop
  endfacet
  facet normal 0 0 1
    outer loop
      vertex 38.35999999940395 35.100000001490116 1.2000000000000002
      vertex 62.42857142537832 -35.100000001490116 1.2000000000000002
      vertex 38.78000000119209 34.79999999701977 1.2000000000000002
    endloop
  endfacet
  facet normal 0 1 0
    outer loop
      vertex 38.35999999940395 35.100000001490116 0
      vertex 38.35999999940395 35.100000001490116 1.2000000000000002
      vertex 47.57142857462168 35.100000001490116 1.2000000000000002
    endloop
  endfacet
  facet normal 0 0 1
    outer loop
      vertex 38.35999999940395 35.100000001490116 1.2000000000000002
      vertex 38.78000000119209 34.79999999701977 1.2000000000000002
      vertex 47.57142857462168 35.100000001490116 1.2000000000000002
    endloop
  endfacet
  facet normal 0 0 1
    outer loop
      vertex 47.57142857462168 35.100000001490116 1.2000000000000002
      vertex 38.78000000119209 34.79999999701977 1.2000000000000002
      vertex 47.357142858207226 34.79999999701977 1.2000000000000002
    endloop
  endfacet
  facet normal 0.9459459459609064 0.3243243242806895 0
    outer loop
      vertex 47.57142857462168 35.100000001490116 0
      vertex 47.57142857462168 35.100000001490116 1.2000000000000002
      vertex 71.64000000059605 -35.100000001490116 1.2000000000000002
    endloop
  endfacet
  facet normal 0 0 1
    outer loop
      vertex 47.57142857462168 35.100000001490116 1.2000000000000002
      vertex 47.357142858207226 34.79999999701977 1.2000000000000002
      vertex 71.2199999988079 -34.79999999701977 1.2000000000000002
    endloop
  endfacet
  facet normal 0 -1 0
    outer loop
      vertex 62.642857141792774 -34.79999999701977 1.6
      vertex 62.642857141792774 -34.79999999701977 1.2000000000000002
      vertex 71.2199999988079 -34.79999999701977 1.2000000000000002
    endloop
  endfacet
  facet normal 0 -1 0
    outer loop
      vertex 62.642857141792774 -34.79999999701977 1.6
      vertex 71.2199999988079 -34.79999999701977 1.2000000000000002
      vertex 71.2199999988079 -34.79999999701977 1.6
    endloop
  endfacet
  facet normal 0.9459459459468336 0.3243243243217354 0
    outer loop
      vertex 71.2199999988079 -34.79999999701977 1.6
      vertex 71.2199999988079 -34.79999999701977 1.2000000000000002
      vertex 47.357142858207226 34.79999999701977 1.2000000000000002
    endloop
  endfacet
  facet normal -0.9459459459468336 -0.3243243243217354 2.180394900406903e-15
    outer loop
      vertex 38.78000000119209 34.79999999701977 1.6
      vertex 62.642857141792774 -34.79999999701977 1.2000000000000002
      vertex 62.642857141792774 -34.79999999701977 1.6
    endloop
  endfacet
  facet normal 0 0 1
    outer loop
      vertex 47.357142858207226 34.79999999701977 1.6
      vertex 62.642857141792774 -34.79999999701977 1.6
      vertex 71.2199999988079 -34.79999999701977 1.6
    endloop
  endfacet
  facet normal -0.9459459459468336 -0.3243243243217354 0
    outer loop
      vertex 38.78000000119209 34.79999999701977 1.6
      vertex 38.78000000119209 34.79999999701977 1.2000000000000002
      vertex 62.642857141792774 -34.79999999701977 1.2000000000000002
    endloop
  endfacet
  facet normal 0 1 0
    outer loop
      vertex 47.357142858207226 34.79999999701977 1.6
      vertex 47.357142858207226 34.79999999701977 1.2000000000000002
      vertex 38.78000000119209 34.79999999701977 1.2000000000000002
    endloop
  endfacet
  facet normal 0 1 0
    outer loop
      vertex 38.78000000119209 34.79999999701977 1.6
      vertex 47.357142858207226 34.79999999701977 1.6
      vertex 38.78000000119209 34.79999999701977 1.2000000000000002
    endloop
  endfacet
  facet normal 0.9459459459468336 0.3243243243217354 0
    outer loop
      vertex 47.357142858207226 34.79999999701977 1.6
      vertex 71.2199999988079 -34.79999999701977 1.6
      vertex 47.357142858207226 34.79999999701977 1.2000000000000002
    endloop
  endfacet
  facet normal 0 0 1
    outer loop
      vertex 38.78000000119209 34.79999999701977 1.6
      vertex 62.642857141792774 -34.79999999701977 1.6
      vertex 47.357142858207226 34.79999999701977 1.6
    endloop
  endfacet
  facet normal 0 -1 0
    outer loop
      vertex 73.35999999940395 -35.100000001490116 0
      vertex 82.57142857462168 -35.100000001490116 0
      vertex 73.35999999940395 -35.100000001490116 1.2000000000000002
    endloop
  endfacet
  facet normal 0 0 -1
    outer loop
      vertex 73.35999999940395 -35.100000001490116 0
      vertex 97.42857142537832 35.100000001490116 0
      vertex 82.57142857462168 -35.100000001490116 0
    endloop
  endfacet
  facet normal 0.9459459459609064 -0.3243243242806895 0
    outer loop
      vertex 82.57142857462168 -35.100000001490116 0
      vertex 106.64000000059605 35.100000001490116 0
      vertex 82.57142857462168 -35.100000001490116 1.2000000000000002
    endloop
  endfacet
  facet normal 0 -1 0
    outer loop
      vertex 82.57142857462168 -35.100000001490116 0
      vertex 82.57142857462168 -35.100000001490116 1.2000000000000002
      vertex 73.35999999940395 -35.100000001490116 1.2000000000000002
    endloop
  endfacet
  facet normal 0 0 1
    outer loop
      vertex 73.35999999940395 -35.100000001490116 1.2000000000000002
      vertex 82.35714285820723 -34.79999999701977 1.2000000000000002
      vertex 73.7800000011921 -34.79999999701977 1.2000000000000002
    endloop
  endfacet
  facet normal 0 0 1
    outer loop
      vertex 73.35999999940395 -35.100000001490116 1.2000000000000002
      vertex 82.57142857462168 -35.100000001490116 1.2000000000000002
      vertex 82.35714285820723 -34.79999999701977 1.2000000000000002
    endloop
  endfacet
  facet normal -0.9459459459609064 0.3243243242806895 0
    outer loop
      vertex 73.35999999940395 -35.100000001490116 0
      vertex 73.35999999940395 -35.100000001490116 1.2000000000000002
      vertex 97.42857142537832 35.100000001490116 1.2000000000000002
    endloop
  endfacet
  facet normal 0 0 1
    outer loop
      vertex 73.35999999940395 -35.100000001490116 1.2000000000000002
      vertex 73.7800000011921 -34.79999999701977 1.2000000000000002
      vertex 97.42857142537832 35.100000001490116 1.2000000000000002
    endloop
  endfacet
  facet normal 0 0 1
    outer loop
      vertex 82.57142857462168 -35.100000001490116 1.2000000000000002
      vertex 106.2199999988079 34.79999999701977 1.2000000000000002
      vertex 82.35714285820723 -34.79999999701977 1.2000000000000002
    endloop
  endfacet
  facet normal 0 0 -1
    outer loop
      vertex 82.57142857462168 -35.100000001490116 0
      vertex 97.42857142537832 35.100000001490116 0
      vertex 106.64000000059605 35.100000001490116 0
    endloop
  endfacet
  facet normal -0.9459459459609064 0.3243243242806895 9.686774965310458e-16
    outer loop
      vertex 73.35999999940395 -35.100000001490116 0
      vertex 97.42857142537832 35.100000001490116 1.2000000000000002
      vertex 97.42857142537832 35.100000001490116 0
    endloop
  endfacet
  facet normal 0 1 0
    outer loop
      vertex 97.42857142537832 35.100000001490116 0
      vertex 106.64000000059605 35.100000001490116 1.2000000000000002
      vertex 106.64000000059605 35.100000001490116 0
    endloop
  endfacet
  facet normal 0.9459459459609064 -0.3243243242806895 9.686774965310458e-16
    outer loop
      vertex 82.57142857462168 -35.100000001490116 1.2000000000000002
      vertex 106.64000000059605 35.100000001490116 0
      vertex 106.64000000059605 35.100000001490116 1.2000000000000002
    endloop
  endfacet
  facet normal 0 0 1
    outer loop
      vertex 97.42857142537832 35.100000001490116 1.2000000000000002
      vertex 73.7800000011921 -34.79999999701977 1.2000000000000002
      vertex 97.64285714179277 34.79999999701977 1.2000000000000002
    endloop
  endfacet
  facet normal 0 0 1
    outer loop
      vertex 82.57142857462168 -35.100000001490116 1.2000000000000002
      vertex 106.64000000059605 35.100000001490116 1.2000000000000002
      vertex 106.2199999988079 34.79999999701977 1.2000000000000002
    endloop
  endfacet
  facet normal 0 1 0
    outer loop
      vertex 97.42857142537832 35.100000001490116 0
      vertex 97.42857142537832 35.100000001490116 1.2000000000000002
      vertex 106.64000000059605 35.100000001490116 1.2000000000000002
    endloop
  endfacet
  facet normal 0 0 1
    outer loop
      vertex 97.42857142537832 35.100000001490116 1.2000000000000002
      vertex 97.64285714179277 34.79999999701977 1.2000000000000002
      vertex 106.64000000059605 35.100000001490116 1.2000000000000002
    endloop
  endfacet
  facet normal 0 0 1
    outer loop
      vertex 106.64000000059605 35.100000001490116 1.2000000000000002
      vertex 97.64285714179277 34.79999999701977 1.2000000000000002
      vertex 106.2199999988079 34.79999999701977 1.2000000000000002
    endloop
  endfacet
  facet normal 0 -1 0
    outer loop
      vertex 73.7800000011921 -34.79999999701977 1.6
      vertex 73.7800000011921 -34.79999999701977 1.2000000000000002
      vertex 82.35714285820723 -34.79999999701977 1.2000000000000002
    endloop
  endfacet
  facet normal 0 -1 0
    outer loop
      vertex 73.7800000011921 -34.79999999701977 1.6
      vertex 82.35714285820723 -34.79999999701977 1.2000000000000002
      vertex 82.35714285820723 -34.79999999701977 1.6
    endloop
  endfacet
  facet normal 0.9459459459468336 -0.3243243243217354 0
    outer loop
      vertex 82.35714285820723 -34.79999999701977 1.6
      vertex 82.35714285820723 -34.79999999701977 1.2000000000000002
      vertex 106.2199999988079 34.79999999701977 1.2000000000000002
    endloop
  endfacet
  facet normal -0.9459459459468336 0.3243243243217354 0
    outer loop
      vertex 73.7800000011921 -34.79999999701977 1.6
      vertex 97.64285714179277 34.79999999701977 1.6
      vertex 73.7800000011921 -34.79999999701977 1.2000000000000002
    endloop
  endfacet
  facet normal 0 0 1
    outer loop
      vertex 73.7800000011921 -34.79999999701977 1.6
      vertex 82.35714285820723 -34.79999999701977 1.6
      vertex 106.2199999988079 34.79999999701977 1.6
    endloop
  endfacet
  facet normal -0.9459459459468336 0.3243243243217354 0
    outer loop
      vertex 97.64285714179277 34.79999999701977 1.6
      vertex 97.64285714179277 34.79999999701977 1.2000000000000002
      vertex 73.7800000011921 -34.79999999701977 1.2000000000000002
    endloop
  endfacet
  facet normal 0.9459459459468336 -0.3243243243217354 -2.180394900406903e-15
    outer loop
      vertex 82.35714285820723 -34.79999999701977 1.6
      vertex 106.2199999988079 34.79999999701977 1.2000000000000002
      vertex 106.2199999988079 34.79999999701977 1.6
    endloop
  endfacet
  facet normal 0 0 1
    outer loop
      vertex 73.7800000011921 -34.79999999701977 1.6
      vertex 106.2199999988079 34.79999999701977 1.6
      vertex 97.64285714179277 34.79999999701977 1.6
    endloop
  endfacet
  facet normal 0 1 0
    outer loop
      vertex 106.2199999988079 34.79999999701977 1.6
      vertex 106.2199999988079 34.79999999701977 1.2000000000000002
      vertex 97.64285714179277 34.79999999701977 1.2000000000000002
    endloop
  endfacet
  facet normal 0 1 0
    outer loop
      vertex 97.64285714179277 34.79999999701977 1.6
      vertex 106.2199999988079 34.79999999701977 1.6
      vertex 97.64285714179277 34.79999999701977 1.2000000000000002
    endloop
  endfacet
  facet normal 0 -1 0
    outer loop
      vertex 214.7987806648016 -22.100000001490116 0
      vertex 121.2012193351984 -22.100000001490116 1.6
      vertex 121.2012193351984 -22.100000001490116 0
    endloop
  endfacet
  facet normal 0 0 -1
    outer loop
      vertex 121.2012193351984 -22.100000001490116 0
      vertex 114.89999999850988 -15.798780664801598 0
      vertex 214.7987806648016 22.100000001490116 0
    endloop
  endfacet
  facet normal -0.7071067811865475 -0.7071067811865475 -1.2847972443921934e-16
    outer loop
      vertex 121.2012193351984 -22.100000001490116 0
      vertex 114.89999999850988 -15.798780664801598 1.6
      vertex 114.89999999850988 -15.798780664801598 0
    endloop
  endfacet
  facet normal 0.7071067811865475 -0.7071067811865475 1.2847972443921934e-16
    outer loop
      vertex 221.10000000149012 -15.798780664801598 0
      vertex 214.7987806648016 -22.100000001490116 1.6
      vertex 214.7987806648016 -22.100000001490116 0
    endloop
  endfacet
  facet normal 0 0 -1
    outer loop
      vertex 214.7987806648016 -22.100000001490116 0
      vertex 121.2012193351984 -22.100000001490116 0
      vertex 221.10000000149012 15.798780664801598 0
    endloop
  endfacet
  facet normal 0 0 -1
    outer loop
      vertex 214.7987806648016 -22.100000001490116 0
      vertex 221.10000000149012 15.798780664801598 0
      vertex 221.10000000149012 -15.798780664801598 0
    endloop
  endfacet
  facet normal 1 0 0
    outer loop
      vertex 221.10000000149012 15.798780664801598 0
      vertex 221.10000000149012 -15.798780664801598 1.6
      vertex 221.10000000149012 -15.798780664801598 0
    endloop
  endfacet
  facet normal -0.7071067811865475 -0.7071067811865475 0
    outer loop
      vertex 121.2012193351984 -22.100000001490116 0
      vertex 121.2012193351984 -22.100000001490116 1.6
      vertex 114.89999999850988 -15.798780664801598 1.6
    endloop
  endfacet
  facet normal -1 0 0
    outer loop
      vertex 114.89999999850988 -15.798780664801598 0
      vertex 114.89999999850988 -15.798780664801598 1.6
      vertex 114.89999999850988 15.798780664801598 1.6
    endloop
  endfacet
  facet normal 0 0 1
    outer loop
      vertex 214.7987806648016 22.100000001490116 1.6
      vertex 114.89999999850988 -15.798780664801598 1.6
      vertex 121.2012193351984 -22.100000001490116 1.6
    endloop
  endfacet
  facet normal 0 -1 0
    outer loop
      vertex 214.7987806648016 -22.100000001490116 0
      vertex 214.7987806648016 -22.100000001490116 1.6
      vertex 121.2012193351984 -22.100000001490116 1.6
    endloop
  endfacet
  facet normal 0.7071067811865475 -0.7071067811865475 0
    outer loop
      vertex 221.10000000149012 -15.798780664801598 0
      vertex 221.10000000149012 -15.798780664801598 1.6
      vertex 214.7987806648016 -22.100000001490116 1.6
    endloop
  endfacet
  facet normal 0 0 1
    outer loop
      vertex 221.10000000149012 15.798780664801598 1.6
      vertex 121.2012193351984 -22.100000001490116 1.6
      vertex 214.7987806648016 -22.100000001490116 1.6
    endloop
  endfacet
  facet normal 0 0 1
    outer loop
      vertex 221.10000000149012 -15.798780664801598 1.6
      vertex 221.10000000149012 15.798780664801598 1.6
      vertex 214.7987806648016 -22.100000001490116 1.6
    endloop
  endfacet
  facet normal 0 0 -1
    outer loop
      vertex 114.89999999850988 -15.798780664801598 0
      vertex 114.89999999850988 15.798780664801598 0
      vertex 121.2012193351984 22.100000001490116 0
    endloop
  endfacet
  facet normal 0 0 -1
    outer loop
      vertex 114.89999999850988 -15.798780664801598 0
      vertex 121.2012193351984 22.100000001490116 0
      vertex 214.7987806648016 22.100000001490116 0
    endloop
  endfacet
  facet normal -1 0 0
    outer loop
      vertex 114.89999999850988 -15.798780664801598 0
      vertex 114.89999999850988 15.798780664801598 1.6
      vertex 114.89999999850988 15.798780664801598 0
    endloop
  endfacet
  facet normal -0.7071067811865475 0.7071067811865475 1.2847972443921934e-16
    outer loop
      vertex 114.89999999850988 15.798780664801598 0
      vertex 121.2012193351984 22.100000001490116 1.6
      vertex 121.2012193351984 22.100000001490116 0
    endloop
  endfacet
  facet normal 0 0 -1
    outer loop
      vertex 121.2012193351984 -22.100000001490116 0
      vertex 214.7987806648016 22.100000001490116 0
      vertex 221.10000000149012 15.798780664801598 0
    endloop
  endfacet
  facet normal 0.7071067811865475 0.7071067811865475 -1.2847972443921934e-16
    outer loop
      vertex 214.7987806648016 22.100000001490116 0
      vertex 221.10000000149012 15.798780664801598 1.6
      vertex 221.10000000149012 15.798780664801598 0
    endloop
  endfacet
  facet normal 0 1 0
    outer loop
      vertex 121.2012193351984 22.100000001490116 0
      vertex 214.7987806648016 22.100000001490116 1.6
      vertex 214.7987806648016 22.100000001490116 0
    endloop
  endfacet
  facet normal -0.7071067811865475 0.7071067811865475 0
    outer loop
      vertex 114.89999999850988 15.798780664801598 0
      vertex 114.89999999850988 15.798780664801598 1.6
      vertex 121.2012193351984 22.100000001490116 1.6
    endloop
  endfacet
  facet normal 0 0 1
    outer loop
      vertex 121.2012193351984 22.100000001490116 1.6
      vertex 114.89999999850988 15.798780664801598 1.6
      vertex 114.89999999850988 -15.798780664801598 1.6
    endloop
  endfacet
  facet normal 0 0 1
    outer loop
      vertex 214.7987806648016 22.100000001490116 1.6
      vertex 121.2012193351984 22.100000001490116 1.6
      vertex 114.89999999850988 -15.798780664801598 1.6
    endloop
  endfacet
  facet normal 0 1 0
    outer loop
      vertex 121.2012193351984 22.100000001490116 0
      vertex 121.2012193351984 22.100000001490116 1.6
      vertex 214.7987806648016 22.100000001490116 1.6
    endloop
  endfacet
  facet normal 1 0 0
    outer loop
      vertex 221.10000000149012 15.798780664801598 0
      vertex 221.10000000149012 15.798780664801598 1.6
      vertex 221.10000000149012 -15.798780664801598 1.6
    endloop
  endfacet
  facet normal 0 0 1
    outer loop
      vertex 221.10000000149012 15.798780664801598 1.6
      vertex 214.7987806648016 22.100000001490116 1.6
      vertex 121.2012193351984 -22.100000001490116 1.6
    endloop
  endfacet
  facet normal 0.7071067811865475 0.7071067811865475 0
    outer loop
      vertex 214.7987806648016 22.100000001490116 0
      vertex 214.7987806648016 22.100000001490116 1.6
      vertex 221.10000000149012 15.798780664801598 1.6
    endloop
  endfacet
endsolid OpenSCAD_Model
