solid OpenSCAD_Model
  facet normal 0 0 -1
    outer loop
      vertex -1.3999999985098839 -13.458578638732433 0
      vertex 6.600000001490116 -21.458578646183014 0
      vertex 1.458578646183014 -26.600000001490116 0
    endloop
  endfacet
  facet normal 0 0 -1
    outer loop
      vertex 1.458578646183014 -26.600000001490116 0
      vertex 6.600000001490116 -21.458578646183014 0
      vertex 6.600000001490116 -26.600000001490116 0
    endloop
  endfacet
  facet normal 0 0 -1
    outer loop
      vertex -6.600000001490116 -18.541421353816986 0
      vertex -1.3999999985098839 -13.458578638732433 0
      vertex 1.458578646183014 -26.600000001490116 0
    endloop
  endfacet
  facet normal 0 -1 0
    outer loop
      vertex 1.458578646183014 -26.600000001490116 0
      vertex 6.600000001490116 -26.600000001490116 0
      vertex 1.458578646183014 -26.600000001490116 1.2000000000000002
    endloop
  endfacet
  facet normal -0.7071067811865475 -0.7071067811865475 0
    outer loop
      vertex -6.600000001490116 -18.541421353816986 0
      vertex 1.458578646183014 -26.600000001490116 0
      vertex -6.600000001490116 -18.541421353816986 1.2000000000000002
    endloop
  endfacet
  facet normal 1 0 0
    outer loop
      vertex 6.600000001490116 -26.600000001490116 0
      vertex 6.600000001490116 -21.458578646183014 0
      vertex 6.600000001490116 -26.600000001490116 1.2000000000000002
    endloop
  endfacet
  facet normal 0.7071067815158198 0.7071067808572753 0
    outer loop
      vertex -1.3999999985098839 -13.458578638732433 0
      vertex 6.600000001490116 -21.458578646183014 1.2000000000000002
      vertex 6.600000001490116 -21.458578646183014 0
    endloop
  endfacet
  facet normal 0 0 -1
    outer loop
      vertex -6.600000001490116 -18.541421353816986 0
      vertex -1.3999999985098839 13.458578638732433 0
      vertex -1.3999999985098839 -13.458578638732433 0
    endloop
  endfacet
  facet normal 1 0 0
    outer loop
      vertex -1.3999999985098839 -13.458578638732433 0
      vertex -1.3999999985098839 13.458578638732433 0
      vertex -1.3999999985098839 -13.458578638732433 1.2000000000000002
    endloop
  endfacet
  facet normal -0.7071067811865475 -0.7071067811865475 2.8819330678622076e-16
    outer loop
      vertex -6.600000001490116 -18.541421353816986 1.2000000000000002
      vertex 1.458578646183014 -26.600000001490116 0
      vertex 1.458578646183014 -26.600000001490116 1.2000000000000002
    endloop
  endfacet
  facet normal 0 -1 0
    outer loop
      vertex 6.600000001490116 -26.600000001490116 0
      vertex 6.600000001490116 -26.600000001490116 1.2000000000000002
      vertex 1.458578646183014 -26.600000001490116 1.2000000000000002
    endloop
  endfacet
  facet normal 1 0 0
    outer loop
      vertex 6.600000001490116 -21.458578646183014 0
      vertex 6.600000001490116 -21.458578646183014 1.2000000000000002
      vertex 6.600000001490116 -26.600000001490116 1.2000000000000002
    endloop
  endfacet
  facet normal 0.7071067815158198 0.7071067808572753 0
    outer loop
      vertex -1.3999999985098839 -13.458578638732433 0
      vertex -1.3999999985098839 -13.458578638732433 1.2000000000000002
      vertex 6.600000001490116 -21.458578646183014 1.2000000000000002
    endloop
  endfacet
  facet normal 0 0 1
    outer loop
      vertex 1.458578646183014 -26.600000001490116 1.2000000000000002
      vertex 6.600000001490116 -26.600000001490116 1.2000000000000002
      vertex 1.5828427076339722 -26.299999997019768 1.2000000000000002
    endloop
  endfacet
  facet normal 0 0 1
    outer loop
      vertex 1.458578646183014 -26.600000001490116 1.2000000000000002
      vertex 1.5828427076339722 -26.299999997019768 1.2000000000000002
      vertex -6.299999997019768 -18.417157292366028 1.2000000000000002
    endloop
  endfacet
  facet normal 0 0 1
    outer loop
      vertex -6.600000001490116 -18.541421353816986 1.2000000000000002
      vertex 1.458578646183014 -26.600000001490116 1.2000000000000002
      vertex -6.299999997019768 -18.417157292366028 1.2000000000000002
    endloop
  endfacet
  facet normal 0 0 1
    outer loop
      vertex 6.600000001490116 -26.600000001490116 1.2000000000000002
      vertex 6.299999997019768 -26.299999997019768 1.2000000000000002
      vertex 1.5828427076339722 -26.299999997019768 1.2000000000000002
    endloop
  endfacet
  facet normal 0 0 1
    outer loop
      vertex 6.600000001490116 -26.600000001490116 1.2000000000000002
      vertex 6.600000001490116 -21.458578646183014 1.2000000000000002
      vertex 6.299999997019768 -26.299999997019768 1.2000000000000002
    endloop
  endfacet
  facet normal 0 0 1
    outer loop
      vertex 6.600000001490116 -21.458578646183014 1.2000000000000002
      vertex 6.299999997019768 -21.582842707633972 1.2000000000000002
      vertex 6.299999997019768 -26.299999997019768 1.2000000000000002
    endloop
  endfacet
  facet normal 0 0 1
    outer loop
      vertex -1.3999999985098839 -13.458578638732433 1.2000000000000002
      vertex -1.7000000029802322 -13.582842715084553 1.2000000000000002
      vertex 6.299999997019768 -21.582842707633972 1.2000000000000002
    endloop
  endfacet
  facet normal 0 0 1
    outer loop
      vertex -1.3999999985098839 -13.458578638732433 1.2000000000000002
      vertex 6.299999997019768 -21.582842707633972 1.2000000000000002
      vertex 6.600000001490116 -21.458578646183014 1.2000000000000002
    endloop
  endfacet
  facet normal -1 0 0
    outer loop
      vertex -6.600000001490116 -18.541421353816986 0
      vertex -6.600000001490116 -18.541421353816986 1.2000000000000002
      vertex -6.600000001490116 18.541421353816986 1.2000000000000002
    endloop
  endfacet
  facet normal 0 0 1
    outer loop
      vertex -6.600000001490116 -18.541421353816986 1.2000000000000002
      vertex -6.299999997019768 -18.417157292366028 1.2000000000000002
      vertex -6.299999997019768 18.417157292366028 1.2000000000000002
    endloop
  endfacet
  facet normal 0 0 1
    outer loop
      vertex -1.3999999985098839 -13.458578638732433 1.2000000000000002
      vertex -1.3999999985098839 13.458578638732433 1.2000000000000002
      vertex -1.7000000029802322 -13.582842715084553 1.2000000000000002
    endloop
  endfacet
  facet normal 0 0 -1
    outer loop
      vertex -6.600000001490116 -18.541421353816986 0
      vertex -6.600000001490116 18.541421353816986 0
      vertex -1.3999999985098839 13.458578638732433 0
    endloop
  endfacet
  facet normal -1 0 0
    outer loop
      vertex -6.600000001490116 -18.541421353816986 0
      vertex -6.600000001490116 18.541421353816986 1.2000000000000002
      vertex -6.600000001490116 18.541421353816986 0
    endloop
  endfacet
  facet normal 0 0 -1
    outer loop
      vertex -6.600000001490116 18.541421353816986 0
      vertex 1.458578646183014 26.600000001490116 0
      vertex -1.3999999985098839 13.458578638732433 0
    endloop
  endfacet
  facet normal 0 0 -1
    outer loop
      vertex -1.3999999985098839 13.458578638732433 0
      vertex 1.458578646183014 26.600000001490116 0
      vertex 6.600000001490116 21.458578646183014 0
    endloop
  endfacet
  facet normal 0 0 -1
    outer loop
      vertex 1.458578646183014 26.600000001490116 0
      vertex 6.600000001490116 26.600000001490116 0
      vertex 6.600000001490116 21.458578646183014 0
    endloop
  endfacet
  facet normal 0.7071067815158198 -0.7071067808572753 0
    outer loop
      vertex -1.3999999985098839 13.458578638732433 0
      vertex 6.600000001490116 21.458578646183014 0
      vertex -1.3999999985098839 13.458578638732433 1.2000000000000002
    endloop
  endfacet
  facet normal -0.7071067811865475 0.7071067811865475 -2.8819330678622076e-16
    outer loop
      vertex -6.600000001490116 18.541421353816986 0
      vertex 1.458578646183014 26.600000001490116 1.2000000000000002
      vertex 1.458578646183014 26.600000001490116 0
    endloop
  endfacet
  facet normal 1 0 0
    outer loop
      vertex 6.600000001490116 21.458578646183014 0
      vertex 6.600000001490116 26.600000001490116 0
      vertex 6.600000001490116 21.458578646183014 1.2000000000000002
    endloop
  endfacet
  facet normal 0 1 0
    outer loop
      vertex 1.458578646183014 26.600000001490116 0
      vertex 6.600000001490116 26.600000001490116 1.2000000000000002
      vertex 6.600000001490116 26.600000001490116 0
    endloop
  endfacet
  facet normal 1 0 0
    outer loop
      vertex -1.3999999985098839 -13.458578638732433 1.2000000000000002
      vertex -1.3999999985098839 13.458578638732433 0
      vertex -1.3999999985098839 13.458578638732433 1.2000000000000002
    endloop
  endfacet
  facet normal 0 0 1
    outer loop
      vertex -6.600000001490116 -18.541421353816986 1.2000000000000002
      vertex -6.299999997019768 18.417157292366028 1.2000000000000002
      vertex -6.600000001490116 18.541421353816986 1.2000000000000002
    endloop
  endfacet
  facet normal 0 0 1
    outer loop
      vertex -1.3999999985098839 13.458578638732433 1.2000000000000002
      vertex -1.7000000029802322 13.582842715084553 1.2000000000000002
      vertex -1.7000000029802322 -13.582842715084553 1.2000000000000002
    endloop
  endfacet
  facet normal 0.7071067815158198 -0.7071067808572753 0
    outer loop
      vertex -1.3999999985098839 13.458578638732433 1.2000000000000002
      vertex 6.600000001490116 21.458578646183014 0
      vertex 6.600000001490116 21.458578646183014 1.2000000000000002
    endloop
  endfacet
  facet normal -0.7071067811865475 0.7071067811865475 0
    outer loop
      vertex -6.600000001490116 18.541421353816986 0
      vertex -6.600000001490116 18.541421353816986 1.2000000000000002
      vertex 1.458578646183014 26.600000001490116 1.2000000000000002
    endloop
  endfacet
  facet normal 0 1 0
    outer loop
      vertex 1.458578646183014 26.600000001490116 0
      vertex 1.458578646183014 26.600000001490116 1.2000000000000002
      vertex 6.600000001490116 26.600000001490116 1.2000000000000002
    endloop
  endfacet
  facet normal 1 0 0
    outer loop
      vertex 6.600000001490116 26.600000001490116 0
      vertex 6.600000001490116 26.600000001490116 1.2000000000000002
      vertex 6.600000001490116 21.458578646183014 1.2000000000000002
    endloop
  endfacet
  facet normal 0 0 1
    outer loop
      vertex -1.3999999985098839 13.458578638732433 1.2000000000000002
      vertex 6.600000001490116 21.458578646183014 1.2000000000000002
      vertex -1.7000000029802322 13.582842715084553 1.2000000000000002
    endloop
  endfacet
  facet normal 0 0 1
    outer loop
      vertex 6.600000001490116 21.458578646183014 1.2000000000000002
      vertex 6.299999997019768 21.582842707633972 1.2000000000000002
      vertex -1.7000000029802322 13.582842715084553 1.2000000000000002
    endloop
  endfacet
  facet normal 0 0 1
    outer loop
      vertex -6.600000001490116 18.541421353816986 1.2000000000000002
      vertex -6.299999997019768 18.417157292366028 1.2000000000000002
      vertex 1.5828427076339722 26.299999997019768 1.2000000000000002
    endloop
  endfacet
  facet normal 0 0 1
    outer loop
      vertex -6.600000001490116 18.541421353816986 1.2000000000000002
      vertex 1.5828427076339722 26.299999997019768 1.2000000000000002
      vertex 1.458578646183014 26.600000001490116 1.2000000000000002
    endloop
  endfacet
  facet normal 0 0 1
    outer loop
      vertex 1.458578646183014 26.600000001490116 1.2000000000000002
      vertex 1.5828427076339722 26.299999997019768 1.2000000000000002
      vertex 6.299999997019768 26.299999997019768 1.2000000000000002
    endloop
  endfacet
  facet normal 0 0 1
    outer loop
      vertex 6.600000001490116 21.458578646183014 1.2000000000000002
      vertex 6.600000001490116 26.600000001490116 1.2000000000000002
      vertex 6.299999997019768 21.582842707633972 1.2000000000000002
    endloop
  endfacet
  facet normal 0 0 1
    outer loop
      vertex 6.600000001490116 26.600000001490116 1.2000000000000002
      vertex 6.299999997019768 26.299999997019768 1.2000000000000002
      vertex 6.299999997019768 21.582842707633972 1.2000000000000002
    endloop
  endfacet
  facet normal 0 0 1
    outer loop
      vertex 1.458578646183014 26.600000001490116 1.2000000000000002
      vertex 6.299999997019768 26.299999997019768 1.2000000000000002
      vertex 6.600000001490116 26.600000001490116 1.2000000000000002
    endloop
  endfacet
  facet normal 0 -1 0
    outer loop
      vertex 1.5828427076339722 -26.299999997019768 1.6
      vertex 1.5828427076339722 -26.299999997019768 1.2000000000000002
      vertex 6.299999997019768 -26.299999997019768 1.2000000000000002
    endloop
  endfacet
  facet normal -0.7071067811865475 -0.7071067811865475 0
    outer loop
      vertex -6.299999997019768 -18.417157292366028 1.6
      vertex -6.299999997019768 -18.417157292366028 1.2000000000000002
      vertex 1.5828427076339722 -26.299999997019768 1.2000000000000002
    endloop
  endfacet
  facet normal 1 0 0
    outer loop
      vertex 6.299999997019768 -26.299999997019768 1.6
      vertex 6.299999997019768 -26.299999997019768 1.2000000000000002
      vertex 6.299999997019768 -21.582842707633972 1.2000000000000002
    endloop
  endfacet
  facet normal -0.7071067811865475 -0.7071067811865475 3.485623024133779e-16
    outer loop
      vertex -6.299999997019768 -18.417157292366028 1.6
      vertex 1.5828427076339722 -26.299999997019768 1.2000000000000002
      vertex 1.5828427076339722 -26.299999997019768 1.6
    endloop
  endfacet
  facet normal 0 0 1
    outer loop
      vertex -6.299999997019768 -18.417157292366028 1.6
      vertex 1.5828427076339722 -26.299999997019768 1.6
      vertex 6.299999997019768 -21.582842707633972 1.6
    endloop
  endfacet
  facet normal 0 -1 0
    outer loop
      vertex 1.5828427076339722 -26.299999997019768 1.6
      vertex 6.299999997019768 -26.299999997019768 1.2000000000000002
      vertex 6.299999997019768 -26.299999997019768 1.6
    endloop
  endfacet
  facet normal 0 0 1
    outer loop
      vertex 1.5828427076339722 -26.299999997019768 1.6
      vertex 6.299999997019768 -26.299999997019768 1.6
      vertex 6.299999997019768 -21.582842707633972 1.6
    endloop
  endfacet
  facet normal 1 0 0
    outer loop
      vertex 6.299999997019768 -26.299999997019768 1.6
      vertex 6.299999997019768 -21.582842707633972 1.2000000000000002
      vertex 6.299999997019768 -21.582842707633972 1.6
    endloop
  endfacet
  facet normal 0.7071067808572752 0.7071067815158196 0
    outer loop
      vertex 6.299999997019768 -21.582842707633972 1.6
      vertex 6.299999997019768 -21.582842707633972 1.2000000000000002
      vertex -1.7000000029802322 -13.582842715084553 1.2000000000000002
    endloop
  endfacet
  facet normal 0 0 1
    outer loop
      vertex -6.299999997019768 -18.417157292366028 1.6
      vertex 6.299999997019768 -21.582842707633972 1.6
      vertex -1.7000000029802322 -13.582842715084553 1.6
    endloop
  endfacet
  facet normal 0.7071067808572752 0.7071067815158196 0
    outer loop
      vertex -1.7000000029802322 -13.582842715084553 1.6
      vertex 6.299999997019768 -21.582842707633972 1.6
      vertex -1.7000000029802322 -13.582842715084553 1.2000000000000002
    endloop
  endfacet
  facet normal 1 0 0
    outer loop
      vertex -1.7000000029802322 -13.582842715084553 1.6
      vertex -1.7000000029802322 -13.582842715084553 1.2000000000000002
      vertex -1.7000000029802322 13.582842715084553 1.2000000000000002
    endloop
  endfacet
  facet normal -1 0 0
    outer loop
      vertex -6.299999997019768 -18.417157292366028 1.6
      vertex -6.299999997019768 18.417157292366028 1.6
      vertex -6.299999997019768 -18.417157292366028 1.2000000000000002
    endloop
  endfacet
  facet normal 0 0 1
    outer loop
      vertex -6.299999997019768 -18.417157292366028 1.6
      vertex -1.7000000029802322 -13.582842715084553 1.6
      vertex -1.7000000029802322 13.582842715084553 1.6
    endloop
  endfacet
  facet normal -1 0 0
    outer loop
      vertex -6.299999997019768 18.417157292366028 1.6
      vertex -6.299999997019768 18.417157292366028 1.2000000000000002
      vertex -6.299999997019768 -18.417157292366028 1.2000000000000002
    endloop
  endfacet
  facet normal 1 0 0
    outer loop
      vertex -1.7000000029802322 -13.582842715084553 1.6
      vertex -1.7000000029802322 13.582842715084553 1.2000000000000002
      vertex -1.7000000029802322 13.582842715084553 1.6
    endloop
  endfacet
  facet normal 0 0 1
    outer loop
      vertex -6.299999997019768 -18.417157292366028 1.6
      vertex -1.7000000029802322 13.582842715084553 1.6
      vertex -6.299999997019768 18.417157292366028 1.6
    endloop
  endfacet
  facet normal 0.7071067808572752 -0.7071067815158196 0
    outer loop
      vertex -1.7000000029802322 13.582842715084553 1.6
      vertex -1.7000000029802322 13.582842715084553 1.2000000000000002
      vertex 6.299999997019768 21.582842707633972 1.2000000000000002
    endloop
  endfacet
  facet normal 0 0 1
    outer loop
      vertex -6.299999997019768 18.417157292366028 1.6
      vertex -1.7000000029802322 13.582842715084553 1.6
      vertex 6.299999997019768 21.582842707633972 1.6
    endloop
  endfacet
  facet normal 0.7071067808572752 -0.7071067815158196 0
    outer loop
      vertex -1.7000000029802322 13.582842715084553 1.6
      vertex 6.299999997019768 21.582842707633972 1.2000000000000002
      vertex 6.299999997019768 21.582842707633972 1.6
    endloop
  endfacet
  facet normal -0.7071067811865475 0.7071067811865475 0
    outer loop
      vertex 1.5828427076339722 26.299999997019768 1.6
      vertex 1.5828427076339722 26.299999997019768 1.2000000000000002
      vertex -6.299999997019768 18.417157292366028 1.2000000000000002
    endloop
  endfacet
  facet normal 1 0 0
    outer loop
      vertex 6.299999997019768 21.582842707633972 1.6
      vertex 6.299999997019768 21.582842707633972 1.2000000000000002
      vertex 6.299999997019768 26.299999997019768 1.2000000000000002
    endloop
  endfacet
  facet normal 0 1 0
    outer loop
      vertex 6.299999997019768 26.299999997019768 1.6
      vertex 6.299999997019768 26.299999997019768 1.2000000000000002
      vertex 1.5828427076339722 26.299999997019768 1.2000000000000002
    endloop
  endfacet
  facet normal -0.7071067811865475 0.7071067811865475 0
    outer loop
      vertex -6.299999997019768 18.417157292366028 1.6
      vertex 1.5828427076339722 26.299999997019768 1.6
      vertex -6.299999997019768 18.417157292366028 1.2000000000000002
    endloop
  endfacet
  facet normal 0 0 1
    outer loop
      vertex -6.299999997019768 18.417157292366028 1.6
      vertex 6.299999997019768 21.582842707633972 1.6
      vertex 1.5828427076339722 26.299999997019768 1.6
    endloop
  endfacet
  facet normal 0 1 0
    outer loop
      vertex 1.5828427076339722 26.299999997019768 1.6
      vertex 6.299999997019768 26.299999997019768 1.6
      vertex 1.5828427076339722 26.299999997019768 1.2000000000000002
    endloop
  endfacet
  facet normal 1 0 0
    outer loop
      vertex 6.299999997019768 21.582842707633972 1.6
      vertex 6.299999997019768 26.299999997019768 1.2000000000000002
      vertex 6.299999997019768 26.299999997019768 1.6
    endloop
  endfacet
  facet normal 0 0 1
    outer loop
      vertex 1.5828427076339722 26.299999997019768 1.6
      vertex 6.299999997019768 21.582842707633972 1.6
      vertex 6.299999997019768 26.299999997019768 1.6
    endloop
  endfacet
  facet normal 0 0 -1
    outer loop
      vertex 11.399999998509884 -26.600000001490116 0
      vertex 11.399999998509884 -21.458578646183014 0
      vertex 16.541421353816986 -26.600000001490116 0
    endloop
  endfacet
  facet normal 0 0 -1
    outer loop
      vertex 11.399999998509884 -21.458578646183014 0
      vertex 19.399999998509884 -13.458578638732433 0
      vertex 16.541421353816986 -26.600000001490116 0
    endloop
  endfacet
  facet normal 0 0 -1
    outer loop
      vertex 16.541421353816986 -26.600000001490116 0
      vertex 19.399999998509884 -13.458578638732433 0
      vertex 24.600000001490116 -18.541421353816986 0
    endloop
  endfacet
  facet normal 0 -1 0
    outer loop
      vertex 11.399999998509884 -26.600000001490116 0
      vertex 16.541421353816986 -26.600000001490116 0
      vertex 11.399999998509884 -26.600000001490116 1.2000000000000002
    endloop
  endfacet
  facet normal -1 0 0
    outer loop
      vertex 11.399999998509884 -26.600000001490116 0
      vertex 11.399999998509884 -21.458578646183014 1.2000000000000002
      vertex 11.399999998509884 -21.458578646183014 0
    endloop
  endfacet
  facet normal 0.7071067811865475 -0.7071067811865475 0
    outer loop
      vertex 16.541421353816986 -26.600000001490116 0
      vertex 24.600000001490116 -18.541421353816986 0
      vertex 16.541421353816986 -26.600000001490116 1.2000000000000002
    endloop
  endfacet
  facet normal -0.7071067815158198 0.7071067808572753 0
    outer loop
      vertex 11.399999998509884 -21.458578646183014 0
      vertex 19.399999998509884 -13.458578638732433 1.2000000000000002
      vertex 19.399999998509884 -13.458578638732433 0
    endloop
  endfacet
  facet normal 0 0 -1
    outer loop
      vertex 19.399999998509884 -13.458578638732433 0
      vertex 24.600000001490116 18.541421353816986 0
      vertex 24.600000001490116 -18.541421353816986 0
    endloop
  endfacet
  facet normal 1 0 0
    outer loop
      vertex 24.600000001490116 -18.541421353816986 0
      vertex 24.600000001490116 18.541421353816986 0
      vertex 24.600000001490116 -18.541421353816986 1.2000000000000002
    endloop
  endfacet
  facet normal -1 0 0
    outer loop
      vertex 11.399999998509884 -26.600000001490116 0
      vertex 11.399999998509884 -26.600000001490116 1.2000000000000002
      vertex 11.399999998509884 -21.458578646183014 1.2000000000000002
    endloop
  endfacet
  facet normal 0 -1 0
    outer loop
      vertex 16.541421353816986 -26.600000001490116 0
      vertex 16.541421353816986 -26.600000001490116 1.2000000000000002
      vertex 11.399999998509884 -26.600000001490116 1.2000000000000002
    endloop
  endfacet
  facet normal 0.7071067811865475 -0.7071067811865475 -2.8819330678622076e-16
    outer loop
      vertex 16.541421353816986 -26.600000001490116 1.2000000000000002
      vertex 24.600000001490116 -18.541421353816986 0
      vertex 24.600000001490116 -18.541421353816986 1.2000000000000002
    endloop
  endfacet
  facet normal -0.7071067815158198 0.7071067808572753 0
    outer loop
      vertex 11.399999998509884 -21.458578646183014 0
      vertex 11.399999998509884 -21.458578646183014 1.2000000000000002
      vertex 19.399999998509884 -13.458578638732433 1.2000000000000002
    endloop
  endfacet
  facet normal 0 0 1
    outer loop
      vertex 11.399999998509884 -26.600000001490116 1.2000000000000002
      vertex 16.541421353816986 -26.600000001490116 1.2000000000000002
      vertex 11.700000002980232 -26.299999997019768 1.2000000000000002
    endloop
  endfacet
  facet normal 0 0 1
    outer loop
      vertex 11.399999998509884 -26.600000001490116 1.2000000000000002
      vertex 11.700000002980232 -26.299999997019768 1.2000000000000002
      vertex 11.700000002980232 -21.582842707633972 1.2000000000000002
    endloop
  endfacet
  facet normal 0 0 1
    outer loop
      vertex 11.399999998509884 -26.600000001490116 1.2000000000000002
      vertex 11.700000002980232 -21.582842707633972 1.2000000000000002
      vertex 11.399999998509884 -21.458578646183014 1.2000000000000002
    endloop
  endfacet
  facet normal 0 0 1
    outer loop
      vertex 16.541421353816986 -26.600000001490116 1.2000000000000002
      vertex 16.417157292366028 -26.299999997019768 1.2000000000000002
      vertex 11.700000002980232 -26.299999997019768 1.2000000000000002
    endloop
  endfacet
  facet normal 0 0 1
    outer loop
      vertex 16.541421353816986 -26.600000001490116 1.2000000000000002
      vertex 24.600000001490116 -18.541421353816986 1.2000000000000002
      vertex 16.417157292366028 -26.299999997019768 1.2000000000000002
    endloop
  endfacet
  facet normal 0 0 1
    outer loop
      vertex 24.600000001490116 -18.541421353816986 1.2000000000000002
      vertex 24.299999997019768 -18.417157292366028 1.2000000000000002
      vertex 16.417157292366028 -26.299999997019768 1.2000000000000002
    endloop
  endfacet
  facet normal 0 0 1
    outer loop
      vertex 11.399999998509884 -21.458578646183014 1.2000000000000002
      vertex 11.700000002980232 -21.582842707633972 1.2000000000000002
      vertex 19.700000002980232 -13.582842715084553 1.2000000000000002
    endloop
  endfacet
  facet normal 0 0 1
    outer loop
      vertex 11.399999998509884 -21.458578646183014 1.2000000000000002
      vertex 19.700000002980232 -13.582842715084553 1.2000000000000002
      vertex 19.399999998509884 -13.458578638732433 1.2000000000000002
    endloop
  endfacet
  facet normal -1 0 0
    outer loop
      vertex 19.399999998509884 -13.458578638732433 0
      vertex 19.399999998509884 -13.458578638732433 1.2000000000000002
      vertex 19.399999998509884 13.458578638732433 1.2000000000000002
    endloop
  endfacet
  facet normal 0 0 1
    outer loop
      vertex 19.399999998509884 -13.458578638732433 1.2000000000000002
      vertex 19.700000002980232 -13.582842715084553 1.2000000000000002
      vertex 19.700000002980232 13.582842715084553 1.2000000000000002
    endloop
  endfacet
  facet normal 0 0 1
    outer loop
      vertex 24.600000001490116 -18.541421353816986 1.2000000000000002
      vertex 24.600000001490116 18.541421353816986 1.2000000000000002
      vertex 24.299999997019768 -18.417157292366028 1.2000000000000002
    endloop
  endfacet
  facet normal 0 0 -1
    outer loop
      vertex 19.399999998509884 -13.458578638732433 0
      vertex 19.399999998509884 13.458578638732433 0
      vertex 24.600000001490116 18.541421353816986 0
    endloop
  endfacet
  facet normal -1 0 0
    outer loop
      vertex 19.399999998509884 -13.458578638732433 0
      vertex 19.399999998509884 13.458578638732433 1.2000000000000002
      vertex 19.399999998509884 13.458578638732433 0
    endloop
  endfacet
  facet normal 0 0 -1
    outer loop
      vertex 11.399999998509884 21.458578646183014 0
      vertex 11.399999998509884 26.600000001490116 0
      vertex 16.541421353816986 26.600000001490116 0
    endloop
  endfacet
  facet normal 0 0 -1
    outer loop
      vertex 16.541421353816986 26.600000001490116 0
      vertex 24.600000001490116 18.541421353816986 0
      vertex 19.399999998509884 13.458578638732433 0
    endloop
  endfacet
  facet normal 0 0 -1
    outer loop
      vertex 11.399999998509884 21.458578646183014 0
      vertex 16.541421353816986 26.600000001490116 0
      vertex 19.399999998509884 13.458578638732433 0
    endloop
  endfacet
  facet normal -1 0 0
    outer loop
      vertex 11.399999998509884 21.458578646183014 0
      vertex 11.399999998509884 26.600000001490116 1.2000000000000002
      vertex 11.399999998509884 26.600000001490116 0
    endloop
  endfacet
  facet normal -0.7071067815158198 -0.7071067808572753 0
    outer loop
      vertex 11.399999998509884 21.458578646183014 0
      vertex 19.399999998509884 13.458578638732433 0
      vertex 11.399999998509884 21.458578646183014 1.2000000000000002
    endloop
  endfacet
  facet normal 0.7071067811865475 0.7071067811865475 2.8819330678622076e-16
    outer loop
      vertex 16.541421353816986 26.600000001490116 0
      vertex 24.600000001490116 18.541421353816986 1.2000000000000002
      vertex 24.600000001490116 18.541421353816986 0
    endloop
  endfacet
  facet normal 0 1 0
    outer loop
      vertex 11.399999998509884 26.600000001490116 0
      vertex 16.541421353816986 26.600000001490116 1.2000000000000002
      vertex 16.541421353816986 26.600000001490116 0
    endloop
  endfacet
  facet normal 1 0 0
    outer loop
      vertex 24.600000001490116 -18.541421353816986 1.2000000000000002
      vertex 24.600000001490116 18.541421353816986 0
      vertex 24.600000001490116 18.541421353816986 1.2000000000000002
    endloop
  endfacet
  facet normal 0 0 1
    outer loop
      vertex 19.399999998509884 -13.458578638732433 1.2000000000000002
      vertex 19.700000002980232 13.582842715084553 1.2000000000000002
      vertex 19.399999998509884 13.458578638732433 1.2000000000000002
    endloop
  endfacet
  facet normal 0 0 1
    outer loop
      vertex 24.600000001490116 18.541421353816986 1.2000000000000002
      vertex 24.299999997019768 18.417157292366028 1.2000000000000002
      vertex 24.299999997019768 -18.417157292366028 1.2000000000000002
    endloop
  endfacet
  facet normal -1 0 0
    outer loop
      vertex 11.399999998509884 21.458578646183014 0
      vertex 11.399999998509884 21.458578646183014 1.2000000000000002
      vertex 11.399999998509884 26.600000001490116 1.2000000000000002
    endloop
  endfacet
  facet normal 0 1 0
    outer loop
      vertex 11.399999998509884 26.600000001490116 0
      vertex 11.399999998509884 26.600000001490116 1.2000000000000002
      vertex 16.541421353816986 26.600000001490116 1.2000000000000002
    endloop
  endfacet
  facet normal -0.7071067815158198 -0.7071067808572753 0
    outer loop
      vertex 11.399999998509884 21.458578646183014 1.2000000000000002
      vertex 19.399999998509884 13.458578638732433 0
      vertex 19.399999998509884 13.458578638732433 1.2000000000000002
    endloop
  endfacet
  facet normal 0.7071067811865475 0.7071067811865475 0
    outer loop
      vertex 16.541421353816986 26.600000001490116 0
      vertex 16.541421353816986 26.600000001490116 1.2000000000000002
      vertex 24.600000001490116 18.541421353816986 1.2000000000000002
    endloop
  endfacet
  facet normal 0 0 1
    outer loop
      vertex 11.399999998509884 21.458578646183014 1.2000000000000002
      vertex 11.700000002980232 21.582842707633972 1.2000000000000002
      vertex 11.700000002980232 26.299999997019768 1.2000000000000002
    endloop
  endfacet
  facet normal 0 0 1
    outer loop
      vertex 11.399999998509884 21.458578646183014 1.2000000000000002
      vertex 11.700000002980232 26.299999997019768 1.2000000000000002
      vertex 11.399999998509884 26.600000001490116 1.2000000000000002
    endloop
  endfacet
  facet normal 0 0 1
    outer loop
      vertex 11.399999998509884 26.600000001490116 1.2000000000000002
      vertex 11.700000002980232 26.299999997019768 1.2000000000000002
      vertex 16.417157292366028 26.299999997019768 1.2000000000000002
    endloop
  endfacet
  facet normal 0 0 1
    outer loop
      vertex 19.399999998509884 13.458578638732433 1.2000000000000002
      vertex 19.700000002980232 13.582842715084553 1.2000000000000002
      vertex 11.700000002980232 21.582842707633972 1.2000000000000002
    endloop
  endfacet
  facet normal 0 0 1
    outer loop
      vertex 11.399999998509884 21.458578646183014 1.2000000000000002
      vertex 19.399999998509884 13.458578638732433 1.2000000000000002
      vertex 11.700000002980232 21.582842707633972 1.2000000000000002
    endloop
  endfacet
  facet normal 0 0 1
    outer loop
      vertex 16.541421353816986 26.600000001490116 1.2000000000000002
      vertex 24.299999997019768 18.417157292366028 1.2000000000000002
      vertex 24.600000001490116 18.541421353816986 1.2000000000000002
    endloop
  endfacet
  facet normal 0 0 1
    outer loop
      vertex 11.399999998509884 26.600000001490116 1.2000000000000002
      vertex 16.417157292366028 26.299999997019768 1.2000000000000002
      vertex 16.541421353816986 26.600000001490116 1.2000000000000002
    endloop
  endfacet
  facet normal 0 0 1
    outer loop
      vertex 16.541421353816986 26.600000001490116 1.2000000000000002
      vertex 16.417157292366028 26.299999997019768 1.2000000000000002
      vertex 24.299999997019768 18.417157292366028 1.2000000000000002
    endloop
  endfacet
  facet normal 0 -1 0
    outer loop
      vertex 11.700000002980232 -26.299999997019768 1.6
      vertex 11.700000002980232 -26.299999997019768 1.2000000000000002
      vertex 16.417157292366028 -26.299999997019768 1.2000000000000002
    endloop
  endfacet
  facet normal -1 0 0
    outer loop
      vertex 11.700000002980232 -21.582842707633972 1.6
      vertex 11.700000002980232 -21.582842707633972 1.2000000000000002
      vertex 11.700000002980232 -26.299999997019768 1.2000000000000002
    endloop
  endfacet
  facet normal -1 0 0
    outer loop
      vertex 11.700000002980232 -26.299999997019768 1.6
      vertex 11.700000002980232 -21.582842707633972 1.6
      vertex 11.700000002980232 -26.299999997019768 1.2000000000000002
    endloop
  endfacet
  facet normal 0 0 1
    outer loop
      vertex 11.700000002980232 -26.299999997019768 1.6
      vertex 16.417157292366028 -26.299999997019768 1.6
      vertex 11.700000002980232 -21.582842707633972 1.6
    endloop
  endfacet
  facet normal 0.7071067811865475 -0.7071067811865475 0
    outer loop
      vertex 16.417157292366028 -26.299999997019768 1.6
      vertex 16.417157292366028 -26.299999997019768 1.2000000000000002
      vertex 24.299999997019768 -18.417157292366028 1.2000000000000002
    endloop
  endfacet
  facet normal 0 -1 0
    outer loop
      vertex 11.700000002980232 -26.299999997019768 1.6
      vertex 16.417157292366028 -26.299999997019768 1.2000000000000002
      vertex 16.417157292366028 -26.299999997019768 1.6
    endloop
  endfacet
  facet normal 0.7071067811865475 -0.7071067811865475 -3.485623024133779e-16
    outer loop
      vertex 16.417157292366028 -26.299999997019768 1.6
      vertex 24.299999997019768 -18.417157292366028 1.2000000000000002
      vertex 24.299999997019768 -18.417157292366028 1.6
    endloop
  endfacet
  facet normal 0 0 1
    outer loop
      vertex 11.700000002980232 -21.582842707633972 1.6
      vertex 16.417157292366028 -26.299999997019768 1.6
      vertex 24.299999997019768 -18.417157292366028 1.6
    endloop
  endfacet
  facet normal -0.7071067808572752 0.7071067815158196 0
    outer loop
      vertex 19.700000002980232 -13.582842715084553 1.6
      vertex 19.700000002980232 -13.582842715084553 1.2000000000000002
      vertex 11.700000002980232 -21.582842707633972 1.2000000000000002
    endloop
  endfacet
  facet normal -0.7071067808572752 0.7071067815158196 0
    outer loop
      vertex 11.700000002980232 -21.582842707633972 1.6
      vertex 19.700000002980232 -13.582842715084553 1.6
      vertex 11.700000002980232 -21.582842707633972 1.2000000000000002
    endloop
  endfacet
  facet normal 0 0 1
    outer loop
      vertex 11.700000002980232 -21.582842707633972 1.6
      vertex 24.299999997019768 -18.417157292366028 1.6
      vertex 19.700000002980232 -13.582842715084553 1.6
    endloop
  endfacet
  facet normal 1 0 0
    outer loop
      vertex 24.299999997019768 -18.417157292366028 1.6
      vertex 24.299999997019768 -18.417157292366028 1.2000000000000002
      vertex 24.299999997019768 18.417157292366028 1.2000000000000002
    endloop
  endfacet
  facet normal -1 0 0
    outer loop
      vertex 19.700000002980232 -13.582842715084553 1.6
      vertex 19.700000002980232 13.582842715084553 1.6
      vertex 19.700000002980232 -13.582842715084553 1.2000000000000002
    endloop
  endfacet
  facet normal 0 0 1
    outer loop
      vertex 19.700000002980232 -13.582842715084553 1.6
      vertex 24.299999997019768 -18.417157292366028 1.6
      vertex 24.299999997019768 18.417157292366028 1.6
    endloop
  endfacet
  facet normal -1 0 0
    outer loop
      vertex 19.700000002980232 13.582842715084553 1.6
      vertex 19.700000002980232 13.582842715084553 1.2000000000000002
      vertex 19.700000002980232 -13.582842715084553 1.2000000000000002
    endloop
  endfacet
  facet normal 0 0 1
    outer loop
      vertex 19.700000002980232 -13.582842715084553 1.6
      vertex 24.299999997019768 18.417157292366028 1.6
      vertex 19.700000002980232 13.582842715084553 1.6
    endloop
  endfacet
  facet normal 1 0 0
    outer loop
      vertex 24.299999997019768 -18.417157292366028 1.6
      vertex 24.299999997019768 18.417157292366028 1.2000000000000002
      vertex 24.299999997019768 18.417157292366028 1.6
    endloop
  endfacet
  facet normal -1 0 0
    outer loop
      vertex 11.700000002980232 26.299999997019768 1.6
      vertex 11.700000002980232 26.299999997019768 1.2000000000000002
      vertex 11.700000002980232 21.582842707633972 1.2000000000000002
    endloop
  endfacet
  facet normal -1 0 0
    outer loop
      vertex 11.700000002980232 21.582842707633972 1.6
      vertex 11.700000002980232 26.299999997019768 1.6
      vertex 11.700000002980232 21.582842707633972 1.2000000000000002
    endloop
  endfacet
  facet normal 0 1 0
    outer loop
      vertex 11.700000002980232 26.299999997019768 1.6
      vertex 16.417157292366028 26.299999997019768 1.6
      vertex 11.700000002980232 26.299999997019768 1.2000000000000002
    endloop
  endfacet
  facet normal 0 0 1
    outer loop
      vertex 11.700000002980232 21.582842707633972 1.6
      vertex 16.417157292366028 26.299999997019768 1.6
      vertex 11.700000002980232 26.299999997019768 1.6
    endloop
  endfacet
  facet normal -0.7071067808572752 -0.7071067815158196 0
    outer loop
      vertex 11.700000002980232 21.582842707633972 1.6
      vertex 11.700000002980232 21.582842707633972 1.2000000000000002
      vertex 19.700000002980232 13.582842715084553 1.2000000000000002
    endloop
  endfacet
  facet normal -0.7071067808572752 -0.7071067815158196 0
    outer loop
      vertex 11.700000002980232 21.582842707633972 1.6
      vertex 19.700000002980232 13.582842715084553 1.2000000000000002
      vertex 19.700000002980232 13.582842715084553 1.6
    endloop
  endfacet
  facet normal 0 0 1
    outer loop
      vertex 11.700000002980232 21.582842707633972 1.6
      vertex 19.700000002980232 13.582842715084553 1.6
      vertex 24.299999997019768 18.417157292366028 1.6
    endloop
  endfacet
  facet normal 0.7071067811865475 0.7071067811865475 0
    outer loop
      vertex 24.299999997019768 18.417157292366028 1.6
      vertex 24.299999997019768 18.417157292366028 1.2000000000000002
      vertex 16.417157292366028 26.299999997019768 1.2000000000000002
    endloop
  endfacet
  facet normal 0 1 0
    outer loop
      vertex 16.417157292366028 26.299999997019768 1.6
      vertex 16.417157292366028 26.299999997019768 1.2000000000000002
      vertex 11.700000002980232 26.299999997019768 1.2000000000000002
    endloop
  endfacet
  facet normal 0 0 1
    outer loop
      vertex 11.700000002980232 21.582842707633972 1.6
      vertex 24.299999997019768 18.417157292366028 1.6
      vertex 16.417157292366028 26.299999997019768 1.6
    endloop
  endfacet
  facet normal 0.7071067811865475 0.7071067811865475 0
    outer loop
      vertex 16.417157292366028 26.299999997019768 1.6
      vertex 24.299999997019768 18.417157292366028 1.6
      vertex 16.417157292366028 26.299999997019768 1.2000000000000002
    endloop
  endfacet
  facet normal -0.7071067811865475 -0.7071067811865475 -1.2847972443921934e-16
    outer loop
      vertex 53.2012193351984 -17.100000001490116 0
      vertex 46.899999998509884 -10.798780664801598 1.6
      vertex 46.899999998509884 -10.798780664801598 0
    endloop
  endfacet
  facet normal -0.7071067811865475 -0.7071067811865475 0
    outer loop
      vertex 53.2012193351984 -17.100000001490116 0
      vertex 53.2012193351984 -17.100000001490116 1.6
      vertex 46.899999998509884 -10.798780664801598 1.6
    endloop
  endfacet
  facet normal -1 0 0
    outer loop
      vertex 46.899999998509884 -10.798780664801598 0
      vertex 46.899999998509884 -10.798780664801598 1.6
      vertex 46.899999998509884 10.798780664801598 1.6
    endloop
  endfacet
  facet normal 0 0 -1
    outer loop
      vertex 46.899999998509884 -10.798780664801598 0
      vertex 46.899999998509884 10.798780664801598 0
      vertex 53.2012193351984 17.100000001490116 0
    endloop
  endfacet
  facet normal -1 0 0
    outer loop
      vertex 46.899999998509884 -10.798780664801598 0
      vertex 46.899999998509884 10.798780664801598 1.6
      vertex 46.899999998509884 10.798780664801598 0
    endloop
  endfacet
  facet normal -0.7071067811865475 0.7071067811865475 1.2847972443921934e-16
    outer loop
      vertex 46.899999998509884 10.798780664801598 0
      vertex 53.2012193351984 17.100000001490116 1.6
      vertex 53.2012193351984 17.100000001490116 0
    endloop
  endfacet
  facet normal -0.7071067811865475 0.7071067811865475 0
    outer loop
      vertex 46.899999998509884 10.798780664801598 0
      vertex 46.899999998509884 10.798780664801598 1.6
      vertex 53.2012193351984 17.100000001490116 1.6
    endloop
  endfacet
  facet normal 0 0 1
    outer loop
      vertex 53.2012193351984 17.100000001490116 1.6
      vertex 46.899999998509884 10.798780664801598 1.6
      vertex 46.899999998509884 -10.798780664801598 1.6
    endloop
  endfacet
  facet normal 0 -1 0
    outer loop
      vertex 146.7987806648016 -17.100000001490116 0
      vertex 53.2012193351984 -17.100000001490116 1.6
      vertex 53.2012193351984 -17.100000001490116 0
    endloop
  endfacet
  facet normal 0 0 -1
    outer loop
      vertex 53.2012193351984 -17.100000001490116 0
      vertex 46.899999998509884 -10.798780664801598 0
      vertex 146.7987806648016 17.100000001490116 0
    endloop
  endfacet
  facet normal 0.7071067811865475 -0.7071067811865475 1.2847972443921934e-16
    outer loop
      vertex 153.10000000149012 -10.798780664801598 0
      vertex 146.7987806648016 -17.100000001490116 1.6
      vertex 146.7987806648016 -17.100000001490116 0
    endloop
  endfacet
  facet normal 0 0 -1
    outer loop
      vertex 146.7987806648016 -17.100000001490116 0
      vertex 53.2012193351984 -17.100000001490116 0
      vertex 153.10000000149012 10.798780664801598 0
    endloop
  endfacet
  facet normal 0 0 -1
    outer loop
      vertex 146.7987806648016 -17.100000001490116 0
      vertex 153.10000000149012 10.798780664801598 0
      vertex 153.10000000149012 -10.798780664801598 0
    endloop
  endfacet
  facet normal 1 0 0
    outer loop
      vertex 153.10000000149012 10.798780664801598 0
      vertex 153.10000000149012 -10.798780664801598 1.6
      vertex 153.10000000149012 -10.798780664801598 0
    endloop
  endfacet
  facet normal 0 0 1
    outer loop
      vertex 146.7987806648016 17.100000001490116 1.6
      vertex 46.899999998509884 -10.798780664801598 1.6
      vertex 53.2012193351984 -17.100000001490116 1.6
    endloop
  endfacet
  facet normal 0 -1 0
    outer loop
      vertex 146.7987806648016 -17.100000001490116 0
      vertex 146.7987806648016 -17.100000001490116 1.6
      vertex 53.2012193351984 -17.100000001490116 1.6
    endloop
  endfacet
  facet normal 0.7071067811865475 -0.7071067811865475 0
    outer loop
      vertex 153.10000000149012 -10.798780664801598 0
      vertex 153.10000000149012 -10.798780664801598 1.6
      vertex 146.7987806648016 -17.100000001490116 1.6
    endloop
  endfacet
  facet normal 0 0 1
    outer loop
      vertex 153.10000000149012 10.798780664801598 1.6
      vertex 53.2012193351984 -17.100000001490116 1.6
      vertex 146.7987806648016 -17.100000001490116 1.6
    endloop
  endfacet
  facet normal 0 0 1
    outer loop
      vertex 153.10000000149012 -10.798780664801598 1.6
      vertex 153.10000000149012 10.798780664801598 1.6
      vertex 146.7987806648016 -17.100000001490116 1.6
    endloop
  endfacet
  facet normal 0 0 -1
    outer loop
      vertex 46.899999998509884 -10.798780664801598 0
      vertex 53.2012193351984 17.100000001490116 0
      vertex 146.7987806648016 17.100000001490116 0
    endloop
  endfacet
  facet normal 0 0 -1
    outer loop
      vertex 53.2012193351984 -17.100000001490116 0
      vertex 146.7987806648016 17.100000001490116 0
      vertex 153.10000000149012 10.798780664801598 0
    endloop
  endfacet
  facet normal 0.7071067811865475 0.7071067811865475 -1.2847972443921934e-16
    outer loop
      vertex 146.7987806648016 17.100000001490116 0
      vertex 153.10000000149012 10.798780664801598 1.6
      vertex 153.10000000149012 10.798780664801598 0
    endloop
  endfacet
  facet normal 0 1 0
    outer loop
      vertex 53.2012193351984 17.100000001490116 0
      vertex 146.7987806648016 17.100000001490116 1.6
      vertex 146.7987806648016 17.100000001490116 0
    endloop
  endfacet
  facet normal 0 0 1
    outer loop
      vertex 146.7987806648016 17.100000001490116 1.6
      vertex 53.2012193351984 17.100000001490116 1.6
      vertex 46.899999998509884 -10.798780664801598 1.6
    endloop
  endfacet
  facet normal 0 1 0
    outer loop
      vertex 53.2012193351984 17.100000001490116 0
      vertex 53.2012193351984 17.100000001490116 1.6
      vertex 146.7987806648016 17.100000001490116 1.6
    endloop
  endfacet
  facet normal 1 0 0
    outer loop
      vertex 153.10000000149012 10.798780664801598 0
      vertex 153.10000000149012 10.798780664801598 1.6
      vertex 153.10000000149012 -10.798780664801598 1.6
    endloop
  endfacet
  facet normal 0 0 1
    outer loop
      vertex 153.10000000149012 10.798780664801598 1.6
      vertex 146.7987806648016 17.100000001490116 1.6
      vertex 53.2012193351984 -17.100000001490116 1.6
    endloop
  endfacet
  facet normal 0.7071067811865475 0.7071067811865475 0
    outer loop
      vertex 146.7987806648016 17.100000001490116 0
      vertex 146.7987806648016 17.100000001490116 1.6
      vertex 153.10000000149012 10.798780664801598 1.6
    endloop
  endfacet
endsolid OpenSCAD_Model
