solid OpenSCAD_Model
  facet normal 0 -1 0
    outer loop
      vertex 45.44285713881254 0 0
      vertex 37.71428571641445 0 3
      vertex 37.71428571641445 0 0
    endloop
  endfacet
  facet normal 0 -1 0
    outer loop
      vertex 45.44285713881254 0 0
      vertex 45.44285713881254 0 3
      vertex 37.71428571641445 0 3
    endloop
  endfacet
  facet normal 1 0 0
    outer loop
      vertex 45.44285713881254 5.899999998509884 0
      vertex 45.44285713881254 0 3
      vertex 45.44285713881254 0 0
    endloop
  endfacet
  facet normal 1 0 0
    outer loop
      vertex 45.44285713881254 5.899999998509884 0
      vertex 45.44285713881254 5.899999998509884 3
      vertex 45.44285713881254 0 3
    endloop
  endfacet
  facet normal 0 1 0
    outer loop
      vertex 44.24285714328289 5.899999998509884 0
      vertex 45.44285713881254 5.899999998509884 3
      vertex 45.44285713881254 5.899999998509884 0
    endloop
  endfacet
  facet normal 0 1 0
    outer loop
      vertex 44.24285714328289 5.899999998509884 0
      vertex 44.24285714328289 5.899999998509884 3
      vertex 45.44285713881254 5.899999998509884 3
    endloop
  endfacet
  facet normal 1 0 0
    outer loop
      vertex 44.24285714328289 8 0
      vertex 44.24285714328289 5.899999998509884 3
      vertex 44.24285714328289 5.899999998509884 0
    endloop
  endfacet
  facet normal 1 0 0
    outer loop
      vertex 44.24285714328289 8 0
      vertex 44.24285714328289 8 3
      vertex 44.24285714328289 5.899999998509884 3
    endloop
  endfacet
  facet normal 0 -1 0
    outer loop
      vertex 50.04285714030266 8 0
      vertex 44.24285714328289 8 3
      vertex 44.24285714328289 8 0
    endloop
  endfacet
  facet normal 0 -1 0
    outer loop
      vertex 50.04285714030266 8 0
      vertex 50.04285714030266 8 3
      vertex 44.24285714328289 8 3
    endloop
  endfacet
  facet normal -1 0 0
    outer loop
      vertex 50.04285714030266 5.899999998509884 0
      vertex 50.04285714030266 8 3
      vertex 50.04285714030266 8 0
    endloop
  endfacet
  facet normal -1 0 0
    outer loop
      vertex 50.04285714030266 5.899999998509884 0
      vertex 50.04285714030266 5.899999998509884 3
      vertex 50.04285714030266 8 3
    endloop
  endfacet
  facet normal 0 1 0
    outer loop
      vertex 48.842857144773006 5.899999998509884 0
      vertex 50.04285714030266 5.899999998509884 3
      vertex 50.04285714030266 5.899999998509884 0
    endloop
  endfacet
  facet normal 0 1 0
    outer loop
      vertex 48.842857144773006 5.899999998509884 0
      vertex 48.842857144773006 5.899999998509884 3
      vertex 50.04285714030266 5.899999998509884 3
    endloop
  endfacet
  facet normal -1 0 0
    outer loop
      vertex 48.842857144773006 0 0
      vertex 48.842857144773006 5.899999998509884 3
      vertex 48.842857144773006 5.899999998509884 0
    endloop
  endfacet
  facet normal -1 0 0
    outer loop
      vertex 48.842857144773006 0 0
      vertex 48.842857144773006 0 3
      vertex 48.842857144773006 5.899999998509884 3
    endloop
  endfacet
  facet normal 0 -1 0
    outer loop
      vertex 56.57142857462168 0 0
      vertex 48.842857144773006 0 3
      vertex 48.842857144773006 0 0
    endloop
  endfacet
  facet normal 0 -1 0
    outer loop
      vertex 56.57142857462168 0 0
      vertex 56.57142857462168 0 3
      vertex 48.842857144773006 0 3
    endloop
  endfacet
  facet normal -1 0 0
    outer loop
      vertex 56.57142857462168 -3.0099999979138374 0
      vertex 56.57142857462168 0 3
      vertex 56.57142857462168 0 0
    endloop
  endfacet
  facet normal -1 0 0
    outer loop
      vertex 56.57142857462168 -3.0099999979138374 0
      vertex 56.57142857462168 -3.0099999979138374 3
      vertex 56.57142857462168 0 3
    endloop
  endfacet
  facet normal 0 -1 0
    outer loop
      vertex 75.42857142537832 -3.0099999979138374 0
      vertex 56.57142857462168 -3.0099999979138374 3
      vertex 56.57142857462168 -3.0099999979138374 0
    endloop
  endfacet
  facet normal 0 -1 0
    outer loop
      vertex 75.42857142537832 -3.0099999979138374 0
      vertex 75.42857142537832 -3.0099999979138374 3
      vertex 56.57142857462168 -3.0099999979138374 3
    endloop
  endfacet
  facet normal 1 0 0
    outer loop
      vertex 75.42857142537832 0 0
      vertex 75.42857142537832 -3.0099999979138374 3
      vertex 75.42857142537832 -3.0099999979138374 0
    endloop
  endfacet
  facet normal 1 0 0
    outer loop
      vertex 75.42857142537832 0 0
      vertex 75.42857142537832 0 3
      vertex 75.42857142537832 -3.0099999979138374 3
    endloop
  endfacet
  facet normal 0 -1 0
    outer loop
      vertex 83.157142855227 0 0
      vertex 75.42857142537832 0 3
      vertex 75.42857142537832 0 0
    endloop
  endfacet
  facet normal 0 -1 0
    outer loop
      vertex 83.157142855227 0 0
      vertex 83.157142855227 0 3
      vertex 75.42857142537832 0 3
    endloop
  endfacet
  facet normal 1 0 0
    outer loop
      vertex 83.157142855227 5.899999998509884 0
      vertex 83.157142855227 0 3
      vertex 83.157142855227 0 0
    endloop
  endfacet
  facet normal 1 0 0
    outer loop
      vertex 83.157142855227 5.899999998509884 0
      vertex 83.157142855227 5.899999998509884 3
      vertex 83.157142855227 0 3
    endloop
  endfacet
  facet normal 0 1 0
    outer loop
      vertex 81.95714285969734 5.899999998509884 0
      vertex 83.157142855227 5.899999998509884 3
      vertex 83.157142855227 5.899999998509884 0
    endloop
  endfacet
  facet normal 0 1 0
    outer loop
      vertex 81.95714285969734 5.899999998509884 0
      vertex 81.95714285969734 5.899999998509884 3
      vertex 83.157142855227 5.899999998509884 3
    endloop
  endfacet
  facet normal 1 0 0
    outer loop
      vertex 81.95714285969734 8 0
      vertex 81.95714285969734 5.899999998509884 3
      vertex 81.95714285969734 5.899999998509884 0
    endloop
  endfacet
  facet normal 1 0 0
    outer loop
      vertex 81.95714285969734 8 0
      vertex 81.95714285969734 8 3
      vertex 81.95714285969734 5.899999998509884 3
    endloop
  endfacet
  facet normal 0 -1 0
    outer loop
      vertex 87.75714285671711 8 0
      vertex 81.95714285969734 8 3
      vertex 81.95714285969734 8 0
    endloop
  endfacet
  facet normal 0 -1 0
    outer loop
      vertex 87.75714285671711 8 0
      vertex 87.75714285671711 8 3
      vertex 81.95714285969734 8 3
    endloop
  endfacet
  facet normal -1 0 0
    outer loop
      vertex 87.75714285671711 5.899999998509884 0
      vertex 87.75714285671711 8 3
      vertex 87.75714285671711 8 0
    endloop
  endfacet
  facet normal -1 0 0
    outer loop
      vertex 87.75714285671711 5.899999998509884 0
      vertex 87.75714285671711 5.899999998509884 3
      vertex 87.75714285671711 8 3
    endloop
  endfacet
  facet normal 0 1 0
    outer loop
      vertex 86.55714286118746 5.899999998509884 0
      vertex 87.75714285671711 5.899999998509884 3
      vertex 87.75714285671711 5.899999998509884 0
    endloop
  endfacet
  facet normal 0 1 0
    outer loop
      vertex 86.55714286118746 5.899999998509884 0
      vertex 86.55714286118746 5.899999998509884 3
      vertex 87.75714285671711 5.899999998509884 3
    endloop
  endfacet
  facet normal -1 0 0
    outer loop
      vertex 86.55714286118746 0 0
      vertex 86.55714286118746 5.899999998509884 3
      vertex 86.55714286118746 5.899999998509884 0
    endloop
  endfacet
  facet normal -1 0 0
    outer loop
      vertex 86.55714286118746 0 0
      vertex 86.55714286118746 0 3
      vertex 86.55714286118746 5.899999998509884 3
    endloop
  endfacet
  facet normal 0 -1 0
    outer loop
      vertex 94.28571428358555 0 0
      vertex 86.55714286118746 0 3
      vertex 86.55714286118746 0 0
    endloop
  endfacet
  facet normal 0 -1 0
    outer loop
      vertex 94.28571428358555 0 0
      vertex 94.28571428358555 0 3
      vertex 86.55714286118746 0 3
    endloop
  endfacet
  facet normal -1 0 0
    outer loop
      vertex 94.28571428358555 -3.0099999979138374 0
      vertex 94.28571428358555 0 3
      vertex 94.28571428358555 0 0
    endloop
  endfacet
  facet normal -1 0 0
    outer loop
      vertex 94.28571428358555 -3.0099999979138374 0
      vertex 94.28571428358555 -3.0099999979138374 3
      vertex 94.28571428358555 0 3
    endloop
  endfacet
  facet normal 0 -1 0
    outer loop
      vertex 113.14285714179277 -3.0099999979138374 0
      vertex 94.28571428358555 -3.0099999979138374 3
      vertex 94.28571428358555 -3.0099999979138374 0
    endloop
  endfacet
  facet normal 0 -1 0
    outer loop
      vertex 113.14285714179277 -3.0099999979138374 0
      vertex 113.14285714179277 -3.0099999979138374 3
      vertex 94.28571428358555 -3.0099999979138374 3
    endloop
  endfacet
  facet normal 1 0 0
    outer loop
      vertex 113.14285714179277 0 0
      vertex 113.14285714179277 -3.0099999979138374 3
      vertex 113.14285714179277 -3.0099999979138374 0
    endloop
  endfacet
  facet normal 1 0 0
    outer loop
      vertex 113.14285714179277 0 0
      vertex 113.14285714179277 0 3
      vertex 113.14285714179277 -3.0099999979138374 3
    endloop
  endfacet
  facet normal 0 -1 0
    outer loop
      vertex 132 0 0
      vertex 113.14285714179277 0 3
      vertex 113.14285714179277 0 0
    endloop
  endfacet
  facet normal 0 -1 0
    outer loop
      vertex 132 0 0
      vertex 132 0 3
      vertex 113.14285714179277 0 3
    endloop
  endfacet
  facet normal 1 0 0
    outer loop
      vertex 132 12.857142858207226 0
      vertex 132 0 3
      vertex 132 0 0
    endloop
  endfacet
  facet normal 1 0 0
    outer loop
      vertex 132 12.857142858207226 0
      vertex 132 12.857142858207226 3
      vertex 132 0 3
    endloop
  endfacet
  facet normal 0 -1 0
    outer loop
      vertex 135 12.857142858207226 0
      vertex 132 12.857142858207226 3
      vertex 132 12.857142858207226 0
    endloop
  endfacet
  facet normal 0 -1 0
    outer loop
      vertex 135 12.857142858207226 0
      vertex 135 12.857142858207226 3
      vertex 132 12.857142858207226 3
    endloop
  endfacet
  facet normal 1 0 0
    outer loop
      vertex 135 25.71428571641445 0
      vertex 135 12.857142858207226 3
      vertex 135 12.857142858207226 0
    endloop
  endfacet
  facet normal 1 0 0
    outer loop
      vertex 135 25.71428571641445 0
      vertex 135 25.71428571641445 3
      vertex 135 12.857142858207226 3
    endloop
  endfacet
  facet normal 0 1 0
    outer loop
      vertex 132 25.71428571641445 0
      vertex 135 25.71428571641445 3
      vertex 135 25.71428571641445 0
    endloop
  endfacet
  facet normal 0 1 0
    outer loop
      vertex 132 25.71428571641445 0
      vertex 132 25.71428571641445 3
      vertex 135 25.71428571641445 3
    endloop
  endfacet
  facet normal 1 0 0
    outer loop
      vertex 132 30.442857138812542 0
      vertex 132 25.71428571641445 3
      vertex 132 25.71428571641445 0
    endloop
  endfacet
  facet normal 1 0 0
    outer loop
      vertex 132 30.442857138812542 0
      vertex 132 30.442857138812542 3
      vertex 132 25.71428571641445 3
    endloop
  endfacet
  facet normal 0 1 0
    outer loop
      vertex 126.10000000149012 30.442857138812542 0
      vertex 132 30.442857138812542 3
      vertex 132 30.442857138812542 0
    endloop
  endfacet
  facet normal 0 1 0
    outer loop
      vertex 126.10000000149012 30.442857138812542 0
      vertex 126.10000000149012 30.442857138812542 3
      vertex 132 30.442857138812542 3
    endloop
  endfacet
  facet normal -1 0 0
    outer loop
      vertex 126.10000000149012 29.24285714328289 0
      vertex 126.10000000149012 30.442857138812542 3
      vertex 126.10000000149012 30.442857138812542 0
    endloop
  endfacet
  facet normal -1 0 0
    outer loop
      vertex 126.10000000149012 29.24285714328289 0
      vertex 126.10000000149012 29.24285714328289 3
      vertex 126.10000000149012 30.442857138812542 3
    endloop
  endfacet
  facet normal 0 1 0
    outer loop
      vertex 124 29.24285714328289 0
      vertex 126.10000000149012 29.24285714328289 3
      vertex 126.10000000149012 29.24285714328289 0
    endloop
  endfacet
  facet normal 0 1 0
    outer loop
      vertex 124 29.24285714328289 0
      vertex 124 29.24285714328289 3
      vertex 126.10000000149012 29.24285714328289 3
    endloop
  endfacet
  facet normal 1 0 0
    outer loop
      vertex 124 35.04285714030266 0
      vertex 124 29.24285714328289 3
      vertex 124 29.24285714328289 0
    endloop
  endfacet
  facet normal 1 0 0
    outer loop
      vertex 124 35.04285714030266 0
      vertex 124 35.04285714030266 3
      vertex 124 29.24285714328289 3
    endloop
  endfacet
  facet normal 0 -1 0
    outer loop
      vertex 126.10000000149012 35.04285714030266 0
      vertex 124 35.04285714030266 3
      vertex 124 35.04285714030266 0
    endloop
  endfacet
  facet normal 0 -1 0
    outer loop
      vertex 126.10000000149012 35.04285714030266 0
      vertex 126.10000000149012 35.04285714030266 3
      vertex 124 35.04285714030266 3
    endloop
  endfacet
  facet normal -1 0 0
    outer loop
      vertex 126.10000000149012 33.842857144773006 0
      vertex 126.10000000149012 35.04285714030266 3
      vertex 126.10000000149012 35.04285714030266 0
    endloop
  endfacet
  facet normal -1 0 0
    outer loop
      vertex 126.10000000149012 33.842857144773006 0
      vertex 126.10000000149012 33.842857144773006 3
      vertex 126.10000000149012 35.04285714030266 3
    endloop
  endfacet
  facet normal 0 -1 0
    outer loop
      vertex 132 33.842857144773006 0
      vertex 126.10000000149012 33.842857144773006 3
      vertex 126.10000000149012 33.842857144773006 0
    endloop
  endfacet
  facet normal 0 -1 0
    outer loop
      vertex 132 33.842857144773006 0
      vertex 132 33.842857144773006 3
      vertex 126.10000000149012 33.842857144773006 3
    endloop
  endfacet
  facet normal 1 0 0
    outer loop
      vertex 132 38.57142857462168 0
      vertex 132 33.842857144773006 3
      vertex 132 33.842857144773006 0
    endloop
  endfacet
  facet normal 1 0 0
    outer loop
      vertex 132 38.57142857462168 0
      vertex 132 38.57142857462168 3
      vertex 132 33.842857144773006 3
    endloop
  endfacet
  facet normal 0 -1 0
    outer loop
      vertex 135 38.57142857462168 0
      vertex 132 38.57142857462168 3
      vertex 132 38.57142857462168 0
    endloop
  endfacet
  facet normal 0 -1 0
    outer loop
      vertex 135 38.57142857462168 0
      vertex 135 38.57142857462168 3
      vertex 132 38.57142857462168 3
    endloop
  endfacet
  facet normal 1 0 0
    outer loop
      vertex 135 51.42857142537832 0
      vertex 135 38.57142857462168 3
      vertex 135 38.57142857462168 0
    endloop
  endfacet
  facet normal 1 0 0
    outer loop
      vertex 135 51.42857142537832 0
      vertex 135 51.42857142537832 3
      vertex 135 38.57142857462168 3
    endloop
  endfacet
  facet normal 0 1 0
    outer loop
      vertex 132 51.42857142537832 0
      vertex 135 51.42857142537832 3
      vertex 135 51.42857142537832 0
    endloop
  endfacet
  facet normal 0 1 0
    outer loop
      vertex 132 51.42857142537832 0
      vertex 132 51.42857142537832 3
      vertex 135 51.42857142537832 3
    endloop
  endfacet
  facet normal 1 0 0
    outer loop
      vertex 132 56.157142855226994 0
      vertex 132 51.42857142537832 3
      vertex 132 51.42857142537832 0
    endloop
  endfacet
  facet normal 1 0 0
    outer loop
      vertex 132 56.157142855226994 0
      vertex 132 56.157142855226994 3
      vertex 132 51.42857142537832 3
    endloop
  endfacet
  facet normal 0 1 0
    outer loop
      vertex 126.10000000149012 56.157142855226994 0
      vertex 132 56.157142855226994 3
      vertex 132 56.157142855226994 0
    endloop
  endfacet
  facet normal 0 1 0
    outer loop
      vertex 126.10000000149012 56.157142855226994 0
      vertex 126.10000000149012 56.157142855226994 3
      vertex 132 56.157142855226994 3
    endloop
  endfacet
  facet normal -1 0 0
    outer loop
      vertex 126.10000000149012 54.95714285969734 0
      vertex 126.10000000149012 56.157142855226994 3
      vertex 126.10000000149012 56.157142855226994 0
    endloop
  endfacet
  facet normal -1 0 0
    outer loop
      vertex 126.10000000149012 54.95714285969734 0
      vertex 126.10000000149012 54.95714285969734 3
      vertex 126.10000000149012 56.157142855226994 3
    endloop
  endfacet
  facet normal 0 1 0
    outer loop
      vertex 124 54.95714285969734 0
      vertex 126.10000000149012 54.95714285969734 3
      vertex 126.10000000149012 54.95714285969734 0
    endloop
  endfacet
  facet normal 0 1 0
    outer loop
      vertex 124 54.95714285969734 0
      vertex 124 54.95714285969734 3
      vertex 126.10000000149012 54.95714285969734 3
    endloop
  endfacet
  facet normal 1 0 0
    outer loop
      vertex 124 60.75714285671711 0
      vertex 124 54.95714285969734 3
      vertex 124 54.95714285969734 0
    endloop
  endfacet
  facet normal 1 0 0
    outer loop
      vertex 124 60.75714285671711 0
      vertex 124 60.75714285671711 3
      vertex 124 54.95714285969734 3
    endloop
  endfacet
  facet normal 0 -1 0
    outer loop
      vertex 126.10000000149012 60.75714285671711 0
      vertex 124 60.75714285671711 3
      vertex 124 60.75714285671711 0
    endloop
  endfacet
  facet normal 0 -1 0
    outer loop
      vertex 126.10000000149012 60.75714285671711 0
      vertex 126.10000000149012 60.75714285671711 3
      vertex 124 60.75714285671711 3
    endloop
  endfacet
  facet normal -1 0 0
    outer loop
      vertex 126.10000000149012 59.55714286118746 0
      vertex 126.10000000149012 60.75714285671711 3
      vertex 126.10000000149012 60.75714285671711 0
    endloop
  endfacet
  facet normal -1 0 0
    outer loop
      vertex 126.10000000149012 59.55714286118746 0
      vertex 126.10000000149012 59.55714286118746 3
      vertex 126.10000000149012 60.75714285671711 3
    endloop
  endfacet
  facet normal 0 -1 0
    outer loop
      vertex 132 59.55714286118746 0
      vertex 126.10000000149012 59.55714286118746 3
      vertex 126.10000000149012 59.55714286118746 0
    endloop
  endfacet
  facet normal 0 -1 0
    outer loop
      vertex 132 59.55714286118746 0
      vertex 132 59.55714286118746 3
      vertex 126.10000000149012 59.55714286118746 3
    endloop
  endfacet
  facet normal 1 0 0
    outer loop
      vertex 132 64.28571428358555 0
      vertex 132 59.55714286118746 3
      vertex 132 59.55714286118746 0
    endloop
  endfacet
  facet normal 1 0 0
    outer loop
      vertex 132 64.28571428358555 0
      vertex 132 64.28571428358555 3
      vertex 132 59.55714286118746 3
    endloop
  endfacet
  facet normal 0 -1 0
    outer loop
      vertex 135 64.28571428358555 0
      vertex 132 64.28571428358555 3
      vertex 132 64.28571428358555 0
    endloop
  endfacet
  facet normal 0 -1 0
    outer loop
      vertex 135 64.28571428358555 0
      vertex 135 64.28571428358555 3
      vertex 132 64.28571428358555 3
    endloop
  endfacet
  facet normal 1 0 0
    outer loop
      vertex 135 77.14285714179277 0
      vertex 135 64.28571428358555 3
      vertex 135 64.28571428358555 0
    endloop
  endfacet
  facet normal 1 0 0
    outer loop
      vertex 135 77.14285714179277 0
      vertex 135 77.14285714179277 3
      vertex 135 64.28571428358555 3
    endloop
  endfacet
  facet normal 0 1 0
    outer loop
      vertex 132 77.14285714179277 0
      vertex 135 77.14285714179277 3
      vertex 135 77.14285714179277 0
    endloop
  endfacet
  facet normal 0 1 0
    outer loop
      vertex 132 77.14285714179277 0
      vertex 132 77.14285714179277 3
      vertex 135 77.14285714179277 3
    endloop
  endfacet
  facet normal 1 0 0
    outer loop
      vertex 132 90 0
      vertex 132 77.14285714179277 3
      vertex 132 77.14285714179277 0
    endloop
  endfacet
  facet normal 1 0 0
    outer loop
      vertex 132 90 0
      vertex 132 90 3
      vertex 132 77.14285714179277 3
    endloop
  endfacet
  facet normal 0 1 0
    outer loop
      vertex 113.14285714179277 90 0
      vertex 132 90 3
      vertex 132 90 0
    endloop
  endfacet
  facet normal 0 1 0
    outer loop
      vertex 113.14285714179277 90 0
      vertex 113.14285714179277 90 3
      vertex 132 90 3
    endloop
  endfacet
  facet normal 1 0 0
    outer loop
      vertex 113.14285714179277 93.00999999791384 0
      vertex 113.14285714179277 90 3
      vertex 113.14285714179277 90 0
    endloop
  endfacet
  facet normal 1 0 0
    outer loop
      vertex 113.14285714179277 93.00999999791384 0
      vertex 113.14285714179277 93.00999999791384 3
      vertex 113.14285714179277 90 3
    endloop
  endfacet
  facet normal 0 1 0
    outer loop
      vertex 94.28571428358555 93.00999999791384 0
      vertex 113.14285714179277 93.00999999791384 3
      vertex 113.14285714179277 93.00999999791384 0
    endloop
  endfacet
  facet normal 0 1 0
    outer loop
      vertex 94.28571428358555 93.00999999791384 0
      vertex 94.28571428358555 93.00999999791384 3
      vertex 113.14285714179277 93.00999999791384 3
    endloop
  endfacet
  facet normal -1 0 0
    outer loop
      vertex 94.28571428358555 90 0
      vertex 94.28571428358555 93.00999999791384 3
      vertex 94.28571428358555 93.00999999791384 0
    endloop
  endfacet
  facet normal -1 0 0
    outer loop
      vertex 94.28571428358555 90 0
      vertex 94.28571428358555 90 3
      vertex 94.28571428358555 93.00999999791384 3
    endloop
  endfacet
  facet normal 0 1 0
    outer loop
      vertex 86.55714286118746 90 0
      vertex 94.28571428358555 90 3
      vertex 94.28571428358555 90 0
    endloop
  endfacet
  facet normal 0 1 0
    outer loop
      vertex 86.55714286118746 90 0
      vertex 86.55714286118746 90 3
      vertex 94.28571428358555 90 3
    endloop
  endfacet
  facet normal -1 0 0
    outer loop
      vertex 86.55714286118746 84.10000000149012 0
      vertex 86.55714286118746 90 3
      vertex 86.55714286118746 90 0
    endloop
  endfacet
  facet normal -1 0 0
    outer loop
      vertex 86.55714286118746 84.10000000149012 0
      vertex 86.55714286118746 84.10000000149012 3
      vertex 86.55714286118746 90 3
    endloop
  endfacet
  facet normal 0 -1 0
    outer loop
      vertex 87.75714285671711 84.10000000149012 0
      vertex 86.55714286118746 84.10000000149012 3
      vertex 86.55714286118746 84.10000000149012 0
    endloop
  endfacet
  facet normal 0 -1 0
    outer loop
      vertex 87.75714285671711 84.10000000149012 0
      vertex 87.75714285671711 84.10000000149012 3
      vertex 86.55714286118746 84.10000000149012 3
    endloop
  endfacet
  facet normal -1 0 0
    outer loop
      vertex 87.75714285671711 82 0
      vertex 87.75714285671711 84.10000000149012 3
      vertex 87.75714285671711 84.10000000149012 0
    endloop
  endfacet
  facet normal -1 0 0
    outer loop
      vertex 87.75714285671711 82 0
      vertex 87.75714285671711 82 3
      vertex 87.75714285671711 84.10000000149012 3
    endloop
  endfacet
  facet normal 0 1 0
    outer loop
      vertex 81.95714285969734 82 0
      vertex 87.75714285671711 82 3
      vertex 87.75714285671711 82 0
    endloop
  endfacet
  facet normal 0 1 0
    outer loop
      vertex 81.95714285969734 82 0
      vertex 81.95714285969734 82 3
      vertex 87.75714285671711 82 3
    endloop
  endfacet
  facet normal 1 0 0
    outer loop
      vertex 81.95714285969734 84.10000000149012 0
      vertex 81.95714285969734 82 3
      vertex 81.95714285969734 82 0
    endloop
  endfacet
  facet normal 1 0 0
    outer loop
      vertex 81.95714285969734 84.10000000149012 0
      vertex 81.95714285969734 84.10000000149012 3
      vertex 81.95714285969734 82 3
    endloop
  endfacet
  facet normal 0 -1 0
    outer loop
      vertex 83.157142855227 84.10000000149012 0
      vertex 81.95714285969734 84.10000000149012 3
      vertex 81.95714285969734 84.10000000149012 0
    endloop
  endfacet
  facet normal 0 -1 0
    outer loop
      vertex 83.157142855227 84.10000000149012 0
      vertex 83.157142855227 84.10000000149012 3
      vertex 81.95714285969734 84.10000000149012 3
    endloop
  endfacet
  facet normal 1 0 0
    outer loop
      vertex 83.157142855227 90 0
      vertex 83.157142855227 84.10000000149012 3
      vertex 83.157142855227 84.10000000149012 0
    endloop
  endfacet
  facet normal 1 0 0
    outer loop
      vertex 83.157142855227 90 0
      vertex 83.157142855227 90 3
      vertex 83.157142855227 84.10000000149012 3
    endloop
  endfacet
  facet normal 0 1 0
    outer loop
      vertex 75.42857142537832 90 0
      vertex 83.157142855227 90 3
      vertex 83.157142855227 90 0
    endloop
  endfacet
  facet normal 0 1 0
    outer loop
      vertex 75.42857142537832 90 0
      vertex 75.42857142537832 90 3
      vertex 83.157142855227 90 3
    endloop
  endfacet
  facet normal 1 0 0
    outer loop
      vertex 75.42857142537832 93.00999999791384 0
      vertex 75.42857142537832 90 3
      vertex 75.42857142537832 90 0
    endloop
  endfacet
  facet normal 1 0 0
    outer loop
      vertex 75.42857142537832 93.00999999791384 0
      vertex 75.42857142537832 93.00999999791384 3
      vertex 75.42857142537832 90 3
    endloop
  endfacet
  facet normal 0 1 0
    outer loop
      vertex 56.57142857462168 93.00999999791384 0
      vertex 75.42857142537832 93.00999999791384 3
      vertex 75.42857142537832 93.00999999791384 0
    endloop
  endfacet
  facet normal 0 1 0
    outer loop
      vertex 56.57142857462168 93.00999999791384 0
      vertex 56.57142857462168 93.00999999791384 3
      vertex 75.42857142537832 93.00999999791384 3
    endloop
  endfacet
  facet normal -1 0 0
    outer loop
      vertex 56.57142857462168 90 0
      vertex 56.57142857462168 93.00999999791384 3
      vertex 56.57142857462168 93.00999999791384 0
    endloop
  endfacet
  facet normal -1 0 0
    outer loop
      vertex 56.57142857462168 90 0
      vertex 56.57142857462168 90 3
      vertex 56.57142857462168 93.00999999791384 3
    endloop
  endfacet
  facet normal 0 1 0
    outer loop
      vertex 48.842857144773006 90 0
      vertex 56.57142857462168 90 3
      vertex 56.57142857462168 90 0
    endloop
  endfacet
  facet normal 0 1 0
    outer loop
      vertex 48.842857144773006 90 0
      vertex 48.842857144773006 90 3
      vertex 56.57142857462168 90 3
    endloop
  endfacet
  facet normal -1 0 0
    outer loop
      vertex 48.842857144773006 84.10000000149012 0
      vertex 48.842857144773006 90 3
      vertex 48.842857144773006 90 0
    endloop
  endfacet
  facet normal -1 0 0
    outer loop
      vertex 48.842857144773006 84.10000000149012 0
      vertex 48.842857144773006 84.10000000149012 3
      vertex 48.842857144773006 90 3
    endloop
  endfacet
  facet normal 0 -1 0
    outer loop
      vertex 50.04285714030266 84.10000000149012 0
      vertex 48.842857144773006 84.10000000149012 3
      vertex 48.842857144773006 84.10000000149012 0
    endloop
  endfacet
  facet normal 0 -1 0
    outer loop
      vertex 50.04285714030266 84.10000000149012 0
      vertex 50.04285714030266 84.10000000149012 3
      vertex 48.842857144773006 84.10000000149012 3
    endloop
  endfacet
  facet normal -1 0 0
    outer loop
      vertex 50.04285714030266 82 0
      vertex 50.04285714030266 84.10000000149012 3
      vertex 50.04285714030266 84.10000000149012 0
    endloop
  endfacet
  facet normal -1 0 0
    outer loop
      vertex 50.04285714030266 82 0
      vertex 50.04285714030266 82 3
      vertex 50.04285714030266 84.10000000149012 3
    endloop
  endfacet
  facet normal 0 1 0
    outer loop
      vertex 44.24285714328289 82 0
      vertex 50.04285714030266 82 3
      vertex 50.04285714030266 82 0
    endloop
  endfacet
  facet normal 0 1 0
    outer loop
      vertex 44.24285714328289 82 0
      vertex 44.24285714328289 82 3
      vertex 50.04285714030266 82 3
    endloop
  endfacet
  facet normal 1 0 0
    outer loop
      vertex 44.24285714328289 84.10000000149012 0
      vertex 44.24285714328289 82 3
      vertex 44.24285714328289 82 0
    endloop
  endfacet
  facet normal 1 0 0
    outer loop
      vertex 44.24285714328289 84.10000000149012 0
      vertex 44.24285714328289 84.10000000149012 3
      vertex 44.24285714328289 82 3
    endloop
  endfacet
  facet normal 0 -1 0
    outer loop
      vertex 45.44285713881254 84.10000000149012 0
      vertex 44.24285714328289 84.10000000149012 3
      vertex 44.24285714328289 84.10000000149012 0
    endloop
  endfacet
  facet normal 0 -1 0
    outer loop
      vertex 45.44285713881254 84.10000000149012 0
      vertex 45.44285713881254 84.10000000149012 3
      vertex 44.24285714328289 84.10000000149012 3
    endloop
  endfacet
  facet normal 1 0 0
    outer loop
      vertex 45.44285713881254 90 0
      vertex 45.44285713881254 84.10000000149012 3
      vertex 45.44285713881254 84.10000000149012 0
    endloop
  endfacet
  facet normal 1 0 0
    outer loop
      vertex 45.44285713881254 90 0
      vertex 45.44285713881254 90 3
      vertex 45.44285713881254 84.10000000149012 3
    endloop
  endfacet
  facet normal 0 1 0
    outer loop
      vertex 37.71428571641445 90 0
      vertex 45.44285713881254 90 3
      vertex 45.44285713881254 90 0
    endloop
  endfacet
  facet normal 0 1 0
    outer loop
      vertex 37.71428571641445 90 0
      vertex 37.71428571641445 90 3
      vertex 45.44285713881254 90 3
    endloop
  endfacet
  facet normal 1 0 0
    outer loop
      vertex 37.71428571641445 93.00999999791384 0
      vertex 37.71428571641445 90 3
      vertex 37.71428571641445 90 0
    endloop
  endfacet
  facet normal 1 0 0
    outer loop
      vertex 37.71428571641445 93.00999999791384 0
      vertex 37.71428571641445 93.00999999791384 3
      vertex 37.71428571641445 90 3
    endloop
  endfacet
  facet normal 0 1 0
    outer loop
      vertex 18.857142858207226 93.00999999791384 0
      vertex 37.71428571641445 93.00999999791384 3
      vertex 37.71428571641445 93.00999999791384 0
    endloop
  endfacet
  facet normal 0 1 0
    outer loop
      vertex 18.857142858207226 93.00999999791384 0
      vertex 18.857142858207226 93.00999999791384 3
      vertex 37.71428571641445 93.00999999791384 3
    endloop
  endfacet
  facet normal -1 0 0
    outer loop
      vertex 18.857142858207226 90 0
      vertex 18.857142858207226 93.00999999791384 3
      vertex 18.857142858207226 93.00999999791384 0
    endloop
  endfacet
  facet normal -1 0 0
    outer loop
      vertex 18.857142858207226 90 0
      vertex 18.857142858207226 90 3
      vertex 18.857142858207226 93.00999999791384 3
    endloop
  endfacet
  facet normal 0 1 0
    outer loop
      vertex 0 90 0
      vertex 18.857142858207226 90 3
      vertex 18.857142858207226 90 0
    endloop
  endfacet
  facet normal 0 1 0
    outer loop
      vertex 0 90 0
      vertex 0 90 3
      vertex 18.857142858207226 90 3
    endloop
  endfacet
  facet normal -1 0 0
    outer loop
      vertex 0 77.14285714179277 0
      vertex 0 90 3
      vertex 0 90 0
    endloop
  endfacet
  facet normal -1 0 0
    outer loop
      vertex 0 77.14285714179277 0
      vertex 0 77.14285714179277 3
      vertex 0 90 3
    endloop
  endfacet
  facet normal 0 1 0
    outer loop
      vertex -3 77.14285714179277 0
      vertex 0 77.14285714179277 3
      vertex 0 77.14285714179277 0
    endloop
  endfacet
  facet normal 0 1 0
    outer loop
      vertex -3 77.14285714179277 0
      vertex -3 77.14285714179277 3
      vertex 0 77.14285714179277 3
    endloop
  endfacet
  facet normal -1 0 0
    outer loop
      vertex -3 64.28571428358555 0
      vertex -3 77.14285714179277 3
      vertex -3 77.14285714179277 0
    endloop
  endfacet
  facet normal -1 0 0
    outer loop
      vertex -3 64.28571428358555 0
      vertex -3 64.28571428358555 3
      vertex -3 77.14285714179277 3
    endloop
  endfacet
  facet normal 0 -1 0
    outer loop
      vertex 0 64.28571428358555 0
      vertex -3 64.28571428358555 3
      vertex -3 64.28571428358555 0
    endloop
  endfacet
  facet normal 0 -1 0
    outer loop
      vertex 0 64.28571428358555 0
      vertex 0 64.28571428358555 3
      vertex -3 64.28571428358555 3
    endloop
  endfacet
  facet normal -1 0 0
    outer loop
      vertex 0 59.55714286118746 0
      vertex 0 64.28571428358555 3
      vertex 0 64.28571428358555 0
    endloop
  endfacet
  facet normal -1 0 0
    outer loop
      vertex 0 59.55714286118746 0
      vertex 0 59.55714286118746 3
      vertex 0 64.28571428358555 3
    endloop
  endfacet
  facet normal 0 -1 0
    outer loop
      vertex 5.899999998509884 59.55714286118746 0
      vertex 0 59.55714286118746 3
      vertex 0 59.55714286118746 0
    endloop
  endfacet
  facet normal 0 -1 0
    outer loop
      vertex 5.899999998509884 59.55714286118746 0
      vertex 5.899999998509884 59.55714286118746 3
      vertex 0 59.55714286118746 3
    endloop
  endfacet
  facet normal 1 0 0
    outer loop
      vertex 5.899999998509884 60.75714285671711 0
      vertex 5.899999998509884 59.55714286118746 3
      vertex 5.899999998509884 59.55714286118746 0
    endloop
  endfacet
  facet normal 1 0 0
    outer loop
      vertex 5.899999998509884 60.75714285671711 0
      vertex 5.899999998509884 60.75714285671711 3
      vertex 5.899999998509884 59.55714286118746 3
    endloop
  endfacet
  facet normal 0 -1 0
    outer loop
      vertex 8 60.75714285671711 0
      vertex 5.899999998509884 60.75714285671711 3
      vertex 5.899999998509884 60.75714285671711 0
    endloop
  endfacet
  facet normal 0 -1 0
    outer loop
      vertex 8 60.75714285671711 0
      vertex 8 60.75714285671711 3
      vertex 5.899999998509884 60.75714285671711 3
    endloop
  endfacet
  facet normal -1 0 0
    outer loop
      vertex 8 54.95714285969734 0
      vertex 8 60.75714285671711 3
      vertex 8 60.75714285671711 0
    endloop
  endfacet
  facet normal -1 0 0
    outer loop
      vertex 8 54.95714285969734 0
      vertex 8 54.95714285969734 3
      vertex 8 60.75714285671711 3
    endloop
  endfacet
  facet normal 0 1 0
    outer loop
      vertex 5.899999998509884 54.95714285969734 0
      vertex 8 54.95714285969734 3
      vertex 8 54.95714285969734 0
    endloop
  endfacet
  facet normal 0 1 0
    outer loop
      vertex 5.899999998509884 54.95714285969734 0
      vertex 5.899999998509884 54.95714285969734 3
      vertex 8 54.95714285969734 3
    endloop
  endfacet
  facet normal 1 0 0
    outer loop
      vertex 5.899999998509884 56.157142855226994 0
      vertex 5.899999998509884 54.95714285969734 3
      vertex 5.899999998509884 54.95714285969734 0
    endloop
  endfacet
  facet normal 1 0 0
    outer loop
      vertex 5.899999998509884 56.157142855226994 0
      vertex 5.899999998509884 56.157142855226994 3
      vertex 5.899999998509884 54.95714285969734 3
    endloop
  endfacet
  facet normal 0 1 0
    outer loop
      vertex 0 56.157142855226994 0
      vertex 5.899999998509884 56.157142855226994 3
      vertex 5.899999998509884 56.157142855226994 0
    endloop
  endfacet
  facet normal 0 1 0
    outer loop
      vertex 0 56.157142855226994 0
      vertex 0 56.157142855226994 3
      vertex 5.899999998509884 56.157142855226994 3
    endloop
  endfacet
  facet normal -1 0 0
    outer loop
      vertex 0 51.42857142537832 0
      vertex 0 56.157142855226994 3
      vertex 0 56.157142855226994 0
    endloop
  endfacet
  facet normal -1 0 0
    outer loop
      vertex 0 51.42857142537832 0
      vertex 0 51.42857142537832 3
      vertex 0 56.157142855226994 3
    endloop
  endfacet
  facet normal 0 1 0
    outer loop
      vertex -3 51.42857142537832 0
      vertex 0 51.42857142537832 3
      vertex 0 51.42857142537832 0
    endloop
  endfacet
  facet normal 0 1 0
    outer loop
      vertex -3 51.42857142537832 0
      vertex -3 51.42857142537832 3
      vertex 0 51.42857142537832 3
    endloop
  endfacet
  facet normal -1 0 0
    outer loop
      vertex -3 38.57142857462168 0
      vertex -3 51.42857142537832 3
      vertex -3 51.42857142537832 0
    endloop
  endfacet
  facet normal -1 0 0
    outer loop
      vertex -3 38.57142857462168 0
      vertex -3 38.57142857462168 3
      vertex -3 51.42857142537832 3
    endloop
  endfacet
  facet normal 0 -1 0
    outer loop
      vertex 0 38.57142857462168 0
      vertex -3 38.57142857462168 3
      vertex -3 38.57142857462168 0
    endloop
  endfacet
  facet normal 0 -1 0
    outer loop
      vertex 0 38.57142857462168 0
      vertex 0 38.57142857462168 3
      vertex -3 38.57142857462168 3
    endloop
  endfacet
  facet normal -1 0 0
    outer loop
      vertex 0 33.842857144773006 0
      vertex 0 38.57142857462168 3
      vertex 0 38.57142857462168 0
    endloop
  endfacet
  facet normal -1 0 0
    outer loop
      vertex 0 33.842857144773006 0
      vertex 0 33.842857144773006 3
      vertex 0 38.57142857462168 3
    endloop
  endfacet
  facet normal 0 -1 0
    outer loop
      vertex 5.899999998509884 33.842857144773006 0
      vertex 0 33.842857144773006 3
      vertex 0 33.842857144773006 0
    endloop
  endfacet
  facet normal 0 -1 0
    outer loop
      vertex 5.899999998509884 33.842857144773006 0
      vertex 5.899999998509884 33.842857144773006 3
      vertex 0 33.842857144773006 3
    endloop
  endfacet
  facet normal 1 0 0
    outer loop
      vertex 5.899999998509884 35.04285714030266 0
      vertex 5.899999998509884 33.842857144773006 3
      vertex 5.899999998509884 33.842857144773006 0
    endloop
  endfacet
  facet normal 1 0 0
    outer loop
      vertex 5.899999998509884 35.04285714030266 0
      vertex 5.899999998509884 35.04285714030266 3
      vertex 5.899999998509884 33.842857144773006 3
    endloop
  endfacet
  facet normal 0 -1 0
    outer loop
      vertex 8 35.04285714030266 0
      vertex 5.899999998509884 35.04285714030266 3
      vertex 5.899999998509884 35.04285714030266 0
    endloop
  endfacet
  facet normal 0 -1 0
    outer loop
      vertex 8 35.04285714030266 0
      vertex 8 35.04285714030266 3
      vertex 5.899999998509884 35.04285714030266 3
    endloop
  endfacet
  facet normal -1 0 0
    outer loop
      vertex 8 29.24285714328289 0
      vertex 8 35.04285714030266 3
      vertex 8 35.04285714030266 0
    endloop
  endfacet
  facet normal -1 0 0
    outer loop
      vertex 8 29.24285714328289 0
      vertex 8 29.24285714328289 3
      vertex 8 35.04285714030266 3
    endloop
  endfacet
  facet normal 0 1 0
    outer loop
      vertex 5.899999998509884 29.24285714328289 0
      vertex 8 29.24285714328289 3
      vertex 8 29.24285714328289 0
    endloop
  endfacet
  facet normal 0 1 0
    outer loop
      vertex 5.899999998509884 29.24285714328289 0
      vertex 5.899999998509884 29.24285714328289 3
      vertex 8 29.24285714328289 3
    endloop
  endfacet
  facet normal 1 0 0
    outer loop
      vertex 5.899999998509884 30.442857138812542 0
      vertex 5.899999998509884 29.24285714328289 3
      vertex 5.899999998509884 29.24285714328289 0
    endloop
  endfacet
  facet normal 1 0 0
    outer loop
      vertex 5.899999998509884 30.442857138812542 0
      vertex 5.899999998509884 30.442857138812542 3
      vertex 5.899999998509884 29.24285714328289 3
    endloop
  endfacet
  facet normal 0 1 0
    outer loop
      vertex 0 30.442857138812542 0
      vertex 5.899999998509884 30.442857138812542 3
      vertex 5.899999998509884 30.442857138812542 0
    endloop
  endfacet
  facet normal 0 1 0
    outer loop
      vertex 0 30.442857138812542 0
      vertex 0 30.442857138812542 3
      vertex 5.899999998509884 30.442857138812542 3
    endloop
  endfacet
  facet normal -1 0 0
    outer loop
      vertex 0 25.71428571641445 0
      vertex 0 30.442857138812542 3
      vertex 0 30.442857138812542 0
    endloop
  endfacet
  facet normal -1 0 0
    outer loop
      vertex 0 25.71428571641445 0
      vertex 0 25.71428571641445 3
      vertex 0 30.442857138812542 3
    endloop
  endfacet
  facet normal 0 1 0
    outer loop
      vertex -3 25.71428571641445 0
      vertex 0 25.71428571641445 3
      vertex 0 25.71428571641445 0
    endloop
  endfacet
  facet normal 0 1 0
    outer loop
      vertex -3 25.71428571641445 0
      vertex -3 25.71428571641445 3
      vertex 0 25.71428571641445 3
    endloop
  endfacet
  facet normal -1 0 0
    outer loop
      vertex -3 12.857142858207226 0
      vertex -3 25.71428571641445 3
      vertex -3 25.71428571641445 0
    endloop
  endfacet
  facet normal -1 0 0
    outer loop
      vertex -3 12.857142858207226 0
      vertex -3 12.857142858207226 3
      vertex -3 25.71428571641445 3
    endloop
  endfacet
  facet normal 0 -1 0
    outer loop
      vertex 0 12.857142858207226 0
      vertex -3 12.857142858207226 3
      vertex -3 12.857142858207226 0
    endloop
  endfacet
  facet normal 0 -1 0
    outer loop
      vertex 0 12.857142858207226 0
      vertex 0 12.857142858207226 3
      vertex -3 12.857142858207226 3
    endloop
  endfacet
  facet normal -1 0 0
    outer loop
      vertex 0 0 0
      vertex 0 12.857142858207226 3
      vertex 0 12.857142858207226 0
    endloop
  endfacet
  facet normal -1 0 0
    outer loop
      vertex 0 0 0
      vertex 0 0 3
      vertex 0 12.857142858207226 3
    endloop
  endfacet
  facet normal 0 -1 0
    outer loop
      vertex 18.857142858207226 0 0
      vertex 0 0 3
      vertex 0 0 0
    endloop
  endfacet
  facet normal 0 -1 0
    outer loop
      vertex 18.857142858207226 0 0
      vertex 18.857142858207226 0 3
      vertex 0 0 3
    endloop
  endfacet
  facet normal -1 0 0
    outer loop
      vertex 18.857142858207226 -3.0099999979138374 0
      vertex 18.857142858207226 0 3
      vertex 18.857142858207226 0 0
    endloop
  endfacet
  facet normal -1 0 0
    outer loop
      vertex 18.857142858207226 -3.0099999979138374 0
      vertex 18.857142858207226 -3.0099999979138374 3
      vertex 18.857142858207226 0 3
    endloop
  endfacet
  facet normal 0 -1 0
    outer loop
      vertex 37.71428571641445 -3.0099999979138374 0
      vertex 18.857142858207226 -3.0099999979138374 3
      vertex 18.857142858207226 -3.0099999979138374 0
    endloop
  endfacet
  facet normal 0 -1 0
    outer loop
      vertex 37.71428571641445 -3.0099999979138374 0
      vertex 37.71428571641445 -3.0099999979138374 3
      vertex 18.857142858207226 -3.0099999979138374 3
    endloop
  endfacet
  facet normal 1 0 0
    outer loop
      vertex 37.71428571641445 0 0
      vertex 37.71428571641445 -3.0099999979138374 3
      vertex 37.71428571641445 -3.0099999979138374 0
    endloop
  endfacet
  facet normal 1 0 0
    outer loop
      vertex 37.71428571641445 0 0
      vertex 37.71428571641445 0 3
      vertex 37.71428571641445 -3.0099999979138374 3
    endloop
  endfacet
  facet normal 0 0 1
    outer loop
      vertex 132 30.442857138812542 3
      vertex 126.10000000149012 30.442857138812542 3
      vertex 126.10000000149012 29.24285714328289 3
    endloop
  endfacet
  facet normal 0 0 1
    outer loop
      vertex 132 25.71428571641445 3
      vertex 132 30.442857138812542 3
      vertex 126.10000000149012 29.24285714328289 3
    endloop
  endfacet
  facet normal 0 0 1
    outer loop
      vertex 126.10000000149012 35.04285714030266 3
      vertex 126.10000000149012 33.842857144773006 3
      vertex 132 33.842857144773006 3
    endloop
  endfacet
  facet normal 0 0 1
    outer loop
      vertex 126.10000000149012 35.04285714030266 3
      vertex 132 33.842857144773006 3
      vertex 132 38.57142857462168 3
    endloop
  endfacet
  facet normal 0 0 1
    outer loop
      vertex 132 38.57142857462168 3
      vertex 135 38.57142857462168 3
      vertex 135 51.42857142537832 3
    endloop
  endfacet
  facet normal 0 0 1
    outer loop
      vertex 132 38.57142857462168 3
      vertex 135 51.42857142537832 3
      vertex 132 51.42857142537832 3
    endloop
  endfacet
  facet normal 0 0 1
    outer loop
      vertex 132 56.157142855226994 3
      vertex 126.10000000149012 56.157142855226994 3
      vertex 126.10000000149012 54.95714285969734 3
    endloop
  endfacet
  facet normal 0 0 1
    outer loop
      vertex 132 51.42857142537832 3
      vertex 132 56.157142855226994 3
      vertex 126.10000000149012 54.95714285969734 3
    endloop
  endfacet
  facet normal 0 0 1
    outer loop
      vertex 126.10000000149012 60.75714285671711 3
      vertex 126.10000000149012 59.55714286118746 3
      vertex 132 59.55714286118746 3
    endloop
  endfacet
  facet normal 0 0 1
    outer loop
      vertex 126.10000000149012 60.75714285671711 3
      vertex 132 59.55714286118746 3
      vertex 132 64.28571428358555 3
    endloop
  endfacet
  facet normal 0 0 1
    outer loop
      vertex 132 77.14285714179277 3
      vertex 132 90 3
      vertex 113.14285714179277 90 3
    endloop
  endfacet
  facet normal 0 0 1
    outer loop
      vertex 113.14285714179277 90 3
      vertex 113.14285714179277 93.00999999791384 3
      vertex 94.28571428358555 93.00999999791384 3
    endloop
  endfacet
  facet normal 0 0 1
    outer loop
      vertex 113.14285714179277 90 3
      vertex 94.28571428358555 93.00999999791384 3
      vertex 94.28571428358555 90 3
    endloop
  endfacet
  facet normal 0 0 1
    outer loop
      vertex 86.55714286118746 90 3
      vertex 86.55714286118746 84.10000000149012 3
      vertex 87.75714285671711 84.10000000149012 3
    endloop
  endfacet
  facet normal 0 0 1
    outer loop
      vertex 94.28571428358555 90 3
      vertex 86.55714286118746 90 3
      vertex 87.75714285671711 84.10000000149012 3
    endloop
  endfacet
  facet normal 0 0 1
    outer loop
      vertex 81.95714285969734 84.10000000149012 3
      vertex 83.157142855227 84.10000000149012 3
      vertex 83.157142855227 90 3
    endloop
  endfacet
  facet normal 0 0 1
    outer loop
      vertex 81.95714285969734 84.10000000149012 3
      vertex 83.157142855227 90 3
      vertex 75.42857142537832 90 3
    endloop
  endfacet
  facet normal 0 0 1
    outer loop
      vertex 75.42857142537832 90 3
      vertex 75.42857142537832 93.00999999791384 3
      vertex 56.57142857462168 93.00999999791384 3
    endloop
  endfacet
  facet normal 0 0 1
    outer loop
      vertex 75.42857142537832 90 3
      vertex 56.57142857462168 93.00999999791384 3
      vertex 56.57142857462168 90 3
    endloop
  endfacet
  facet normal 0 0 1
    outer loop
      vertex 48.842857144773006 90 3
      vertex 48.842857144773006 84.10000000149012 3
      vertex 50.04285714030266 84.10000000149012 3
    endloop
  endfacet
  facet normal 0 0 1
    outer loop
      vertex 56.57142857462168 90 3
      vertex 48.842857144773006 90 3
      vertex 50.04285714030266 84.10000000149012 3
    endloop
  endfacet
  facet normal 0 0 1
    outer loop
      vertex 44.24285714328289 84.10000000149012 3
      vertex 45.44285713881254 84.10000000149012 3
      vertex 45.44285713881254 90 3
    endloop
  endfacet
  facet normal 0 0 1
    outer loop
      vertex 44.24285714328289 84.10000000149012 3
      vertex 45.44285713881254 90 3
      vertex 37.71428571641445 90 3
    endloop
  endfacet
  facet normal 0 0 1
    outer loop
      vertex 37.71428571641445 90 3
      vertex 37.71428571641445 93.00999999791384 3
      vertex 18.857142858207226 93.00999999791384 3
    endloop
  endfacet
  facet normal 0 0 1
    outer loop
      vertex 37.71428571641445 90 3
      vertex 18.857142858207226 93.00999999791384 3
      vertex 18.857142858207226 90 3
    endloop
  endfacet
  facet normal 0 0 1
    outer loop
      vertex 18.857142858207226 90 3
      vertex 0 90 3
      vertex 0 77.14285714179277 3
    endloop
  endfacet
  facet normal 0 0 1
    outer loop
      vertex 0 59.55714286118746 3
      vertex 5.899999998509884 59.55714286118746 3
      vertex 5.899999998509884 60.75714285671711 3
    endloop
  endfacet
  facet normal 0 0 1
    outer loop
      vertex 0 64.28571428358555 3
      vertex 0 59.55714286118746 3
      vertex 5.899999998509884 60.75714285671711 3
    endloop
  endfacet
  facet normal 0 0 1
    outer loop
      vertex 5.899999998509884 54.95714285969734 3
      vertex 5.899999998509884 56.157142855226994 3
      vertex 0 56.157142855226994 3
    endloop
  endfacet
  facet normal 0 0 1
    outer loop
      vertex 5.899999998509884 54.95714285969734 3
      vertex 0 56.157142855226994 3
      vertex 0 51.42857142537832 3
    endloop
  endfacet
  facet normal 0 0 1
    outer loop
      vertex 0 51.42857142537832 3
      vertex -3 51.42857142537832 3
      vertex -3 38.57142857462168 3
    endloop
  endfacet
  facet normal 0 0 1
    outer loop
      vertex 0 51.42857142537832 3
      vertex -3 38.57142857462168 3
      vertex 0 38.57142857462168 3
    endloop
  endfacet
  facet normal 0 0 1
    outer loop
      vertex 0 33.842857144773006 3
      vertex 5.899999998509884 33.842857144773006 3
      vertex 5.899999998509884 35.04285714030266 3
    endloop
  endfacet
  facet normal 0 0 1
    outer loop
      vertex 0 38.57142857462168 3
      vertex 0 33.842857144773006 3
      vertex 5.899999998509884 35.04285714030266 3
    endloop
  endfacet
  facet normal 0 0 1
    outer loop
      vertex 5.899999998509884 29.24285714328289 3
      vertex 5.899999998509884 30.442857138812542 3
      vertex 0 30.442857138812542 3
    endloop
  endfacet
  facet normal 0 0 1
    outer loop
      vertex 5.899999998509884 29.24285714328289 3
      vertex 0 30.442857138812542 3
      vertex 0 25.71428571641445 3
    endloop
  endfacet
  facet normal 0 0 1
    outer loop
      vertex 0 12.857142858207226 3
      vertex 0 0 3
      vertex 18.857142858207226 0 3
    endloop
  endfacet
  facet normal 0 0 1
    outer loop
      vertex 18.857142858207226 0 3
      vertex 18.857142858207226 -3.0099999979138374 3
      vertex 37.71428571641445 -3.0099999979138374 3
    endloop
  endfacet
  facet normal 0 0 1
    outer loop
      vertex 18.857142858207226 0 3
      vertex 37.71428571641445 -3.0099999979138374 3
      vertex 37.71428571641445 0 3
    endloop
  endfacet
  facet normal 0 0 1
    outer loop
      vertex 45.44285713881254 0 3
      vertex 45.44285713881254 5.899999998509884 3
      vertex 44.24285714328289 5.899999998509884 3
    endloop
  endfacet
  facet normal 0 0 1
    outer loop
      vertex 37.71428571641445 0 3
      vertex 45.44285713881254 0 3
      vertex 44.24285714328289 5.899999998509884 3
    endloop
  endfacet
  facet normal 0 0 1
    outer loop
      vertex 50.04285714030266 5.899999998509884 3
      vertex 48.842857144773006 5.899999998509884 3
      vertex 48.842857144773006 0 3
    endloop
  endfacet
  facet normal 0 0 1
    outer loop
      vertex 50.04285714030266 5.899999998509884 3
      vertex 48.842857144773006 0 3
      vertex 56.57142857462168 0 3
    endloop
  endfacet
  facet normal 0 0 1
    outer loop
      vertex 56.57142857462168 0 3
      vertex 56.57142857462168 -3.0099999979138374 3
      vertex 75.42857142537832 -3.0099999979138374 3
    endloop
  endfacet
  facet normal 0 0 1
    outer loop
      vertex 56.57142857462168 0 3
      vertex 75.42857142537832 -3.0099999979138374 3
      vertex 75.42857142537832 0 3
    endloop
  endfacet
  facet normal 0 0 1
    outer loop
      vertex 83.157142855227 0 3
      vertex 83.157142855227 5.899999998509884 3
      vertex 81.95714285969734 5.899999998509884 3
    endloop
  endfacet
  facet normal 0 0 1
    outer loop
      vertex 75.42857142537832 0 3
      vertex 83.157142855227 0 3
      vertex 81.95714285969734 5.899999998509884 3
    endloop
  endfacet
  facet normal 0 0 1
    outer loop
      vertex 87.75714285671711 5.899999998509884 3
      vertex 86.55714286118746 5.899999998509884 3
      vertex 86.55714286118746 0 3
    endloop
  endfacet
  facet normal 0 0 1
    outer loop
      vertex 87.75714285671711 5.899999998509884 3
      vertex 86.55714286118746 0 3
      vertex 94.28571428358555 0 3
    endloop
  endfacet
  facet normal 0 0 1
    outer loop
      vertex 94.28571428358555 0 3
      vertex 94.28571428358555 -3.0099999979138374 3
      vertex 113.14285714179277 -3.0099999979138374 3
    endloop
  endfacet
  facet normal 0 0 1
    outer loop
      vertex 94.28571428358555 0 3
      vertex 113.14285714179277 -3.0099999979138374 3
      vertex 113.14285714179277 0 3
    endloop
  endfacet
  facet normal 0 0 1
    outer loop
      vertex 113.14285714179277 0 3
      vertex 132 0 3
      vertex 132 12.857142858207226 3
    endloop
  endfacet
  facet normal 0 0 1
    outer loop
      vertex 132 12.857142858207226 3
      vertex 135 12.857142858207226 3
      vertex 135 25.71428571641445 3
    endloop
  endfacet
  facet normal 0 0 1
    outer loop
      vertex 132 12.857142858207226 3
      vertex 135 25.71428571641445 3
      vertex 132 25.71428571641445 3
    endloop
  endfacet
  facet normal 0 0 1
    outer loop
      vertex 132 64.28571428358555 3
      vertex 135 64.28571428358555 3
      vertex 135 77.14285714179277 3
    endloop
  endfacet
  facet normal 0 0 1
    outer loop
      vertex 132 64.28571428358555 3
      vertex 135 77.14285714179277 3
      vertex 132 77.14285714179277 3
    endloop
  endfacet
  facet normal 0 0 1
    outer loop
      vertex 0 77.14285714179277 3
      vertex -3 77.14285714179277 3
      vertex -3 64.28571428358555 3
    endloop
  endfacet
  facet normal 0 0 1
    outer loop
      vertex 0 77.14285714179277 3
      vertex -3 64.28571428358555 3
      vertex 0 64.28571428358555 3
    endloop
  endfacet
  facet normal 0 0 1
    outer loop
      vertex 0 25.71428571641445 3
      vertex -3 25.71428571641445 3
      vertex -3 12.857142858207226 3
    endloop
  endfacet
  facet normal 0 0 1
    outer loop
      vertex 0 25.71428571641445 3
      vertex -3 12.857142858207226 3
      vertex 0 12.857142858207226 3
    endloop
  endfacet
  facet normal 0 0 1
    outer loop
      vertex 132 12.857142858207226 3
      vertex 132 25.71428571641445 3
      vertex 126.10000000149012 29.24285714328289 3
    endloop
  endfacet
  facet normal 0 0 1
    outer loop
      vertex 113.14285714179277 0 3
      vertex 132 12.857142858207226 3
      vertex 126.10000000149012 29.24285714328289 3
    endloop
  endfacet
  facet normal 0 0 1
    outer loop
      vertex 113.14285714179277 0 3
      vertex 126.10000000149012 29.24285714328289 3
      vertex 124 29.24285714328289 3
    endloop
  endfacet
  facet normal 0 0 1
    outer loop
      vertex 94.28571428358555 0 3
      vertex 113.14285714179277 0 3
      vertex 124 29.24285714328289 3
    endloop
  endfacet
  facet normal 0 0 1
    outer loop
      vertex 87.75714285671711 5.899999998509884 3
      vertex 94.28571428358555 0 3
      vertex 124 29.24285714328289 3
    endloop
  endfacet
  facet normal 0 0 1
    outer loop
      vertex 87.75714285671711 8 3
      vertex 87.75714285671711 5.899999998509884 3
      vertex 124 29.24285714328289 3
    endloop
  endfacet
  facet normal 0 0 1
    outer loop
      vertex 87.75714285671711 8 3
      vertex 124 29.24285714328289 3
      vertex 124 35.04285714030266 3
    endloop
  endfacet
  facet normal 0 0 1
    outer loop
      vertex 126.10000000149012 60.75714285671711 3
      vertex 132 64.28571428358555 3
      vertex 132 77.14285714179277 3
    endloop
  endfacet
  facet normal 0 0 1
    outer loop
      vertex 126.10000000149012 60.75714285671711 3
      vertex 132 77.14285714179277 3
      vertex 113.14285714179277 90 3
    endloop
  endfacet
  facet normal 0 0 1
    outer loop
      vertex 124 60.75714285671711 3
      vertex 126.10000000149012 60.75714285671711 3
      vertex 113.14285714179277 90 3
    endloop
  endfacet
  facet normal 0 0 1
    outer loop
      vertex 124 60.75714285671711 3
      vertex 113.14285714179277 90 3
      vertex 94.28571428358555 90 3
    endloop
  endfacet
  facet normal 0 0 1
    outer loop
      vertex 124 60.75714285671711 3
      vertex 94.28571428358555 90 3
      vertex 87.75714285671711 84.10000000149012 3
    endloop
  endfacet
  facet normal 0 0 1
    outer loop
      vertex 124 60.75714285671711 3
      vertex 87.75714285671711 84.10000000149012 3
      vertex 87.75714285671711 82 3
    endloop
  endfacet
  facet normal 0 0 1
    outer loop
      vertex 124 54.95714285969734 3
      vertex 124 60.75714285671711 3
      vertex 87.75714285671711 82 3
    endloop
  endfacet
  facet normal 0 0 1
    outer loop
      vertex 0 77.14285714179277 3
      vertex 0 64.28571428358555 3
      vertex 5.899999998509884 60.75714285671711 3
    endloop
  endfacet
  facet normal 0 0 1
    outer loop
      vertex 18.857142858207226 90 3
      vertex 0 77.14285714179277 3
      vertex 5.899999998509884 60.75714285671711 3
    endloop
  endfacet
  facet normal 0 0 1
    outer loop
      vertex 18.857142858207226 90 3
      vertex 5.899999998509884 60.75714285671711 3
      vertex 8 60.75714285671711 3
    endloop
  endfacet
  facet normal 0 0 1
    outer loop
      vertex 37.71428571641445 90 3
      vertex 18.857142858207226 90 3
      vertex 8 60.75714285671711 3
    endloop
  endfacet
  facet normal 0 0 1
    outer loop
      vertex 44.24285714328289 84.10000000149012 3
      vertex 37.71428571641445 90 3
      vertex 8 60.75714285671711 3
    endloop
  endfacet
  facet normal 0 0 1
    outer loop
      vertex 44.24285714328289 82 3
      vertex 44.24285714328289 84.10000000149012 3
      vertex 8 60.75714285671711 3
    endloop
  endfacet
  facet normal 0 0 1
    outer loop
      vertex 44.24285714328289 82 3
      vertex 8 60.75714285671711 3
      vertex 8 54.95714285969734 3
    endloop
  endfacet
  facet normal 0 0 1
    outer loop
      vertex 5.899999998509884 29.24285714328289 3
      vertex 0 25.71428571641445 3
      vertex 0 12.857142858207226 3
    endloop
  endfacet
  facet normal 0 0 1
    outer loop
      vertex 5.899999998509884 29.24285714328289 3
      vertex 0 12.857142858207226 3
      vertex 18.857142858207226 0 3
    endloop
  endfacet
  facet normal 0 0 1
    outer loop
      vertex 8 29.24285714328289 3
      vertex 5.899999998509884 29.24285714328289 3
      vertex 18.857142858207226 0 3
    endloop
  endfacet
  facet normal 0 0 1
    outer loop
      vertex 8 29.24285714328289 3
      vertex 18.857142858207226 0 3
      vertex 37.71428571641445 0 3
    endloop
  endfacet
  facet normal 0 0 1
    outer loop
      vertex 8 29.24285714328289 3
      vertex 37.71428571641445 0 3
      vertex 44.24285714328289 5.899999998509884 3
    endloop
  endfacet
  facet normal 0 0 1
    outer loop
      vertex 8 29.24285714328289 3
      vertex 44.24285714328289 5.899999998509884 3
      vertex 44.24285714328289 8 3
    endloop
  endfacet
  facet normal 0 0 1
    outer loop
      vertex 8 35.04285714030266 3
      vertex 8 29.24285714328289 3
      vertex 44.24285714328289 8 3
    endloop
  endfacet
  facet normal 0 0 1
    outer loop
      vertex 126.10000000149012 35.04285714030266 3
      vertex 132 38.57142857462168 3
      vertex 132 51.42857142537832 3
    endloop
  endfacet
  facet normal 0 0 1
    outer loop
      vertex 126.10000000149012 35.04285714030266 3
      vertex 132 51.42857142537832 3
      vertex 126.10000000149012 54.95714285969734 3
    endloop
  endfacet
  facet normal 0 0 1
    outer loop
      vertex 124 35.04285714030266 3
      vertex 126.10000000149012 35.04285714030266 3
      vertex 126.10000000149012 54.95714285969734 3
    endloop
  endfacet
  facet normal 0 0 1
    outer loop
      vertex 124 35.04285714030266 3
      vertex 126.10000000149012 54.95714285969734 3
      vertex 124 54.95714285969734 3
    endloop
  endfacet
  facet normal 0 0 1
    outer loop
      vertex 5.899999998509884 54.95714285969734 3
      vertex 0 51.42857142537832 3
      vertex 0 38.57142857462168 3
    endloop
  endfacet
  facet normal 0 0 1
    outer loop
      vertex 5.899999998509884 54.95714285969734 3
      vertex 0 38.57142857462168 3
      vertex 5.899999998509884 35.04285714030266 3
    endloop
  endfacet
  facet normal 0 0 1
    outer loop
      vertex 8 54.95714285969734 3
      vertex 5.899999998509884 54.95714285969734 3
      vertex 5.899999998509884 35.04285714030266 3
    endloop
  endfacet
  facet normal 0 0 1
    outer loop
      vertex 8 54.95714285969734 3
      vertex 5.899999998509884 35.04285714030266 3
      vertex 8 35.04285714030266 3
    endloop
  endfacet
  facet normal 0 0 1
    outer loop
      vertex 87.75714285671711 8 3
      vertex 124 35.04285714030266 3
      vertex 124 54.95714285969734 3
    endloop
  endfacet
  facet normal 0 0 1
    outer loop
      vertex 87.75714285671711 8 3
      vertex 124 54.95714285969734 3
      vertex 87.75714285671711 82 3
    endloop
  endfacet
  facet normal 0 0 1
    outer loop
      vertex 81.95714285969734 8 3
      vertex 87.75714285671711 8 3
      vertex 87.75714285671711 82 3
    endloop
  endfacet
  facet normal 0 0 1
    outer loop
      vertex 81.95714285969734 8 3
      vertex 87.75714285671711 82 3
      vertex 81.95714285969734 82 3
    endloop
  endfacet
  facet normal 0 0 1
    outer loop
      vertex 44.24285714328289 82 3
      vertex 8 54.95714285969734 3
      vertex 8 35.04285714030266 3
    endloop
  endfacet
  facet normal 0 0 1
    outer loop
      vertex 44.24285714328289 82 3
      vertex 8 35.04285714030266 3
      vertex 44.24285714328289 8 3
    endloop
  endfacet
  facet normal 0 0 1
    outer loop
      vertex 50.04285714030266 82 3
      vertex 44.24285714328289 82 3
      vertex 44.24285714328289 8 3
    endloop
  endfacet
  facet normal 0 0 1
    outer loop
      vertex 50.04285714030266 82 3
      vertex 44.24285714328289 8 3
      vertex 50.04285714030266 8 3
    endloop
  endfacet
  facet normal 0 0 1
    outer loop
      vertex 81.95714285969734 82 3
      vertex 81.95714285969734 84.10000000149012 3
      vertex 75.42857142537832 90 3
    endloop
  endfacet
  facet normal 0 0 1
    outer loop
      vertex 81.95714285969734 82 3
      vertex 75.42857142537832 90 3
      vertex 56.57142857462168 90 3
    endloop
  endfacet
  facet normal 0 0 1
    outer loop
      vertex 81.95714285969734 8 3
      vertex 81.95714285969734 82 3
      vertex 56.57142857462168 90 3
    endloop
  endfacet
  facet normal 0 0 1
    outer loop
      vertex 81.95714285969734 8 3
      vertex 56.57142857462168 90 3
      vertex 50.04285714030266 84.10000000149012 3
    endloop
  endfacet
  facet normal 0 0 1
    outer loop
      vertex 81.95714285969734 8 3
      vertex 50.04285714030266 84.10000000149012 3
      vertex 50.04285714030266 82 3
    endloop
  endfacet
  facet normal 0 0 1
    outer loop
      vertex 81.95714285969734 8 3
      vertex 50.04285714030266 82 3
      vertex 50.04285714030266 8 3
    endloop
  endfacet
  facet normal 0 0 1
    outer loop
      vertex 81.95714285969734 5.899999998509884 3
      vertex 81.95714285969734 8 3
      vertex 50.04285714030266 8 3
    endloop
  endfacet
  facet normal 0 0 1
    outer loop
      vertex 81.95714285969734 5.899999998509884 3
      vertex 50.04285714030266 8 3
      vertex 50.04285714030266 5.899999998509884 3
    endloop
  endfacet
  facet normal 0 0 1
    outer loop
      vertex 75.42857142537832 0 3
      vertex 81.95714285969734 5.899999998509884 3
      vertex 50.04285714030266 5.899999998509884 3
    endloop
  endfacet
  facet normal 0 0 1
    outer loop
      vertex 56.57142857462168 0 3
      vertex 75.42857142537832 0 3
      vertex 50.04285714030266 5.899999998509884 3
    endloop
  endfacet
  facet normal 0 0 -1
    outer loop
      vertex 126.10000000149012 29.24285714328289 0
      vertex 126.10000000149012 30.442857138812542 0
      vertex 132 30.442857138812542 0
    endloop
  endfacet
  facet normal 0 0 -1
    outer loop
      vertex 126.10000000149012 29.24285714328289 0
      vertex 132 30.442857138812542 0
      vertex 132 25.71428571641445 0
    endloop
  endfacet
  facet normal 0 0 -1
    outer loop
      vertex 132 33.842857144773006 0
      vertex 126.10000000149012 33.842857144773006 0
      vertex 126.10000000149012 35.04285714030266 0
    endloop
  endfacet
  facet normal 0 0 -1
    outer loop
      vertex 132 38.57142857462168 0
      vertex 132 33.842857144773006 0
      vertex 126.10000000149012 35.04285714030266 0
    endloop
  endfacet
  facet normal 0 0 -1
    outer loop
      vertex 135 51.42857142537832 0
      vertex 135 38.57142857462168 0
      vertex 132 38.57142857462168 0
    endloop
  endfacet
  facet normal 0 0 -1
    outer loop
      vertex 132 51.42857142537832 0
      vertex 135 51.42857142537832 0
      vertex 132 38.57142857462168 0
    endloop
  endfacet
  facet normal 0 0 -1
    outer loop
      vertex 126.10000000149012 54.95714285969734 0
      vertex 126.10000000149012 56.157142855226994 0
      vertex 132 56.157142855226994 0
    endloop
  endfacet
  facet normal 0 0 -1
    outer loop
      vertex 126.10000000149012 54.95714285969734 0
      vertex 132 56.157142855226994 0
      vertex 132 51.42857142537832 0
    endloop
  endfacet
  facet normal 0 0 -1
    outer loop
      vertex 132 59.55714286118746 0
      vertex 126.10000000149012 59.55714286118746 0
      vertex 126.10000000149012 60.75714285671711 0
    endloop
  endfacet
  facet normal 0 0 -1
    outer loop
      vertex 132 64.28571428358555 0
      vertex 132 59.55714286118746 0
      vertex 126.10000000149012 60.75714285671711 0
    endloop
  endfacet
  facet normal 0 0 -1
    outer loop
      vertex 113.14285714179277 90 0
      vertex 132 90 0
      vertex 132 77.14285714179277 0
    endloop
  endfacet
  facet normal 0 0 -1
    outer loop
      vertex 94.28571428358555 93.00999999791384 0
      vertex 113.14285714179277 93.00999999791384 0
      vertex 113.14285714179277 90 0
    endloop
  endfacet
  facet normal 0 0 -1
    outer loop
      vertex 94.28571428358555 90 0
      vertex 94.28571428358555 93.00999999791384 0
      vertex 113.14285714179277 90 0
    endloop
  endfacet
  facet normal 0 0 -1
    outer loop
      vertex 87.75714285671711 84.10000000149012 0
      vertex 86.55714286118746 84.10000000149012 0
      vertex 86.55714286118746 90 0
    endloop
  endfacet
  facet normal 0 0 -1
    outer loop
      vertex 87.75714285671711 84.10000000149012 0
      vertex 86.55714286118746 90 0
      vertex 94.28571428358555 90 0
    endloop
  endfacet
  facet normal 0 0 -1
    outer loop
      vertex 83.157142855227 90 0
      vertex 83.157142855227 84.10000000149012 0
      vertex 81.95714285969734 84.10000000149012 0
    endloop
  endfacet
  facet normal 0 0 -1
    outer loop
      vertex 75.42857142537832 90 0
      vertex 83.157142855227 90 0
      vertex 81.95714285969734 84.10000000149012 0
    endloop
  endfacet
  facet normal 0 0 -1
    outer loop
      vertex 56.57142857462168 93.00999999791384 0
      vertex 75.42857142537832 93.00999999791384 0
      vertex 75.42857142537832 90 0
    endloop
  endfacet
  facet normal 0 0 -1
    outer loop
      vertex 56.57142857462168 90 0
      vertex 56.57142857462168 93.00999999791384 0
      vertex 75.42857142537832 90 0
    endloop
  endfacet
  facet normal 0 0 -1
    outer loop
      vertex 50.04285714030266 84.10000000149012 0
      vertex 48.842857144773006 84.10000000149012 0
      vertex 48.842857144773006 90 0
    endloop
  endfacet
  facet normal 0 0 -1
    outer loop
      vertex 50.04285714030266 84.10000000149012 0
      vertex 48.842857144773006 90 0
      vertex 56.57142857462168 90 0
    endloop
  endfacet
  facet normal 0 0 -1
    outer loop
      vertex 45.44285713881254 90 0
      vertex 45.44285713881254 84.10000000149012 0
      vertex 44.24285714328289 84.10000000149012 0
    endloop
  endfacet
  facet normal 0 0 -1
    outer loop
      vertex 37.71428571641445 90 0
      vertex 45.44285713881254 90 0
      vertex 44.24285714328289 84.10000000149012 0
    endloop
  endfacet
  facet normal 0 0 -1
    outer loop
      vertex 18.857142858207226 93.00999999791384 0
      vertex 37.71428571641445 93.00999999791384 0
      vertex 37.71428571641445 90 0
    endloop
  endfacet
  facet normal 0 0 -1
    outer loop
      vertex 18.857142858207226 90 0
      vertex 18.857142858207226 93.00999999791384 0
      vertex 37.71428571641445 90 0
    endloop
  endfacet
  facet normal 0 0 -1
    outer loop
      vertex 0 77.14285714179277 0
      vertex 0 90 0
      vertex 18.857142858207226 90 0
    endloop
  endfacet
  facet normal 0 0 -1
    outer loop
      vertex 5.899999998509884 60.75714285671711 0
      vertex 5.899999998509884 59.55714286118746 0
      vertex 0 59.55714286118746 0
    endloop
  endfacet
  facet normal 0 0 -1
    outer loop
      vertex 5.899999998509884 60.75714285671711 0
      vertex 0 59.55714286118746 0
      vertex 0 64.28571428358555 0
    endloop
  endfacet
  facet normal 0 0 -1
    outer loop
      vertex 0 56.157142855226994 0
      vertex 5.899999998509884 56.157142855226994 0
      vertex 5.899999998509884 54.95714285969734 0
    endloop
  endfacet
  facet normal 0 0 -1
    outer loop
      vertex 0 51.42857142537832 0
      vertex 0 56.157142855226994 0
      vertex 5.899999998509884 54.95714285969734 0
    endloop
  endfacet
  facet normal 0 0 -1
    outer loop
      vertex -3 38.57142857462168 0
      vertex -3 51.42857142537832 0
      vertex 0 51.42857142537832 0
    endloop
  endfacet
  facet normal 0 0 -1
    outer loop
      vertex 0 38.57142857462168 0
      vertex -3 38.57142857462168 0
      vertex 0 51.42857142537832 0
    endloop
  endfacet
  facet normal 0 0 -1
    outer loop
      vertex 5.899999998509884 35.04285714030266 0
      vertex 5.899999998509884 33.842857144773006 0
      vertex 0 33.842857144773006 0
    endloop
  endfacet
  facet normal 0 0 -1
    outer loop
      vertex 5.899999998509884 35.04285714030266 0
      vertex 0 33.842857144773006 0
      vertex 0 38.57142857462168 0
    endloop
  endfacet
  facet normal 0 0 -1
    outer loop
      vertex 0 30.442857138812542 0
      vertex 5.899999998509884 30.442857138812542 0
      vertex 5.899999998509884 29.24285714328289 0
    endloop
  endfacet
  facet normal 0 0 -1
    outer loop
      vertex 0 25.71428571641445 0
      vertex 0 30.442857138812542 0
      vertex 5.899999998509884 29.24285714328289 0
    endloop
  endfacet
  facet normal 0 0 -1
    outer loop
      vertex 18.857142858207226 0 0
      vertex 0 0 0
      vertex 0 12.857142858207226 0
    endloop
  endfacet
  facet normal 0 0 -1
    outer loop
      vertex 37.71428571641445 -3.0099999979138374 0
      vertex 18.857142858207226 -3.0099999979138374 0
      vertex 18.857142858207226 0 0
    endloop
  endfacet
  facet normal 0 0 -1
    outer loop
      vertex 37.71428571641445 0 0
      vertex 37.71428571641445 -3.0099999979138374 0
      vertex 18.857142858207226 0 0
    endloop
  endfacet
  facet normal 0 0 -1
    outer loop
      vertex 44.24285714328289 5.899999998509884 0
      vertex 45.44285713881254 5.899999998509884 0
      vertex 45.44285713881254 0 0
    endloop
  endfacet
  facet normal 0 0 -1
    outer loop
      vertex 44.24285714328289 5.899999998509884 0
      vertex 45.44285713881254 0 0
      vertex 37.71428571641445 0 0
    endloop
  endfacet
  facet normal 0 0 -1
    outer loop
      vertex 48.842857144773006 0 0
      vertex 48.842857144773006 5.899999998509884 0
      vertex 50.04285714030266 5.899999998509884 0
    endloop
  endfacet
  facet normal 0 0 -1
    outer loop
      vertex 56.57142857462168 0 0
      vertex 48.842857144773006 0 0
      vertex 50.04285714030266 5.899999998509884 0
    endloop
  endfacet
  facet normal 0 0 -1
    outer loop
      vertex 75.42857142537832 -3.0099999979138374 0
      vertex 56.57142857462168 -3.0099999979138374 0
      vertex 56.57142857462168 0 0
    endloop
  endfacet
  facet normal 0 0 -1
    outer loop
      vertex 75.42857142537832 0 0
      vertex 75.42857142537832 -3.0099999979138374 0
      vertex 56.57142857462168 0 0
    endloop
  endfacet
  facet normal 0 0 -1
    outer loop
      vertex 81.95714285969734 5.899999998509884 0
      vertex 83.157142855227 5.899999998509884 0
      vertex 83.157142855227 0 0
    endloop
  endfacet
  facet normal 0 0 -1
    outer loop
      vertex 81.95714285969734 5.899999998509884 0
      vertex 83.157142855227 0 0
      vertex 75.42857142537832 0 0
    endloop
  endfacet
  facet normal 0 0 -1
    outer loop
      vertex 86.55714286118746 0 0
      vertex 86.55714286118746 5.899999998509884 0
      vertex 87.75714285671711 5.899999998509884 0
    endloop
  endfacet
  facet normal 0 0 -1
    outer loop
      vertex 94.28571428358555 0 0
      vertex 86.55714286118746 0 0
      vertex 87.75714285671711 5.899999998509884 0
    endloop
  endfacet
  facet normal 0 0 -1
    outer loop
      vertex 113.14285714179277 -3.0099999979138374 0
      vertex 94.28571428358555 -3.0099999979138374 0
      vertex 94.28571428358555 0 0
    endloop
  endfacet
  facet normal 0 0 -1
    outer loop
      vertex 113.14285714179277 0 0
      vertex 113.14285714179277 -3.0099999979138374 0
      vertex 94.28571428358555 0 0
    endloop
  endfacet
  facet normal 0 0 -1
    outer loop
      vertex 132 12.857142858207226 0
      vertex 132 0 0
      vertex 113.14285714179277 0 0
    endloop
  endfacet
  facet normal 0 0 -1
    outer loop
      vertex 135 25.71428571641445 0
      vertex 135 12.857142858207226 0
      vertex 132 12.857142858207226 0
    endloop
  endfacet
  facet normal 0 0 -1
    outer loop
      vertex 132 25.71428571641445 0
      vertex 135 25.71428571641445 0
      vertex 132 12.857142858207226 0
    endloop
  endfacet
  facet normal 0 0 -1
    outer loop
      vertex 135 77.14285714179277 0
      vertex 135 64.28571428358555 0
      vertex 132 64.28571428358555 0
    endloop
  endfacet
  facet normal 0 0 -1
    outer loop
      vertex 132 77.14285714179277 0
      vertex 135 77.14285714179277 0
      vertex 132 64.28571428358555 0
    endloop
  endfacet
  facet normal 0 0 -1
    outer loop
      vertex -3 64.28571428358555 0
      vertex -3 77.14285714179277 0
      vertex 0 77.14285714179277 0
    endloop
  endfacet
  facet normal 0 0 -1
    outer loop
      vertex 0 64.28571428358555 0
      vertex -3 64.28571428358555 0
      vertex 0 77.14285714179277 0
    endloop
  endfacet
  facet normal 0 0 -1
    outer loop
      vertex -3 12.857142858207226 0
      vertex -3 25.71428571641445 0
      vertex 0 25.71428571641445 0
    endloop
  endfacet
  facet normal 0 0 -1
    outer loop
      vertex 0 12.857142858207226 0
      vertex -3 12.857142858207226 0
      vertex 0 25.71428571641445 0
    endloop
  endfacet
  facet normal 0 0 -1
    outer loop
      vertex 126.10000000149012 29.24285714328289 0
      vertex 132 25.71428571641445 0
      vertex 132 12.857142858207226 0
    endloop
  endfacet
  facet normal 0 0 -1
    outer loop
      vertex 126.10000000149012 29.24285714328289 0
      vertex 132 12.857142858207226 0
      vertex 113.14285714179277 0 0
    endloop
  endfacet
  facet normal 0 0 -1
    outer loop
      vertex 124 29.24285714328289 0
      vertex 126.10000000149012 29.24285714328289 0
      vertex 113.14285714179277 0 0
    endloop
  endfacet
  facet normal 0 0 -1
    outer loop
      vertex 124 29.24285714328289 0
      vertex 113.14285714179277 0 0
      vertex 94.28571428358555 0 0
    endloop
  endfacet
  facet normal 0 0 -1
    outer loop
      vertex 124 29.24285714328289 0
      vertex 94.28571428358555 0 0
      vertex 87.75714285671711 5.899999998509884 0
    endloop
  endfacet
  facet normal 0 0 -1
    outer loop
      vertex 124 29.24285714328289 0
      vertex 87.75714285671711 5.899999998509884 0
      vertex 87.75714285671711 8 0
    endloop
  endfacet
  facet normal 0 0 -1
    outer loop
      vertex 124 35.04285714030266 0
      vertex 124 29.24285714328289 0
      vertex 87.75714285671711 8 0
    endloop
  endfacet
  facet normal 0 0 -1
    outer loop
      vertex 132 77.14285714179277 0
      vertex 132 64.28571428358555 0
      vertex 126.10000000149012 60.75714285671711 0
    endloop
  endfacet
  facet normal 0 0 -1
    outer loop
      vertex 113.14285714179277 90 0
      vertex 132 77.14285714179277 0
      vertex 126.10000000149012 60.75714285671711 0
    endloop
  endfacet
  facet normal 0 0 -1
    outer loop
      vertex 113.14285714179277 90 0
      vertex 126.10000000149012 60.75714285671711 0
      vertex 124 60.75714285671711 0
    endloop
  endfacet
  facet normal 0 0 -1
    outer loop
      vertex 94.28571428358555 90 0
      vertex 113.14285714179277 90 0
      vertex 124 60.75714285671711 0
    endloop
  endfacet
  facet normal 0 0 -1
    outer loop
      vertex 87.75714285671711 84.10000000149012 0
      vertex 94.28571428358555 90 0
      vertex 124 60.75714285671711 0
    endloop
  endfacet
  facet normal 0 0 -1
    outer loop
      vertex 87.75714285671711 82 0
      vertex 87.75714285671711 84.10000000149012 0
      vertex 124 60.75714285671711 0
    endloop
  endfacet
  facet normal 0 0 -1
    outer loop
      vertex 87.75714285671711 82 0
      vertex 124 60.75714285671711 0
      vertex 124 54.95714285969734 0
    endloop
  endfacet
  facet normal 0 0 -1
    outer loop
      vertex 5.899999998509884 60.75714285671711 0
      vertex 0 64.28571428358555 0
      vertex 0 77.14285714179277 0
    endloop
  endfacet
  facet normal 0 0 -1
    outer loop
      vertex 5.899999998509884 60.75714285671711 0
      vertex 0 77.14285714179277 0
      vertex 18.857142858207226 90 0
    endloop
  endfacet
  facet normal 0 0 -1
    outer loop
      vertex 8 60.75714285671711 0
      vertex 5.899999998509884 60.75714285671711 0
      vertex 18.857142858207226 90 0
    endloop
  endfacet
  facet normal 0 0 -1
    outer loop
      vertex 8 60.75714285671711 0
      vertex 18.857142858207226 90 0
      vertex 37.71428571641445 90 0
    endloop
  endfacet
  facet normal 0 0 -1
    outer loop
      vertex 8 60.75714285671711 0
      vertex 37.71428571641445 90 0
      vertex 44.24285714328289 84.10000000149012 0
    endloop
  endfacet
  facet normal 0 0 -1
    outer loop
      vertex 8 60.75714285671711 0
      vertex 44.24285714328289 84.10000000149012 0
      vertex 44.24285714328289 82 0
    endloop
  endfacet
  facet normal 0 0 -1
    outer loop
      vertex 8 54.95714285969734 0
      vertex 8 60.75714285671711 0
      vertex 44.24285714328289 82 0
    endloop
  endfacet
  facet normal 0 0 -1
    outer loop
      vertex 0 12.857142858207226 0
      vertex 0 25.71428571641445 0
      vertex 5.899999998509884 29.24285714328289 0
    endloop
  endfacet
  facet normal 0 0 -1
    outer loop
      vertex 18.857142858207226 0 0
      vertex 0 12.857142858207226 0
      vertex 5.899999998509884 29.24285714328289 0
    endloop
  endfacet
  facet normal 0 0 -1
    outer loop
      vertex 18.857142858207226 0 0
      vertex 5.899999998509884 29.24285714328289 0
      vertex 8 29.24285714328289 0
    endloop
  endfacet
  facet normal 0 0 -1
    outer loop
      vertex 37.71428571641445 0 0
      vertex 18.857142858207226 0 0
      vertex 8 29.24285714328289 0
    endloop
  endfacet
  facet normal 0 0 -1
    outer loop
      vertex 44.24285714328289 5.899999998509884 0
      vertex 37.71428571641445 0 0
      vertex 8 29.24285714328289 0
    endloop
  endfacet
  facet normal 0 0 -1
    outer loop
      vertex 44.24285714328289 8 0
      vertex 44.24285714328289 5.899999998509884 0
      vertex 8 29.24285714328289 0
    endloop
  endfacet
  facet normal 0 0 -1
    outer loop
      vertex 44.24285714328289 8 0
      vertex 8 29.24285714328289 0
      vertex 8 35.04285714030266 0
    endloop
  endfacet
  facet normal 0 0 -1
    outer loop
      vertex 132 51.42857142537832 0
      vertex 132 38.57142857462168 0
      vertex 126.10000000149012 35.04285714030266 0
    endloop
  endfacet
  facet normal 0 0 -1
    outer loop
      vertex 126.10000000149012 54.95714285969734 0
      vertex 132 51.42857142537832 0
      vertex 126.10000000149012 35.04285714030266 0
    endloop
  endfacet
  facet normal 0 0 -1
    outer loop
      vertex 126.10000000149012 54.95714285969734 0
      vertex 126.10000000149012 35.04285714030266 0
      vertex 124 35.04285714030266 0
    endloop
  endfacet
  facet normal 0 0 -1
    outer loop
      vertex 124 54.95714285969734 0
      vertex 126.10000000149012 54.95714285969734 0
      vertex 124 35.04285714030266 0
    endloop
  endfacet
  facet normal 0 0 -1
    outer loop
      vertex 0 38.57142857462168 0
      vertex 0 51.42857142537832 0
      vertex 5.899999998509884 54.95714285969734 0
    endloop
  endfacet
  facet normal 0 0 -1
    outer loop
      vertex 5.899999998509884 35.04285714030266 0
      vertex 0 38.57142857462168 0
      vertex 5.899999998509884 54.95714285969734 0
    endloop
  endfacet
  facet normal 0 0 -1
    outer loop
      vertex 5.899999998509884 35.04285714030266 0
      vertex 5.899999998509884 54.95714285969734 0
      vertex 8 54.95714285969734 0
    endloop
  endfacet
  facet normal 0 0 -1
    outer loop
      vertex 8 35.04285714030266 0
      vertex 5.899999998509884 35.04285714030266 0
      vertex 8 54.95714285969734 0
    endloop
  endfacet
  facet normal 0 0 -1
    outer loop
      vertex 124 54.95714285969734 0
      vertex 124 35.04285714030266 0
      vertex 87.75714285671711 8 0
    endloop
  endfacet
  facet normal 0 0 -1
    outer loop
      vertex 87.75714285671711 82 0
      vertex 124 54.95714285969734 0
      vertex 87.75714285671711 8 0
    endloop
  endfacet
  facet normal 0 0 -1
    outer loop
      vertex 87.75714285671711 82 0
      vertex 87.75714285671711 8 0
      vertex 81.95714285969734 8 0
    endloop
  endfacet
  facet normal 0 0 -1
    outer loop
      vertex 81.95714285969734 82 0
      vertex 87.75714285671711 82 0
      vertex 81.95714285969734 8 0
    endloop
  endfacet
  facet normal 0 0 -1
    outer loop
      vertex 8 35.04285714030266 0
      vertex 8 54.95714285969734 0
      vertex 44.24285714328289 82 0
    endloop
  endfacet
  facet normal 0 0 -1
    outer loop
      vertex 44.24285714328289 8 0
      vertex 8 35.04285714030266 0
      vertex 44.24285714328289 82 0
    endloop
  endfacet
  facet normal 0 0 -1
    outer loop
      vertex 44.24285714328289 8 0
      vertex 44.24285714328289 82 0
      vertex 50.04285714030266 82 0
    endloop
  endfacet
  facet normal 0 0 -1
    outer loop
      vertex 50.04285714030266 8 0
      vertex 44.24285714328289 8 0
      vertex 50.04285714030266 82 0
    endloop
  endfacet
  facet normal 0 0 -1
    outer loop
      vertex 75.42857142537832 90 0
      vertex 81.95714285969734 84.10000000149012 0
      vertex 81.95714285969734 82 0
    endloop
  endfacet
  facet normal 0 0 -1
    outer loop
      vertex 56.57142857462168 90 0
      vertex 75.42857142537832 90 0
      vertex 81.95714285969734 82 0
    endloop
  endfacet
  facet normal 0 0 -1
    outer loop
      vertex 56.57142857462168 90 0
      vertex 81.95714285969734 82 0
      vertex 81.95714285969734 8 0
    endloop
  endfacet
  facet normal 0 0 -1
    outer loop
      vertex 50.04285714030266 84.10000000149012 0
      vertex 56.57142857462168 90 0
      vertex 81.95714285969734 8 0
    endloop
  endfacet
  facet normal 0 0 -1
    outer loop
      vertex 50.04285714030266 82 0
      vertex 50.04285714030266 84.10000000149012 0
      vertex 81.95714285969734 8 0
    endloop
  endfacet
  facet normal 0 0 -1
    outer loop
      vertex 50.04285714030266 8 0
      vertex 50.04285714030266 82 0
      vertex 81.95714285969734 8 0
    endloop
  endfacet
  facet normal 0 0 -1
    outer loop
      vertex 50.04285714030266 8 0
      vertex 81.95714285969734 8 0
      vertex 81.95714285969734 5.899999998509884 0
    endloop
  endfacet
  facet normal 0 0 -1
    outer loop
      vertex 50.04285714030266 5.899999998509884 0
      vertex 50.04285714030266 8 0
      vertex 81.95714285969734 5.899999998509884 0
    endloop
  endfacet
  facet normal 0 0 -1
    outer loop
      vertex 50.04285714030266 5.899999998509884 0
      vertex 81.95714285969734 5.899999998509884 0
      vertex 75.42857142537832 0 0
    endloop
  endfacet
  facet normal 0 0 -1
    outer loop
      vertex 50.04285714030266 5.899999998509884 0
      vertex 75.42857142537832 0 0
      vertex 56.57142857462168 0 0
    endloop
  endfacet
endsolid OpenSCAD_Model
