999
DXF from OpenSCAD
  0
SECTION
  2
HEADER
  9
$ACADVER
  1
AC1006
  9
$INSBASE
 10
0.0
 20
0.0
 30
0.0
  9
$EXTMIN
 10
-75
 20
40
  9
$EXTMAX
 10
75
 20
106
  9
$LINMIN
 10
-75
 20
40
  9
$LINMAX
 10
75
 20
106
  0
ENDSEC
  0
SECTION
  2
TABLES
  0
TABLE
  2
LTYPE
 70
1
  0
LTYPE
  2
CONTINUOUS
 70
64
  3
Solid line
 72
65
 73
0
 40
0.000000
  0
ENDTAB
  0
TABLE
  2
LAYER
 70
6
  0
LAYER
  2
0
 70
64
 62
7
  6
CONTINUOUS
  0
ENDTAB
  0
TABLE
  2
STYLE
 70
0
  0
ENDTAB
  0
ENDSEC
  0
SECTION
  2
BLOCKS
  0
ENDSEC
  0
SECTION
  2
ENTITIES
  0
LWPOLYLINE
100
AcDbEntity
  8
0
100
AcDbPolyline
 90
71
 70
1
 10
72.4693
 20
40.0369
 10
72.9271
 20
40.1468
 10
73.362
 20
40.327
 10
73.7634
 20
40.5729
 10
74.1213
 20
40.8787
 10
74.4271
 20
41.2366
 10
74.673
 20
41.638
 10
74.8532
 20
42.0729
 10
74.9631
 20
42.5307
 10
75
 20
43
 10
75
 20
103
 10
74.9631
 20
103.469
 10
74.8532
 20
103.927
 10
74.673
 20
104.362
 10
74.4271
 20
104.763
 10
74.1213
 20
105.121
 10
73.7634
 20
105.427
 10
73.362
 20
105.673
 10
72.9271
 20
105.853
 10
72.4693
 20
105.963
 10
72
 20
106
 10
-72
 20
106
 10
-72.4693
 20
105.963
 10
-72.9271
 20
105.853
 10
-73.362
 20
105.673
 10
-73.7634
 20
105.427
 10
-74.1213
 20
105.121
 10
-74.4271
 20
104.763
 10
-74.673
 20
104.362
 10
-74.8532
 20
103.927
 10
-74.9631
 20
103.469
 10
-75
 20
103
 10
-75
 20
43
 10
-74.9631
 20
42.5307
 10
-74.8532
 20
42.0729
 10
-74.673
 20
41.638
 10
-74.4271
 20
41.2366
 10
-74.1213
 20
40.8787
 10
-73.7634
 20
40.5729
 10
-73.362
 20
40.327
 10
-72.9271
 20
40.1468
 10
-72.4693
 20
40.0369
 10
-72
 20
40
 10
-26.3426
 20
40
 10
-26.1737
 20
42.1455
 10
-25.203
 20
46.189
 10
-25.0991
 20
46.4397
 10
-26
 20
48
 10
-24
 20
51.4641
 10
-22.7333
 20
51.4641
 10
-21.439
 20
53.5763
 10
-18.7383
 20
56.7383
 10
-15.5763
 20
59.439
 10
-12.0307
 20
61.6117
 10
-8.18895
 20
63.203
 10
-4.14551
 20
64.1737
 10
0
 20
64.5
 10
4.14551
 20
64.1737
 10
8.18895
 20
63.203
 10
12.0307
 20
61.6117
 10
15.5763
 20
59.439
 10
18.7383
 20
56.7383
 10
21.439
 20
53.5763
 10
22.7333
 20
51.4641
 10
24
 20
51.4641
 10
26
 20
48
 10
25.0991
 20
46.4397
 10
25.203
 20
46.189
 10
26.1737
 20
42.1455
 10
26.3426
 20
40
 10
72
 20
40
  0
LWPOLYLINE
100
AcDbEntity
  8
0
100
AcDbPolyline
 90
40
 70
1
 10
20.0797
 20
95.8797
 10
19.8356
 20
95.9383
 10
19.6036
 20
96.0344
 10
19.3895
 20
96.1656
 10
19.1986
 20
96.3286
 10
19.0356
 20
96.5195
 10
18.9044
 20
96.7336
 10
18.8083
 20
96.9656
 10
18.7497
 20
97.2097
 10
18.73
 20
97.46
 10
18.7497
 20
97.7103
 10
18.8083
 20
97.9544
 10
18.9044
 20
98.1864
 10
19.0356
 20
98.4005
 10
19.1986
 20
98.5914
 10
19.3895
 20
98.7544
 10
19.6036
 20
98.8856
 10
19.8356
 20
98.9817
 10
20.0797
 20
99.0403
 10
20.33
 20
99.06
 10
20.5803
 20
99.0403
 10
20.8244
 20
98.9817
 10
21.0564
 20
98.8856
 10
21.2705
 20
98.7544
 10
21.4614
 20
98.5914
 10
21.6244
 20
98.4005
 10
21.7556
 20
98.1864
 10
21.8517
 20
97.9544
 10
21.9103
 20
97.7103
 10
21.93
 20
97.46
 10
21.9103
 20
97.2097
 10
21.8517
 20
96.9656
 10
21.7556
 20
96.7336
 10
21.6244
 20
96.5195
 10
21.4614
 20
96.3286
 10
21.2705
 20
96.1656
 10
21.0564
 20
96.0344
 10
20.8244
 20
95.9383
 10
20.5803
 20
95.8797
 10
20.33
 20
95.86
  0
LWPOLYLINE
100
AcDbEntity
  8
0
100
AcDbPolyline
 90
40
 70
1
 10
-69.3442
 20
91.8271
 10
-69.6798
 20
91.9077
 10
-69.9988
 20
92.0398
 10
-70.2931
 20
92.2202
 10
-70.5556
 20
92.4444
 10
-70.7798
 20
92.7069
 10
-70.9602
 20
93.0012
 10
-71.0923
 20
93.3202
 10
-71.1729
 20
93.6558
 10
-71.2
 20
94
 10
-71.1729
 20
94.3442
 10
-71.0923
 20
94.6798
 10
-70.9602
 20
94.9988
 10
-70.7798
 20
95.2931
 10
-70.5556
 20
95.5556
 10
-70.2931
 20
95.7798
 10
-69.9988
 20
95.9602
 10
-69.6798
 20
96.0923
 10
-69.3442
 20
96.1729
 10
-69
 20
96.2
 10
-68.6558
 20
96.1729
 10
-68.3202
 20
96.0923
 10
-68.0012
 20
95.9602
 10
-67.7069
 20
95.7798
 10
-67.4444
 20
95.5556
 10
-67.2202
 20
95.2931
 10
-67.0398
 20
94.9988
 10
-66.9077
 20
94.6798
 10
-66.8271
 20
94.3442
 10
-66.8
 20
94
 10
-66.8271
 20
93.6558
 10
-66.9077
 20
93.3202
 10
-67.0398
 20
93.0012
 10
-67.2202
 20
92.7069
 10
-67.4444
 20
92.4444
 10
-67.7069
 20
92.2202
 10
-68.0012
 20
92.0398
 10
-68.3202
 20
91.9077
 10
-68.6558
 20
91.8271
 10
-69
 20
91.8
  0
LWPOLYLINE
100
AcDbEntity
  8
0
100
AcDbPolyline
 90
40
 70
1
 10
68.6558
 20
91.8271
 10
68.3202
 20
91.9077
 10
68.0012
 20
92.0398
 10
67.7069
 20
92.2202
 10
67.4444
 20
92.4444
 10
67.2202
 20
92.7069
 10
67.0398
 20
93.0012
 10
66.9077
 20
93.3202
 10
66.8271
 20
93.6558
 10
66.8
 20
94
 10
66.8271
 20
94.3442
 10
66.9077
 20
94.6798
 10
67.0398
 20
94.9988
 10
67.2202
 20
95.2931
 10
67.4444
 20
95.5556
 10
67.7069
 20
95.7798
 10
68.0012
 20
95.9602
 10
68.3202
 20
96.0923
 10
68.6558
 20
96.1729
 10
69
 20
96.2
 10
69.3442
 20
96.1729
 10
69.6798
 20
96.0923
 10
69.9988
 20
95.9602
 10
70.2931
 20
95.7798
 10
70.5556
 20
95.5556
 10
70.7798
 20
95.2931
 10
70.9602
 20
94.9988
 10
71.0923
 20
94.6798
 10
71.1729
 20
94.3442
 10
71.2
 20
94
 10
71.1729
 20
93.6558
 10
71.0923
 20
93.3202
 10
70.9602
 20
93.0012
 10
70.7798
 20
92.7069
 10
70.5556
 20
92.4444
 10
70.2931
 20
92.2202
 10
69.9988
 20
92.0398
 10
69.6798
 20
91.9077
 10
69.3442
 20
91.8271
 10
69
 20
91.8
  0
LWPOLYLINE
100
AcDbEntity
  8
0
100
AcDbPolyline
 90
40
 70
1
 10
-31.9903
 20
90.7997
 10
-32.2344
 20
90.8583
 10
-32.4664
 20
90.9544
 10
-32.6805
 20
91.0856
 10
-32.8714
 20
91.2486
 10
-33.0344
 20
91.4395
 10
-33.1656
 20
91.6536
 10
-33.2617
 20
91.8856
 10
-33.3203
 20
92.1297
 10
-33.34
 20
92.38
 10
-33.3203
 20
92.6303
 10
-33.2617
 20
92.8744
 10
-33.1656
 20
93.1064
 10
-33.0344
 20
93.3205
 10
-32.8714
 20
93.5114
 10
-32.6805
 20
93.6744
 10
-32.4664
 20
93.8056
 10
-32.2344
 20
93.9017
 10
-31.9903
 20
93.9603
 10
-31.74
 20
93.98
 10
-31.4897
 20
93.9603
 10
-31.2456
 20
93.9017
 10
-31.0136
 20
93.8056
 10
-30.7995
 20
93.6744
 10
-30.6086
 20
93.5114
 10
-30.4456
 20
93.3205
 10
-30.3144
 20
93.1064
 10
-30.2183
 20
92.8744
 10
-30.1597
 20
92.6303
 10
-30.14
 20
92.38
 10
-30.1597
 20
92.1297
 10
-30.2183
 20
91.8856
 10
-30.3144
 20
91.6536
 10
-30.4456
 20
91.4395
 10
-30.6086
 20
91.2486
 10
-30.7995
 20
91.0856
 10
-31.0136
 20
90.9544
 10
-31.2456
 20
90.8583
 10
-31.4897
 20
90.7997
 10
-31.74
 20
90.78
  0
LWPOLYLINE
100
AcDbEntity
  8
0
100
AcDbPolyline
 90
40
 70
1
 10
-72.7386
 20
80.4938
 10
-72.9713
 20
80.5496
 10
-73.1923
 20
80.6412
 10
-73.3964
 20
80.7662
 10
-73.5783
 20
80.9217
 10
-73.7338
 20
81.1036
 10
-73.8588
 20
81.3077
 10
-73.9504
 20
81.5287
 10
-74.0062
 20
81.7614
 10
-74.025
 20
82
 10
-74.0062
 20
82.2386
 10
-73.9504
 20
82.4713
 10
-73.8588
 20
82.6923
 10
-73.7338
 20
82.8964
 10
-73.5783
 20
83.0783
 10
-73.3964
 20
83.2338
 10
-73.1923
 20
83.3588
 10
-72.9713
 20
83.4504
 10
-72.7386
 20
83.5062
 10
-72.5
 20
83.525
 10
-72.2614
 20
83.5062
 10
-72.0287
 20
83.4504
 10
-71.8077
 20
83.3588
 10
-71.6036
 20
83.2338
 10
-71.4217
 20
83.0783
 10
-71.2662
 20
82.8964
 10
-71.1412
 20
82.6923
 10
-71.0496
 20
82.4713
 10
-70.9938
 20
82.2386
 10
-70.975
 20
82
 10
-70.9938
 20
81.7614
 10
-71.0496
 20
81.5287
 10
-71.1412
 20
81.3077
 10
-71.2662
 20
81.1036
 10
-71.4217
 20
80.9217
 10
-71.6036
 20
80.7662
 10
-71.8077
 20
80.6412
 10
-72.0287
 20
80.5496
 10
-72.2614
 20
80.4938
 10
-72.5
 20
80.475
  0
LWPOLYLINE
100
AcDbEntity
  8
0
100
AcDbPolyline
 90
7
 70
1
 10
-54
 20
76
 10
-42
 20
83
 10
-42
 20
79
 10
-28
 20
79
 10
-28
 20
73
 10
-42
 20
73
 10
-42
 20
69
  0
LWPOLYLINE
100
AcDbEntity
  8
0
100
AcDbPolyline
 90
40
 70
1
 10
72.2614
 20
73.4938
 10
72.0287
 20
73.5496
 10
71.8077
 20
73.6412
 10
71.6036
 20
73.7662
 10
71.4217
 20
73.9217
 10
71.2662
 20
74.1036
 10
71.1412
 20
74.3077
 10
71.0496
 20
74.5287
 10
70.9938
 20
74.7614
 10
70.975
 20
75
 10
70.9938
 20
75.2386
 10
71.0496
 20
75.4713
 10
71.1412
 20
75.6923
 10
71.2662
 20
75.8964
 10
71.4217
 20
76.0783
 10
71.6036
 20
76.2338
 10
71.8077
 20
76.3588
 10
72.0287
 20
76.4504
 10
72.2614
 20
76.5062
 10
72.5
 20
76.525
 10
72.7386
 20
76.5062
 10
72.9713
 20
76.4504
 10
73.1923
 20
76.3588
 10
73.3964
 20
76.2338
 10
73.5783
 20
76.0783
 10
73.7338
 20
75.8964
 10
73.8588
 20
75.6923
 10
73.9504
 20
75.4713
 10
74.0062
 20
75.2386
 10
74.025
 20
75
 10
74.0062
 20
74.7614
 10
73.9504
 20
74.5287
 10
73.8588
 20
74.3077
 10
73.7338
 20
74.1036
 10
73.5783
 20
73.9217
 10
73.3964
 20
73.7662
 10
73.1923
 20
73.6412
 10
72.9713
 20
73.5496
 10
72.7386
 20
73.4938
 10
72.5
 20
73.475
  0
LWPOLYLINE
100
AcDbEntity
  8
0
100
AcDbPolyline
 90
40
 70
1
 10
-31.9903
 20
62.8597
 10
-32.2344
 20
62.9183
 10
-32.4664
 20
63.0144
 10
-32.6805
 20
63.1456
 10
-32.8714
 20
63.3086
 10
-33.0344
 20
63.4995
 10
-33.1656
 20
63.7136
 10
-33.2617
 20
63.9456
 10
-33.3203
 20
64.1897
 10
-33.34
 20
64.44
 10
-33.3203
 20
64.6903
 10
-33.2617
 20
64.9344
 10
-33.1656
 20
65.1664
 10
-33.0344
 20
65.3805
 10
-32.8714
 20
65.5714
 10
-32.6805
 20
65.7344
 10
-32.4664
 20
65.8656
 10
-32.2344
 20
65.9617
 10
-31.9903
 20
66.0203
 10
-31.74
 20
66.04
 10
-31.4897
 20
66.0203
 10
-31.2456
 20
65.9617
 10
-31.0136
 20
65.8656
 10
-30.7995
 20
65.7344
 10
-30.6086
 20
65.5714
 10
-30.4456
 20
65.3805
 10
-30.3144
 20
65.1664
 10
-30.2183
 20
64.9344
 10
-30.1597
 20
64.6903
 10
-30.14
 20
64.44
 10
-30.1597
 20
64.1897
 10
-30.2183
 20
63.9456
 10
-30.3144
 20
63.7136
 10
-30.4456
 20
63.4995
 10
-30.6086
 20
63.3086
 10
-30.7995
 20
63.1456
 10
-31.0136
 20
63.0144
 10
-31.2456
 20
62.9183
 10
-31.4897
 20
62.8597
 10
-31.74
 20
62.84
  0
LWPOLYLINE
100
AcDbEntity
  8
0
100
AcDbPolyline
 90
40
 70
1
 10
-69.3442
 20
53.8271
 10
-69.6798
 20
53.9077
 10
-69.9988
 20
54.0398
 10
-70.2931
 20
54.2202
 10
-70.5556
 20
54.4444
 10
-70.7798
 20
54.7069
 10
-70.9602
 20
55.0012
 10
-71.0923
 20
55.3202
 10
-71.1729
 20
55.6558
 10
-71.2
 20
56
 10
-71.1729
 20
56.3442
 10
-71.0923
 20
56.6798
 10
-70.9602
 20
56.9988
 10
-70.7798
 20
57.2931
 10
-70.5556
 20
57.5556
 10
-70.2931
 20
57.7798
 10
-69.9988
 20
57.9602
 10
-69.6798
 20
58.0923
 10
-69.3442
 20
58.1729
 10
-69
 20
58.2
 10
-68.6558
 20
58.1729
 10
-68.3202
 20
58.0923
 10
-68.0012
 20
57.9602
 10
-67.7069
 20
57.7798
 10
-67.4444
 20
57.5556
 10
-67.2202
 20
57.2931
 10
-67.0398
 20
56.9988
 10
-66.9077
 20
56.6798
 10
-66.8271
 20
56.3442
 10
-66.8
 20
56
 10
-66.8271
 20
55.6558
 10
-66.9077
 20
55.3202
 10
-67.0398
 20
55.0012
 10
-67.2202
 20
54.7069
 10
-67.4444
 20
54.4444
 10
-67.7069
 20
54.2202
 10
-68.0012
 20
54.0398
 10
-68.3202
 20
53.9077
 10
-68.6558
 20
53.8271
 10
-69
 20
53.8
  0
LWPOLYLINE
100
AcDbEntity
  8
0
100
AcDbPolyline
 90
40
 70
1
 10
68.6558
 20
53.8271
 10
68.3202
 20
53.9077
 10
68.0012
 20
54.0398
 10
67.7069
 20
54.2202
 10
67.4444
 20
54.4444
 10
67.2202
 20
54.7069
 10
67.0398
 20
55.0012
 10
66.9077
 20
55.3202
 10
66.8271
 20
55.6558
 10
66.8
 20
56
 10
66.8271
 20
56.3442
 10
66.9077
 20
56.6798
 10
67.0398
 20
56.9988
 10
67.2202
 20
57.2931
 10
67.4444
 20
57.5556
 10
67.7069
 20
57.7798
 10
68.0012
 20
57.9602
 10
68.3202
 20
58.0923
 10
68.6558
 20
58.1729
 10
69
 20
58.2
 10
69.3442
 20
58.1729
 10
69.6798
 20
58.0923
 10
69.9988
 20
57.9602
 10
70.2931
 20
57.7798
 10
70.5556
 20
57.5556
 10
70.7798
 20
57.2931
 10
70.9602
 20
56.9988
 10
71.0923
 20
56.6798
 10
71.1729
 20
56.3442
 10
71.2
 20
56
 10
71.1729
 20
55.6558
 10
71.0923
 20
55.3202
 10
70.9602
 20
55.0012
 10
70.7798
 20
54.7069
 10
70.5556
 20
54.4444
 10
70.2931
 20
54.2202
 10
69.9988
 20
54.0398
 10
69.6798
 20
53.9077
 10
69.3442
 20
53.8271
 10
69
 20
53.8
  0
LWPOLYLINE
100
AcDbEntity
  8
0
100
AcDbPolyline
 90
6
 70
1
 10
-46
 20
44.5359
 10
-48
 20
48
 10
-46
 20
51.4641
 10
-42
 20
51.4641
 10
-40
 20
48
 10
-42
 20
44.5359
  0
LWPOLYLINE
100
AcDbEntity
  8
0
100
AcDbPolyline
 90
6
 70
1
 10
42
 20
44.5359
 10
40
 20
48
 10
42
 20
51.4641
 10
46
 20
51.4641
 10
48
 20
48
 10
46
 20
44.5359
  0
ENDSEC
  0
EOF
