solid OpenSCAD_Model
  facet normal 0 0 1
    outer loop
      vertex -2.1 2.1 10.5
      vertex -0.3 -40.800000000000004 10.5
      vertex -0.3 0.3 10.5
    endloop
  endfacet
  facet normal 0 0 1
    outer loop
      vertex -2.1 2.1 10.5
      vertex -0.3 0.3 10.5
      vertex 108.3 0.3 10.5
    endloop
  endfacet
  facet normal -1 0 0
    outer loop
      vertex -2.1 2.1 10.5
      vertex -2.1 2.1 2.5
      vertex -2.1 -42.6 2.5
    endloop
  endfacet
  facet normal 0 1 0
    outer loop
      vertex -2.1 2.1 10.5
      vertex 110.10000000000001 2.1 2.5
      vertex -2.1 2.1 2.5
    endloop
  endfacet
  facet normal 0 0 1
    outer loop
      vertex -2.1 2.1 10.5
      vertex -2.1 -42.6 10.5
      vertex -0.3 -40.800000000000004 10.5
    endloop
  endfacet
  facet normal -1 0 0
    outer loop
      vertex -2.1 2.1 10.5
      vertex -2.1 -42.6 2.5
      vertex -2.1 -42.6 10.5
    endloop
  endfacet
  facet normal 0 0 1
    outer loop
      vertex -0.3 -40.800000000000004 10.5
      vertex -2.1 -42.6 10.5
      vertex 110.10000000000001 -42.6 10.5
    endloop
  endfacet
  facet normal 0 -1 0
    outer loop
      vertex -2.1 -42.6 10.5
      vertex -2.1 -42.6 2.5
      vertex 110.10000000000001 -42.6 10.5
    endloop
  endfacet
  facet normal 0 0 1
    outer loop
      vertex -2.1 2.1 10.5
      vertex 108.3 0.3 10.5
      vertex 110.10000000000001 2.1 10.5
    endloop
  endfacet
  facet normal 0 1 0
    outer loop
      vertex -2.1 2.1 10.5
      vertex 110.10000000000001 2.1 10.5
      vertex 110.10000000000001 2.1 2.5
    endloop
  endfacet
  facet normal 0 0 1
    outer loop
      vertex 110.10000000000001 2.1 10.5
      vertex 108.3 0.3 10.5
      vertex 110.10000000000001 -42.6 10.5
    endloop
  endfacet
  facet normal 1 0 0
    outer loop
      vertex 110.10000000000001 2.1 10.5
      vertex 110.10000000000001 -42.6 10.5
      vertex 110.10000000000001 2.1 2.5
    endloop
  endfacet
  facet normal 0 0 1
    outer loop
      vertex -0.3 -40.800000000000004 10.5
      vertex 110.10000000000001 -42.6 10.5
      vertex 108.3 -40.800000000000004 10.5
    endloop
  endfacet
  facet normal 0 0 1
    outer loop
      vertex 108.3 0.3 10.5
      vertex 108.3 -40.800000000000004 10.5
      vertex 110.10000000000001 -42.6 10.5
    endloop
  endfacet
  facet normal 0 -1 0
    outer loop
      vertex -2.1 -42.6 2.5
      vertex 110.10000000000001 -42.6 2.5
      vertex 110.10000000000001 -42.6 10.5
    endloop
  endfacet
  facet normal 1 0 0
    outer loop
      vertex 110.10000000000001 2.1 2.5
      vertex 110.10000000000001 -42.6 10.5
      vertex 110.10000000000001 -42.6 2.5
    endloop
  endfacet
  facet normal 0 -1 0
    outer loop
      vertex -0.3 0.3 10.5
      vertex -0.3 0.3 2.5
      vertex 108.3 0.3 10.5
    endloop
  endfacet
  facet normal 1 0 0
    outer loop
      vertex -0.3 0.3 10.5
      vertex -0.3 -40.800000000000004 2.5
      vertex -0.3 0.3 2.5
    endloop
  endfacet
  facet normal 1 0 0
    outer loop
      vertex -0.3 0.3 10.5
      vertex -0.3 -40.800000000000004 10.5
      vertex -0.3 -40.800000000000004 2.5
    endloop
  endfacet
  facet normal 0 1 0
    outer loop
      vertex -0.3 -40.800000000000004 10.5
      vertex 108.3 -40.800000000000004 2.5
      vertex -0.3 -40.800000000000004 2.5
    endloop
  endfacet
  facet normal -1 0 0
    outer loop
      vertex 108.3 0.3 10.5
      vertex 108.3 0.3 2.5
      vertex 108.3 -40.800000000000004 10.5
    endloop
  endfacet
  facet normal 0 -1 0
    outer loop
      vertex -0.3 0.3 2.5
      vertex 108.3 0.3 2.5
      vertex 108.3 0.3 10.5
    endloop
  endfacet
  facet normal 0 1 0
    outer loop
      vertex -0.3 -40.800000000000004 10.5
      vertex 108.3 -40.800000000000004 10.5
      vertex 108.3 -40.800000000000004 2.5
    endloop
  endfacet
  facet normal -1 0 0
    outer loop
      vertex 108.3 0.3 2.5
      vertex 108.3 -40.800000000000004 2.5
      vertex 108.3 -40.800000000000004 10.5
    endloop
  endfacet
  facet normal -1 0 0
    outer loop
      vertex -2.1 2.1 2.5
      vertex -2.1 2.1 0
      vertex -2.1 -42.6 0
    endloop
  endfacet
  facet normal 0 1 0
    outer loop
      vertex -2.1 2.1 2.5
      vertex 110.10000000000001 2.1 0
      vertex -2.1 2.1 0
    endloop
  endfacet
  facet normal 0 0 -1
    outer loop
      vertex -2.1 2.1 0
      vertex 110.10000000000001 2.1 0
      vertex -2.1 -42.6 0
    endloop
  endfacet
  facet normal -1 0 0
    outer loop
      vertex -2.1 2.1 2.5
      vertex -2.1 -42.6 0
      vertex -2.1 -42.6 2.5
    endloop
  endfacet
  facet normal 0 0 1
    outer loop
      vertex -0.3 0.3 2.5
      vertex -0.3 -40.800000000000004 2.5
      vertex 108.3 -40.800000000000004 2.5
    endloop
  endfacet
  facet normal 0 -1 0
    outer loop
      vertex -2.1 -42.6 2.5
      vertex -2.1 -42.6 0
      vertex 110.10000000000001 -42.6 2.5
    endloop
  endfacet
  facet normal 0 1 0
    outer loop
      vertex -2.1 2.1 2.5
      vertex 110.10000000000001 2.1 2.5
      vertex 110.10000000000001 2.1 0
    endloop
  endfacet
  facet normal 0 0 1
    outer loop
      vertex -0.3 0.3 2.5
      vertex 108.3 -40.800000000000004 2.5
      vertex 108.3 0.3 2.5
    endloop
  endfacet
  facet normal 1 0 0
    outer loop
      vertex 110.10000000000001 2.1 2.5
      vertex 110.10000000000001 -42.6 2.5
      vertex 110.10000000000001 2.1 0
    endloop
  endfacet
  facet normal 0 0 -1
    outer loop
      vertex -2.1 -42.6 0
      vertex 110.10000000000001 2.1 0
      vertex 110.10000000000001 -42.6 0
    endloop
  endfacet
  facet normal 0 -1 0
    outer loop
      vertex -2.1 -42.6 0
      vertex 110.10000000000001 -42.6 0
      vertex 110.10000000000001 -42.6 2.5
    endloop
  endfacet
  facet normal 1 0 0
    outer loop
      vertex 110.10000000000001 2.1 0
      vertex 110.10000000000001 -42.6 2.5
      vertex 110.10000000000001 -42.6 0
    endloop
  endfacet
endsolid OpenSCAD_Model
