solid OpenSCAD_Model
  facet normal 0 0 -1
    outer loop
      vertex 4 18.869999999999997 0
      vertex 0 0 0
      vertex 0 18.869999999999997 0
    endloop
  endfacet
  facet normal 0 0 -1
    outer loop
      vertex 0 0 0
      vertex 4 18.869999999999997 0
      vertex 4 0 0
    endloop
  endfacet
  facet normal -1 0 0
    outer loop
      vertex 0 0 0
      vertex 0 18.869999999999997 1.6
      vertex 0 18.869999999999997 0
    endloop
  endfacet
  facet normal 0 -1 0
    outer loop
      vertex 4 0 1.6
      vertex 0 0 0
      vertex 4 0 0
    endloop
  endfacet
  facet normal 1 0 0
    outer loop
      vertex 4 18.869999999999997 0
      vertex 4 0 1.6
      vertex 4 0 0
    endloop
  endfacet
  facet normal 0 1 0
    outer loop
      vertex 0 18.869999999999997 1.6
      vertex 4 18.869999999999997 0
      vertex 0 18.869999999999997 0
    endloop
  endfacet
  facet normal -1 0 0
    outer loop
      vertex 0 18.869999999999997 1.6
      vertex 0 0 0
      vertex 0 0 1.6
    endloop
  endfacet
  facet normal 0 -1 0
    outer loop
      vertex 0 0 0
      vertex 4 0 1.6
      vertex 0 0 1.6
    endloop
  endfacet
  facet normal 1 0 0
    outer loop
      vertex 4 0 1.6
      vertex 4 18.869999999999997 0
      vertex 4 18.869999999999997 1.6
    endloop
  endfacet
  facet normal 0 0 1
    outer loop
      vertex 4 0 1.6
      vertex 0 18.869999999999997 1.6
      vertex 0 0 1.6
    endloop
  endfacet
  facet normal 0 0 1
    outer loop
      vertex 0 18.869999999999997 1.6
      vertex 4 0 1.6
      vertex 4 18.869999999999997 1.6
    endloop
  endfacet
  facet normal 0 1 0
    outer loop
      vertex 4 18.869999999999997 0
      vertex 0 18.869999999999997 1.6
      vertex 4 18.869999999999997 1.6
    endloop
  endfacet
  facet normal 0 0 -1
    outer loop
      vertex 12 40.620000000000005 0
      vertex 8 0 0
      vertex 8 40.620000000000005 0
    endloop
  endfacet
  facet normal -1 0 0
    outer loop
      vertex 8 0 0
      vertex 8 40.620000000000005 1.6
      vertex 8 40.620000000000005 0
    endloop
  endfacet
  facet normal 0 -1 0
    outer loop
      vertex 8 0 0
      vertex 12 0 1.6
      vertex 8 0 1.6
    endloop
  endfacet
  facet normal -1 0 0
    outer loop
      vertex 8 40.620000000000005 1.6
      vertex 8 0 0
      vertex 8 0 1.6
    endloop
  endfacet
  facet normal 0 0 1
    outer loop
      vertex 12 0 1.6
      vertex 8 40.620000000000005 1.6
      vertex 8 0 1.6
    endloop
  endfacet
  facet normal 0 1 0
    outer loop
      vertex 8 40.620000000000005 1.6
      vertex 12 40.620000000000005 0
      vertex 8 40.620000000000005 0
    endloop
  endfacet
  facet normal 0 0 -1
    outer loop
      vertex 8 0 0
      vertex 12 40.620000000000005 0
      vertex 12 0 0
    endloop
  endfacet
  facet normal 0 -1 0
    outer loop
      vertex 12 0 1.6
      vertex 8 0 0
      vertex 12 0 0
    endloop
  endfacet
  facet normal 1 0 0
    outer loop
      vertex 12 40.620000000000005 0
      vertex 12 0 1.6
      vertex 12 0 0
    endloop
  endfacet
  facet normal 1 0 0
    outer loop
      vertex 12 0 1.6
      vertex 12 40.620000000000005 0
      vertex 12 40.620000000000005 1.6
    endloop
  endfacet
  facet normal 0 0 1
    outer loop
      vertex 8 40.620000000000005 1.6
      vertex 12 0 1.6
      vertex 12 40.620000000000005 1.6
    endloop
  endfacet
  facet normal 0 1 0
    outer loop
      vertex 12 40.620000000000005 0
      vertex 8 40.620000000000005 1.6
      vertex 12 40.620000000000005 1.6
    endloop
  endfacet
  facet normal 0 -1 0
    outer loop
      vertex 20 0 1.6
      vertex 16 0 0
      vertex 20 0 0
    endloop
  endfacet
  facet normal 0 0 -1
    outer loop
      vertex 16 0 0
      vertex 20 74.47999999999999 0
      vertex 20 0 0
    endloop
  endfacet
  facet normal 1 0 0
    outer loop
      vertex 20 74.47999999999999 0
      vertex 20 0 1.6
      vertex 20 0 0
    endloop
  endfacet
  facet normal 0 -1 0
    outer loop
      vertex 16 0 0
      vertex 20 0 1.6
      vertex 16 0 1.6
    endloop
  endfacet
  facet normal -1 0 0
    outer loop
      vertex 16 74.47999999999999 1.6
      vertex 16 0 0
      vertex 16 0 1.6
    endloop
  endfacet
  facet normal 0 0 1
    outer loop
      vertex 20 0 1.6
      vertex 16 74.47999999999999 1.6
      vertex 16 0 1.6
    endloop
  endfacet
  facet normal 0 0 -1
    outer loop
      vertex 20 74.47999999999999 0
      vertex 16 0 0
      vertex 16 74.47999999999999 0
    endloop
  endfacet
  facet normal -1 0 0
    outer loop
      vertex 16 0 0
      vertex 16 74.47999999999999 1.6
      vertex 16 74.47999999999999 0
    endloop
  endfacet
  facet normal 0 1 0
    outer loop
      vertex 16 74.47999999999999 1.6
      vertex 20 74.47999999999999 0
      vertex 16 74.47999999999999 0
    endloop
  endfacet
  facet normal 1 0 0
    outer loop
      vertex 20 0 1.6
      vertex 20 74.47999999999999 0
      vertex 20 74.47999999999999 1.6
    endloop
  endfacet
  facet normal 0 0 1
    outer loop
      vertex 16 74.47999999999999 1.6
      vertex 20 0 1.6
      vertex 20 74.47999999999999 1.6
    endloop
  endfacet
  facet normal 0 1 0
    outer loop
      vertex 20 74.47999999999999 0
      vertex 16 74.47999999999999 1.6
      vertex 20 74.47999999999999 1.6
    endloop
  endfacet
endsolid OpenSCAD_Model
