solid OpenSCAD_Model
  facet normal 0.6443123549676009 0.7647624397393639 0
    outer loop
      vertex 9.5 250.65999999642372 0
      vertex 17.5 243.92000000178814 1.6
      vertex 17.5 243.92000000178814 0
    endloop
  endfacet
  facet normal 0.6443123549676009 0.7647624397393639 0
    outer loop
      vertex 9.5 250.65999999642372 0
      vertex 9.5 250.65999999642372 1.6
      vertex 17.5 243.92000000178814 1.6
    endloop
  endfacet
  facet normal 1 0 0
    outer loop
      vertex 9.5 259.14000000059605 0
      vertex 9.5 250.65999999642372 1.6
      vertex 9.5 250.65999999642372 0
    endloop
  endfacet
  facet normal 1 0 0
    outer loop
      vertex 9.5 259.14000000059605 0
      vertex 9.5 259.14000000059605 1.6
      vertex 9.5 250.65999999642372 1.6
    endloop
  endfacet
  facet normal 0.6443123553841631 -0.7647624393884104 0
    outer loop
      vertex 17.5 265.8800000026822 0
      vertex 9.5 259.14000000059605 1.6
      vertex 9.5 259.14000000059605 0
    endloop
  endfacet
  facet normal 0.6443123553841631 -0.7647624393884104 0
    outer loop
      vertex 17.5 265.8800000026822 0
      vertex 17.5 265.8800000026822 1.6
      vertex 9.5 259.14000000059605 1.6
    endloop
  endfacet
  facet normal 1 0 0
    outer loop
      vertex 17.5 270.8800000026822 0
      vertex 17.5 265.8800000026822 1.6
      vertex 17.5 265.8800000026822 0
    endloop
  endfacet
  facet normal 1 0 0
    outer loop
      vertex 17.5 270.8800000026822 0
      vertex 17.5 270.8800000026822 1.6
      vertex 17.5 265.8800000026822 1.6
    endloop
  endfacet
  facet normal 0 1 0
    outer loop
      vertex 12.5 270.8800000026822 0
      vertex 17.5 270.8800000026822 1.6
      vertex 17.5 270.8800000026822 0
    endloop
  endfacet
  facet normal 0 1 0
    outer loop
      vertex 12.5 270.8800000026822 0
      vertex 12.5 270.8800000026822 1.6
      vertex 17.5 270.8800000026822 1.6
    endloop
  endfacet
  facet normal -0.6443123553841631 0.7647624393884104 0
    outer loop
      vertex 4.5 264.14000000059605 0
      vertex 12.5 270.8800000026822 1.6
      vertex 12.5 270.8800000026822 0
    endloop
  endfacet
  facet normal -0.6443123553841631 0.7647624393884104 0
    outer loop
      vertex 4.5 264.14000000059605 0
      vertex 4.5 264.14000000059605 1.6
      vertex 12.5 270.8800000026822 1.6
    endloop
  endfacet
  facet normal -1 0 0
    outer loop
      vertex 4.5 245.65999999642372 0
      vertex 4.5 264.14000000059605 1.6
      vertex 4.5 264.14000000059605 0
    endloop
  endfacet
  facet normal -1 0 0
    outer loop
      vertex 4.5 245.65999999642372 0
      vertex 4.5 245.65999999642372 1.6
      vertex 4.5 264.14000000059605 1.6
    endloop
  endfacet
  facet normal -0.6443123549676009 -0.7647624397393639 0
    outer loop
      vertex 12.5 238.92000000178814 0
      vertex 4.5 245.65999999642372 1.6
      vertex 4.5 245.65999999642372 0
    endloop
  endfacet
  facet normal -0.6443123549676009 -0.7647624397393639 0
    outer loop
      vertex 12.5 238.92000000178814 0
      vertex 12.5 238.92000000178814 1.6
      vertex 4.5 245.65999999642372 1.6
    endloop
  endfacet
  facet normal 0 -1 0
    outer loop
      vertex 17.5 238.92000000178814 0
      vertex 12.5 238.92000000178814 1.6
      vertex 12.5 238.92000000178814 0
    endloop
  endfacet
  facet normal 0 -1 0
    outer loop
      vertex 17.5 238.92000000178814 0
      vertex 17.5 238.92000000178814 1.6
      vertex 12.5 238.92000000178814 1.6
    endloop
  endfacet
  facet normal 1 0 0
    outer loop
      vertex 17.5 243.92000000178814 0
      vertex 17.5 238.92000000178814 1.6
      vertex 17.5 238.92000000178814 0
    endloop
  endfacet
  facet normal 1 0 0
    outer loop
      vertex 17.5 243.92000000178814 0
      vertex 17.5 243.92000000178814 1.6
      vertex 17.5 238.92000000178814 1.6
    endloop
  endfacet
  facet normal 0 0 1
    outer loop
      vertex 17.5 265.8800000026822 1.6
      vertex 17.5 270.8800000026822 1.6
      vertex 12.5 270.8800000026822 1.6
    endloop
  endfacet
  facet normal 0 0 1
    outer loop
      vertex 9.5 259.14000000059605 1.6
      vertex 17.5 265.8800000026822 1.6
      vertex 12.5 270.8800000026822 1.6
    endloop
  endfacet
  facet normal 0 0 1
    outer loop
      vertex 9.5 259.14000000059605 1.6
      vertex 12.5 270.8800000026822 1.6
      vertex 4.5 264.14000000059605 1.6
    endloop
  endfacet
  facet normal 0 0 1
    outer loop
      vertex 12.5 238.92000000178814 1.6
      vertex 17.5 238.92000000178814 1.6
      vertex 17.5 243.92000000178814 1.6
    endloop
  endfacet
  facet normal 0 0 1
    outer loop
      vertex 12.5 238.92000000178814 1.6
      vertex 17.5 243.92000000178814 1.6
      vertex 9.5 250.65999999642372 1.6
    endloop
  endfacet
  facet normal 0 0 1
    outer loop
      vertex 4.5 245.65999999642372 1.6
      vertex 12.5 238.92000000178814 1.6
      vertex 9.5 250.65999999642372 1.6
    endloop
  endfacet
  facet normal 0 0 1
    outer loop
      vertex 9.5 250.65999999642372 1.6
      vertex 9.5 259.14000000059605 1.6
      vertex 4.5 264.14000000059605 1.6
    endloop
  endfacet
  facet normal 0 0 1
    outer loop
      vertex 9.5 250.65999999642372 1.6
      vertex 4.5 264.14000000059605 1.6
      vertex 4.5 245.65999999642372 1.6
    endloop
  endfacet
  facet normal 0 0 -1
    outer loop
      vertex 12.5 270.8800000026822 0
      vertex 17.5 270.8800000026822 0
      vertex 17.5 265.8800000026822 0
    endloop
  endfacet
  facet normal 0 0 -1
    outer loop
      vertex 12.5 270.8800000026822 0
      vertex 17.5 265.8800000026822 0
      vertex 9.5 259.14000000059605 0
    endloop
  endfacet
  facet normal 0 0 -1
    outer loop
      vertex 4.5 264.14000000059605 0
      vertex 12.5 270.8800000026822 0
      vertex 9.5 259.14000000059605 0
    endloop
  endfacet
  facet normal 0 0 -1
    outer loop
      vertex 17.5 243.92000000178814 0
      vertex 17.5 238.92000000178814 0
      vertex 12.5 238.92000000178814 0
    endloop
  endfacet
  facet normal 0 0 -1
    outer loop
      vertex 9.5 250.65999999642372 0
      vertex 17.5 243.92000000178814 0
      vertex 12.5 238.92000000178814 0
    endloop
  endfacet
  facet normal 0 0 -1
    outer loop
      vertex 9.5 250.65999999642372 0
      vertex 12.5 238.92000000178814 0
      vertex 4.5 245.65999999642372 0
    endloop
  endfacet
  facet normal 0 0 -1
    outer loop
      vertex 4.5 264.14000000059605 0
      vertex 9.5 259.14000000059605 0
      vertex 9.5 250.65999999642372 0
    endloop
  endfacet
  facet normal 0 0 -1
    outer loop
      vertex 4.5 245.65999999642372 0
      vertex 4.5 264.14000000059605 0
      vertex 9.5 250.65999999642372 0
    endloop
  endfacet
endsolid OpenSCAD_Model
