solid OpenSCAD_Model
  facet normal 0 0 1
    outer loop
      vertex 0 88.86000000000001 1.6
      vertex 4 0 1.6
      vertex 4 88.86000000000001 1.6
    endloop
  endfacet
  facet normal 0 0 1
    outer loop
      vertex 4 0 1.6
      vertex 0 88.86000000000001 1.6
      vertex 0 0 1.6
    endloop
  endfacet
  facet normal 0 0 -1
    outer loop
      vertex 0 0 0
      vertex 4 88.86000000000001 0
      vertex 4 0 0
    endloop
  endfacet
  facet normal 0 0 -1
    outer loop
      vertex 4 88.86000000000001 0
      vertex 0 0 0
      vertex 0 88.86000000000001 0
    endloop
  endfacet
  facet normal 0 -1 0
    outer loop
      vertex 0 0 0
      vertex 4 0 1.6
      vertex 0 0 1.6
    endloop
  endfacet
  facet normal 0 -1 0
    outer loop
      vertex 4 0 1.6
      vertex 0 0 0
      vertex 4 0 0
    endloop
  endfacet
  facet normal 1 0 0
    outer loop
      vertex 4 0 1.6
      vertex 4 88.86000000000001 0
      vertex 4 88.86000000000001 1.6
    endloop
  endfacet
  facet normal 1 0 0
    outer loop
      vertex 4 88.86000000000001 0
      vertex 4 0 1.6
      vertex 4 0 0
    endloop
  endfacet
  facet normal 0 1 0
    outer loop
      vertex 4 88.86000000000001 0
      vertex 0 88.86000000000001 1.6
      vertex 4 88.86000000000001 1.6
    endloop
  endfacet
  facet normal 0 1 0
    outer loop
      vertex 0 88.86000000000001 1.6
      vertex 4 88.86000000000001 0
      vertex 0 88.86000000000001 0
    endloop
  endfacet
  facet normal -1 0 0
    outer loop
      vertex 0 0 0
      vertex 0 88.86000000000001 1.6
      vertex 0 88.86000000000001 0
    endloop
  endfacet
  facet normal -1 0 0
    outer loop
      vertex 0 88.86000000000001 1.6
      vertex 0 0 0
      vertex 0 0 1.6
    endloop
  endfacet
endsolid OpenSCAD_Model
